<svg height="499.77" viewBox="0 0 796.59 499.77" width="796.59" xmlns="http://www.w3.org/2000/svg"><g transform="translate(-3.9362 -7.3)"><path d="m718.7 54.4h67.5l-5.2 102.8h-67.5z" fill="#fff"/><path d="m722.6 58.9h59.2l-4.9 93.3h-59.2z" fill="#f7e9e1"/><path d="m766.5 83.7c-2 5.4-5.4 10.2-6.3 15.9-.4 2.5-.2 4.9.5 7.3.8 2.6 2 5 2.7 7.6 1.5 5.7.1 11.6-1.6 17.2-.8 2.4-1.6 4.9-2.3 7.3h-28c.1-.2.1-.4.2-.6l1.2-3.9c.8-2.6 1.7-5.2 2.2-7.9 1.1-4.9 1.1-9.8-.6-14.6-.8-2.3-1.9-4.6-2.4-7.1-.6-2.9-.1-5.9.8-8.7 1.7-5.1 4.7-9.6 6.2-14.8 1-3.6 1-7.6-.6-10.9h28c2.2 4 1.5 9 0 13.2z" fill="#e3c9ba"/><path d="m235.6 423.5c-.1.5-.4.4-.9.4h-1.5-1.2c-.2 0-1.1.1-1.2 0-.2-.2 4.2-41 4.8-46.9 3.3-.1 4.3-.5 7.5-1-3 17.8-7.3 46.7-7.5 47.5z" fill="#301616"/><path d="m734.1 238.5c-18.8-2.9-37.7-4.8-56.7-5.6-2.4-.1-4.7-.2-7.1-.2-1.8 0-3.7-.1-5.3.7-1.7.8-2.9 2.4-4.1 3.7-1.2 1.4-2.4 2.9-3.6 4.4-5 6.4-9.2 13.5-12.5 20.9-1.5 3.3-2.7 6.7-3.8 10.1-8.7 4-16.8 9.5-23.8 16.1-2.6 2.4-5 5-7.2 7.7-1.3 1.6-4.6 4.6-1.8 6.4 1.5 1 3.4 1.5 5 2.1 1.8.7 3.7 1.2 5.6 1.7 3.8 1 7.7 1.7 11.5 2.2 16.9 2.2 34.2 2.7 51.2 1.9 4-.2 8-.2 12-.9 3.5-.6 6.2-2.5 8.4-5.2 4.8-5.7 9-12.1 12.8-18.5 7.8-13 13.9-27.1 18.1-41.7l1.5-5.4c0-.2 0-.4-.2-.4z" fill="#fff"/><path d="m620.9 433.5c0-.3.1-.5.1-.8-7 .1-13.9.2-20.9.2-9.8 3.1-20 4.8-30.1 6.6-7.3 1.3-14.6 2.7-21.8 4.9-4.8 1.5-11 4.1-12.2 9.6-1.4 6.5 4.9 11.1 10.4 12.5 3.7 1 7.5 1.3 11.3 1.7 4.1.4 8.1.7 12.2.9 8.2.3 16.5.1 24.7-.8 6.4-.7 13-1.5 18.9-4.3 5-2.4 8.7-6.5 9.2-12.1.5-6.3-2.4-12.3-1.8-18.4z" fill="#f7e9e1"/><path d="m517.6 467.2c-5.6-2.5-12.2-2.9-18.3-2.8-6.9.1-13.7 1.3-20.3 2.9-13.8 3.4-27 9-40.7 12.4-13.6 3.4-28.2 4.9-41.5-.3-10.3-4-18.9-11.3-27.2-18.3-8-6.8-16-13.9-25.6-18.3-10.2-4.7-21.6-5.5-32.2-2-4.2 1.4-8.1 3.4-11.6 5.9-27.8 4.5-56.1-.2-84-.8-11.8-.2-25.7-.5-35.6 7.2-3.9 3-7.2 8-6.5 13.2.7 4.5 4.4 7.5 8.4 9.2 5.2 2.2 11 2.5 16.6 3 7.2.6 14.5.7 21.8.6 14.6-.3 29.2-1.7 43.7-3.2 14.6-1.5 29.2-3.1 43.8-3.8 7.2-.3 14.4-.5 21.5-.1 5.9.3 12.2 1.2 17.4 4.2 5.7 3.2 8.3 8.8 11.2 14.4 2.5 5 5.6 9.2 10.5 12 9.9 5.7 22.2 5 33 3.1 25.1-4.4 48.5-18.4 74.5-17.5 7.3.3 14.5 1.8 21.7 2.6 6 .7 12.6 1 18.3-1.4 4.7-2 8.5-6.2 8.8-11.5.2-5.2-3.4-8.8-7.7-10.7z" fill="#f7e9e1"/><path d="m425.7 287c0-2.1 0-4.3-.1-6.4 0-1.8.1-3.7-.1-5.5-.5-3.6-4.1-3.8-7-4.5-15.3-3.7-31.2-5.3-47-4.9-15.8.5-31.7 3-46.8 7.6-1.3.4-2.7.8-4 1.3 0-.6.1-1.1.2-1.7 0-.3-.5-.3-.5 0 0 .6-.1 1.2-.2 1.9-.4.1-.7.2-1.1.4-.3.1-.2.6.1.5s.6-.2.9-.3c-.8 8.5-1.8 17-3 25.5 0 .1 0 .3.2.3 7.7 2.4 16 2.4 24 2.7 8.6.3 17.2.4 25.8.3 8.7-.1 17.3-.3 26-.8 8.4-.4 17-.8 25.3-1.8 2.8-.3 5.4-1.3 6.5-4.1 1.4-3.1.9-7.1.8-10.5z" fill="#fff"/><path d="m365.6 7.3h131.7l-10.2 200.7h-131.7z" fill="#fff"/><path d="m369.9 12.2h122.6l-10.6 190.5h-122.6z" fill="#f7e9e1"/><path d="m75.2 10.6h131.7l-10.2 200.7h-131.7z" fill="#fff"/><path d="m424.5 64.5c-2.3-.4-4.8-.1-7.1-.4-2.7-.2-4.9-1.4-7-3-3.4-2.5-6.6-5.2-11.1-5.1-4 .1-7.9 2-10.5 4.9-3 3.2-4.3 7.7-4.3 12 0 4.5 1.1 9.3 3.8 12.9 2.9 3.9 7.2 4.8 11.9 5 6.9.2 13.3.1 18.1-3.1 7.5-5.1 11.3-13.1 11.8-14.6.5-1.8.5-3.9-.5-5.6-1.2-1.8-3.2-2.7-5.1-3z" fill="#e3c9ba"/><path d="m469.2 42c-3.3-6.6-9.5-10.5-16.2-12.8-3.6-1.2-7.3-2.1-11.1-2.9-4.4-.9-9-1.8-13.5-1.2-6.6.9-13 5.8-12.2 13 .9 7.7 7.8 12.3 14.2 15.4 7 3.3 15.7 6.4 18.7 14.2 1.7 4.2 1.1 8.9 1.1 13.3 0 4.1.5 8.3 2.2 12 1.4 3.2 3.8 6.1 6.9 7.8 2.6 1.4 6.6 2.5 9 .1 1.1-1.2 1.6-2.8 1.9-4.4.3-2.1 1.2-25.5 1.4-34.9.2-7.4.9-13-2.4-19.6z" fill="#e3c9ba"/><path d="m412.6 139.9c-.7-3.9-4.7-6.1-8.4-5.6-2 .3-9.5 4.1-6.3 10.4 1.8 3.6 5.3 5 8.8 3.7 3.3-1.2 6.6-4.7 5.9-8.5z" fill="#e3c9ba"/><path d="m468.5 124.7c-.7-3.9-4.7-6.1-8.4-5.6-2 .3-9.5 4.1-6.3 10.4 1.8 3.6 5.3 5 8.8 3.7 3.3-1.2 6.5-4.7 5.9-8.5z" fill="#e3c9ba"/><path d="m423.8 164c-1.5-5.5-9.6-2.5-14.9-1.5-6.3 1.3-11.9.1-16.7-5.1-5.3-5.7-6.3-16.4-4.7-23.3.6-2.6 2-6.2 0-8.5-1.7-2-4.7-2-7-1.1-5.9 2.6-8.8 12.6-5.7 26.5 1.2 5.7 3.5 11 7.4 15.3 8 8.6 20.5 11.6 31.5 7.5 3.7-1.2 11.5-4.7 10.1-9.8z" fill="#e3c9ba"/><path d="m79.5 14.4h122.6l-10.6 190.5h-122.6z" fill="#f7e9e1"/><path d="m88.8 186.4c-.7-4-2.6-7.8-3-11.9-.5-5.5.8-10.9 2.3-16.1 1.6-5.4 3.6-10.6 4.8-16.1 1.2-5.4 1.8-11 1.8-16.6 0-11.5-3.5-22.7-3.5-34.3-.1-11.3 4.4-21.5 8.7-31.6 3.7-8.7 8-18.9 5.7-28.4h17.7c2.3 9-1.6 18.7-5.1 27-4 9.6-8.6 19.4-9.2 30-.6 11.4 2.9 22.5 3.4 33.8.3 5.8-.1 11.7-1.2 17.4-1 5.4-2.8 10.7-4.5 15.9-1.8 5.5-3.4 11.3-3.3 17.1.1 2.9.7 5.6 1.5 8.3.6 1.8 1.2 3.5 1.5 5.4z" fill="#e3c9ba"/><path d="m121.2 186.7c-.7-4-2.6-7.8-3-11.9-.5-5.5.8-10.9 2.3-16.1 1.6-5.4 3.6-10.6 4.8-16.1 1.2-5.4 1.8-11 1.8-16.6 0-11.5-3.5-22.7-3.5-34.3-.1-11.3 4.4-21.5 8.7-31.6 3.7-8.7 8-18.9 5.7-28.4h17.7c2.3 9-1.6 18.7-5.1 27-4 9.6-8.6 19.4-9.2 30-.6 11.4 2.9 22.5 3.4 33.8.3 5.8-.1 11.7-1.2 17.4-1 5.4-2.8 10.7-4.5 15.9-1.8 5.5-3.4 11.3-3.3 17.1.1 2.9.7 5.6 1.5 8.3.6 1.8 1.2 3.5 1.5 5.4h-17.6z" fill="#e3c9ba"/><path d="m152.9 186.7c-.7-4-2.6-7.8-3-11.9-.5-5.5.8-10.9 2.3-16.1 1.6-5.4 3.6-10.6 4.8-16.1 1.2-5.4 1.8-11 1.8-16.6 0-11.5-3.5-22.7-3.5-34.3-.1-11.3 4.4-21.5 8.7-31.6 3.7-8.7 8-18.9 5.7-28.4h17.7c2.3 9-1.6 18.7-5.1 27-4 9.6-8.6 19.4-9.2 30-.6 11.4 2.9 22.5 3.4 33.8.3 5.8-.1 11.7-1.2 17.4-1 5.4-2.8 10.7-4.5 15.9-1.8 5.5-3.4 11.3-3.3 17.1.1 2.9.7 5.6 1.5 8.3.6 1.8 1.2 3.5 1.5 5.4h-17.6z" fill="#e3c9ba"/><path d="m800 192.4c-.6 1.8-1.3 3.6-2.1 5.3-2.2 5.1-4.8 10-7.3 14.9l-1.2 2.4c-2.8 5.6-5.3 11.4-7.6 17.3-2.5 6.6-4.7 13.3-6.4 20.1-.9 3.4-1.7 6.8-2.4 10.2-.3 1.7-.6 3.3-.9 5s-.9 3.5-2.6 4.2c-1.8-12.6-1.5-25.3.4-37.9 1.4-9.1 3.5-18.3 7.3-26.8.9-2.1 2-4.2 3.1-6.2 2.8-5 6.5-9.8 10.9-13.4 1.3-1.1 2.9-2.1 4.7-2.2 1.7-.1 3.6.6 4.2 2.4.8 1.5.3 3.2-.1 4.7z" fill="#768751"/><path d="m765.1 272.9c-.2 0-.3.1-.5.1 0 1.2 0 2.4-.1 3.6 0 .3-.5.3-.5 0v-3.5c-.8.2-1.7.5-2.6.7-.2 0-.3-.1-.3-.2 0-3.1 0-6.3-.2-9.4-.8-17.9-4.2-35.5-8.8-52.9-1.9-7.3-4.1-14.5-6.3-21.7-1.9-6-3.9-12-5.9-18s-3.9-12.1-6.2-18c-4.4-11.5-11.3-21.7-17.4-32.4-1.4-2.5-2.9-5.1-4.1-7.7-.8-1.7-1.3-3.7-1.1-5.6.7-4.9 6.7-3.5 9.8-2 4.3 2.1 7.4 5.9 10.1 9.7 3.2 4.7 6 9.8 8.6 14.8 10.8 21.2 17.3 44.5 20.9 68 .5 3.1.9 6.3 1.3 9.4 2.6 21.4 3 43 2.7 64.5.1 0 .2-.1.3-.1.4.2.6.7.3.7z" fill="#768751"/><path d="m751.4 272.8c-.2 1.6-.3 3.3-.6 4.9.2.1.4.3.6.5s-.2.5-.4.3l-.2-.2c-.3 2-.8 4.1-1.7 6-.1.3-.6.1-.5-.2.8-2 1.4-4 1.7-6.1-.8-.5-1.7-.7-2.8-.5-.2 0-.3-.1-.3-.3.1-2.1 0-4.2-.2-6.2-.7-7.6-1.7-15.3-2.9-22.9-1.3-7.6-3-15.2-5.8-22.4-.3-.9-.7-1.7-1-2.6-2.7-6.4-5.9-12.7-9.3-18.7-2-3.5-4-6.9-6.3-10.2-1.8-2.6-4.5-5.2-5.4-8.4-.6-2.1.3-4.4 2.6-5 2.7-.7 5.4.8 7.5 2.3 5.7 4 10.2 10 13.8 15.9 3 4.9 5.4 10.1 7.2 15.5 2.7 7.8 4.2 15.9 5 24.1.7 7.6.6 15.2.2 22.9-.4 3.6-.8 7.4-1.2 11.3z" fill="#768751"/><path d="m4.1 265.3 156.1-5 97.7-.2-9.9 140.5-156.7 21.4z" fill="#fff"/><path d="m778.3 307.9c-2 3.8-4.1 7.5-6.2 11.3-.1.2-.2.3-.3.5-1.8 3.2-3.6 6.3-5.5 9.5-12 20.2-25.3 39.5-39.8 57.8-1.5 1.9-3 3.7-4.5 5.5-1.5 1.9-3.1 3.8-4.7 5.7-.1.1-.2.3-.4.4-2.7 3.2-5.4 6.4-8.2 9.5l-459.7-6.7 6.2-101.1 7.7.1h.5z" fill="#c49376"/><g fill="#a1765d"><path d="m297 311.5c-2.5 0-5-.3-7.6-.2h-.5c-1.7 4.3-3.4 8.5-5 12.8-8.6 22.1-16.8 44.3-24.7 66.7 3.1-.2 5.7 0 8.8 0 2.1-5.9 4.6-12.1 6.8-17.9 7.4-20.6 15.2-41 23.2-61.3-.3-.1-.6-.1-1-.1z"/><path d="m451 393.9h.3c5.9-15.9 11.9-31.7 18.2-47.4-.3 0-.6.1-1 .1-2.5 0-5-.3-7.6-.2h-.5c-1.7 4.3-3.4 8.5-5 12.8-4.5 11.5-8.9 23.1-13.2 34.7 3-.8 5.9-.5 8.8 0z"/><path d="m451 393.9c.8 0 1.7 0 2.5.1 2.2 0 4.4 0 6.5.2 5.1-13.6 10.3-27.1 15.6-40.5-.3 0-.6.1-1 .1-2.5 0-5-.3-7.6-.2h-.5c-1.7 4.3-3.4 8.5-5 12.8-3.5 9-7.1 18.2-10.5 27.5z"/><path d="m696.9 325.8c-1.7 4.3-18.8 49.2-26.6 71.6 3.2.1 5.6.2 8.7.2v-.1c2.7.1 5.2.3 8 .3 2.1-5.9 4.7-12.4 6.8-18.3 7.4-20.6 12.1-33.1 20.2-53.4-.4 0-17-.3-17.1-.3z"/><path d="m503.4 394.8c3-.1 6 .2 9 .4 4.9-13.2 10-26.3 15.2-39.4-.3 0-.6.1-1 .1-2.5 0-5-.3-7.6-.2h-.5c-1.7 4.3-3.4 8.5-5 12.8-3.4 8.6-6.8 17.4-10.1 26.3z"/><path d="m338.5 320c-1.7 4.3-19 49.3-26.8 71.6 3-.2 5.8 0 8.8 0 0 .1-.1.2-.1.2 3-.2 5.8 0 8.8 0v.1c3.1-.2 5.7 0 8.8 0 2.1-5.9 4.6-12.1 6.8-17.9 7.4-20.6 12.3-33.2 20.3-53.5-.4.1-26.4-.4-26.6-.5z"/><path d="m659.4 326.5c-2.5 0-37.5-.4-37.6-.4-1.7 4.3-18.5 48.1-26.3 70.4 3.1-.2 35.5.1 38.6.1 2.1-5.9 18.3-49.9 26.4-70.2-.4.1-.7.1-1.1.1z"/><path d="m746 334.6c-4 10-12.5 33.7-19.3 52.2-1.5 1.9-3 3.7-4.5 5.5-1.5 1.9-3.1 3.8-4.7 5.7-.1.1-.2.3-.4.4h-.4-.5c-10.5-.2-31.6-.7-32.1-.7h-.2c8.8-23.8 22.3-60.5 23.5-63.5h.5c2 0 23.3.2 32.8.3h.5 3.8c.3.2.6.1 1 .1z"/><path d="m767.4 327.5c-12 20.2-26.3 41.1-40.8 59.4-1.5 1.9-3 3.7-4.5 5.5h-2-.2c7-18.9 16.9-45.8 21.3-57.7 1.2-3.1 2.2-6.7 2.4-7.3h.5c1.5 0 13.6 0 23.3.1z"/><path d="m581.6 325.3c-2.5 0-25.4-.5-25.6-.6-1.7 4.3.3-.5-1.4 3.8-8.6 22.1-16.8 44.3-24.7 66.7 3-.2 5.8 0 8.8 0 0 .1-.1.2-.1.2 3-.2 5.8 0 8.8 0v.1c3.1-.2 5.7 0 8.8 0 2.1-5.9 4.6-12.1 6.8-17.9 7.4-20.6 11.5-32 19.6-52.3-.4-.1-.7-.1-1 0z"/><path d="m383.1 392.6c.4-1 .9-2.5 1.3-3.5 7.4-20.6 15.2-41 23.2-61.3-.3 0-.6.1-1 .1-2.5 0-41.6-.6-44.1-.6h-.5c-1.7 4.3-3.4 8.5-5 12.8-6.7 17.3-13.2 34.7-19.5 52.2 3.1-.5 42.5.2 45.6.3z"/><path d="m618.1 333.5c-2.2 0-42-.3-44.5-.2h-.5c-1 2.6-16.7 40.8-24.7 62.1 3.8-.5 7.6.2 11.6.2.5 0 .9.1 1.2.3h2.5s0-.1.1-.2h.2c1.5 0 3.1.1 4.7.2 1.1.1 25.1.2 26.1-.1.3-.1 2.5-.1 2.8-.1l.3-.9c7.4-20.6 13.2-41 21.3-61.3z"/><path d="m267.3 390.8c2.6 0 5.2.4 7.9.4 2.4 0 4.9-.1 7.3 0 6.6-17.5 14.4-38 18.7-48.9-.3 0-.6.1-1 .1-2.5 0-11.5-.3-14-.2h-.5c-1.1 2.8-10.2 26.5-18.6 48.8.1-.2.2-.2.2-.2z"/><path d="m282.4 390.9c2.6 0 5.2.4 7.9.4 2.4 0 6.4-.1 8.8 0 6.6-17.5 14.4-38 18.7-48.9-.3 0-.6.1-1 .1-2.5 0-13-.3-15.5-.2h-.5c-1.1 2.8-10.2 26.5-18.6 48.8z"/><path d="m367.6 392.5c2.6.2 5.1-.1 7.7 0 2.5.1 5 .3 7.4.4 7.1-19 17.7-47 23-60.5-.3 0-.6.1-1 .1-2.5 0-11.5-.3-14-.2h-.5c-1.3 3.3-13.7 35.5-22.9 60.3.2-.1.2-.1.3-.1z"/><path d="m306.3 391.5c2.4 0 4.7.3 7.1.5 7.1-19 18.1-48.2 23.7-62.1-.3 0-.6.1-1 .1-2.5 0-11.5-.3-14-.2h-.5c-1.3 3.3-14.1 36.7-23.4 61.7z"/><path d="m262.9 311.2c-1.8 26.4-3 52.8-3.7 79.3l458.3 7.5c-.1.2-.3.3-.4.5l-458.1-7.5h-.1c-.1 0-.2-.1-.2-.2.2-7.7.4-15.5.7-23.2.7-18.8 1.7-37.5 3-56.3h-.3c-.3 0-.3-.5 0-.5h.4c.2-3.5.5-6.9.7-10.4.3-4.9.7-9.8 1.1-14.6 0-.3.5-.3.5 0-.4 4.9-.8 9.8-1.1 14.6-.2 2.8-.4 5.7-.6 8.5 0 .6-.1 1.2-.1 1.9l509.3 8.4c-.1.2-.2.3-.3.5z"/></g><path d="m673.2 316.8c-.1 0-.2 0-.2.1-.1 0-.2-.1-.3-.1-1 0-2.1-.1-3.2 0-.2 0-.4 0-.5.1v-.5c-.1-.6-.9-.6-1 0 0 .2 0 .4-.1.6-.2 0-.3 0-.5.1-.1-.5-.6-.5-.9-.2-.1.1-.2.2-.2.4-.1.1-.1.3-.1.5s.1.3.1.5v.1c0 .5.7.6.9.3 0 .3 0 .6-.1.9-.1.5.7.9.9.4v-.1c.1-.2.2-.5.3-.7.2 0 .4-.1.4-.4v-.1c.2 0 .5 0 .7-.1.7.1 1.3.3 2 .7.4.2.8-.2.7-.6.2.1.4.3.5.4.3.1.3.1.6.2.2 0 .3-.1.4-.2.3-.6.3-1.2.3-1.9.2-.6-.5-.8-.7-.4z" fill="#c49376"/><path d="m668.1 396.5c-.1 0-.2 0-.2.1-.1 0-.2-.1-.3-.1-1 0-2.1-.1-3.2 0-.2 0-.4 0-.5.1v-.5c-.1-.6-.9-.6-1 0 0 .2 0 .4-.1.6-.2 0-.3 0-.5.1-.1-.5-.6-.5-.9-.2-.1.1-.2.2-.2.4-.1.1-.1.3-.1.5s.1.3.1.5v.1c0 .5.7.6.9.3 0 .3 0 .6-.1.9-.1.5.7.9.9.4v-.1c.1-.2.2-.5.3-.7.2 0 .4-.1.4-.4v-.1c.2 0 .5 0 .7-.1.7.1 1.3.3 2 .7.4.2.8-.2.7-.6.2.1.4.3.5.4l.6.2c.2 0 .3-.1.4-.2.3-.6.3-1.2.3-1.9.2-.6-.5-.8-.7-.4z" fill="#c49376"/><path d="m662.5 371.7c-.6 8.6-1.2 17.1-1.8 25.7 0 .3.5.3.5 0 1.9-26.7 3.6-53.4 5.1-80.1h-.5c-1 18.2-2.1 36.3-3.3 54.4z" fill="#a1765d"/><path d="m673.8 317.6c-1 18-2.1 36.1-3.3 54.1-.6 8.6-1.2 17.1-1.8 25.7 0 .3.5.3.5 0 1.9-26.6 3.6-53.2 5.1-79.8z" fill="#a1765d"/><path d="m686.8 375.8c-3.1 8-6.2 16-9.4 24-.1.3.3.5.5.2 9.8-24.9 19.4-49.8 28.8-74.9-.2 0-.3-.1-.5-.2-6.4 17-12.9 34-19.4 50.9z" fill="#c49376"/><path d="m630.1 376.6c-3.1 8-6.2 16-9.4 24-.1.3.3.5.5.2 9.8-24.9 19.4-49.8 28.8-74.9-.2 0-.3-.1-.5-.2-6.4 17-12.9 34-19.4 50.9z" fill="#c49376"/><path d="m618 376c-3.1 8-6.2 16-9.4 24-.1.3.3.5.5.2 9.8-24.9 19.4-49.8 28.8-74.9-.2 0-.3-.1-.5-.2-6.4 17-12.8 33.9-19.4 50.9z" fill="#c49376"/><path d="m377.9 376c-3.1 8-6.2 16-9.4 24-.1.3.3.5.5.2 9.8-24.9 19.4-49.8 28.8-74.9-.2 0-.3-.1-.5-.2-6.3 17-12.8 33.9-19.4 50.9z" fill="#c49376"/><path d="m367.3 375.3c-3.1 8-6.2 16-9.4 24-.1.3.3.5.5.2 9.8-24.9 19.4-49.8 28.8-74.9-.2 0-.3-.1-.5-.2-6.3 17-12.8 34-19.4 50.9z" fill="#c49376"/><path d="m355.3 375.3c-3.1 8-6.2 16-9.4 24-.1.3.3.5.5.2 9.8-24.9 19.4-49.8 28.8-74.9-.2 0-.3-.1-.5-.2-6.4 17-12.9 34-19.4 50.9z" fill="#c49376"/><path d="m343.1 377.7c-3.1 8-6.2 16-9.4 24-.1.3.3.5.5.2 9.8-24.9 19.4-49.9 28.8-74.9-.2 0-.3-.1-.5-.2-6.3 17-12.8 34-19.4 50.9z" fill="#c49376"/><path d="m336.9 371c-3.1 8-6.2 16-9.4 24-.1.3.3.5.5.2 9.8-24.9 19.4-49.8 28.8-74.9-.2 0-.3-.1-.5-.2-6.3 17-12.8 34-19.4 50.9z" fill="#c49376"/><path d="m291.8 372.2c-3.1 8-6.2 16-9.4 24-.1.3.3.5.5.2 9.8-24.9 19.4-49.8 28.8-74.9-.2 0-.3-.1-.5-.2-6.4 17-12.8 34-19.4 50.9z" fill="#c49376"/><path d="m267 393.7c7-17.9 13.8-35.8 20.6-53.8-.2 0-.3-.1-.5-.2-6.4 17-12.9 34-19.4 50.9l-1.2 3c.2 0 .4 0 .5.1z" fill="#c49376"/><path d="m693.4 379.8c-3.1 8-6.2 16-9.4 24-.1.3.3.5.5.2 9.8-24.9 19.4-49.8 28.8-74.9-.2 0-.3-.1-.5-.2-6.4 17.1-12.8 34-19.4 50.9z" fill="#c49376"/><path d="m707.4 382.1c-3.1 8-6.2 16-9.4 24-.1.3.3.5.5.2 9.8-24.9 19.4-49.8 28.8-74.9-.2 0-.3-.1-.5-.2-6.3 17-12.8 33.9-19.4 50.9z" fill="#c49376"/><path d="m741.5 334c-.1.2-.2.5-.2.7-8 21.3-16.2 42.6-24.5 63.8h-.5c1.8-4.6 3.6-9.2 5.4-13.8 6.5-16.6 12.8-33.3 19.1-50 .1-.3.2-.6.3-.8.1 0 .2.1.4.1z" fill="#c49376"/><path d="m494.1 313.6c-.1 0-.2 0-.2.1-.1 0-.2-.1-.3-.1-1 0-2.1-.1-3.2 0-.2 0-.4 0-.5.1v-.5c-.1-.6-.9-.6-1 0 0 .2 0 .4-.1.6-.2 0-.3 0-.5.1-.1-.5-.6-.5-.9-.2-.1.1-.2.2-.2.4-.1.1-.1.3-.1.5s.1.3.1.5v.1c0 .5.7.6.9.3 0 .3 0 .6-.1.9-.1.5.7.9.9.4v-.1c.1-.2.2-.5.3-.7.2 0 .4-.1.4-.4v-.1c.2 0 .5 0 .7-.1.7.1 1.3.3 2 .7.4.2.8-.2.7-.6.2.1.4.3.5.4l.6.2c.2 0 .3-.1.4-.2.3-.6.3-1.2.3-1.9.2-.5-.4-.7-.7-.4z" fill="#c49376"/><path d="m489 393.3c-.1 0-.2 0-.2.1-.1 0-.2-.1-.3-.1-1 0-2.1-.1-3.2 0-.2 0-.4 0-.5.1v-.5c-.1-.6-.9-.6-1 0 0 .2 0 .4-.1.6-.2 0-.3 0-.5.1-.1-.5-.6-.5-.9-.2-.1.1-.2.2-.2.4-.1.1-.1.3-.1.5s.1.3.1.5v.1c0 .5.7.6.9.3 0 .3 0 .6-.1.9-.1.5.7.9.9.4v-.1c.1-.2.2-.5.3-.7.2 0 .4-.1.4-.4v-.1c.2 0 .5 0 .7-.1.7.1 1.3.3 2 .7.4.2.8-.2.7-.6.2.1.4.3.5.4.3.1.3.1.6.2.2 0 .3-.1.4-.2.3-.6.3-1.2.3-1.9.2-.6-.4-.7-.7-.4z" fill="#c49376"/><path d="m483.4 368.5c-.6 8.6-1.2 17.1-1.8 25.7 0 .3.5.3.5 0 1.9-26.7 3.6-53.4 5.1-80.1h-.5c-1 18.2-2.1 36.3-3.3 54.4z" fill="#a1765d"/><path d="m494.8 314.4c-1 18-2.1 36.1-3.3 54.1-.6 8.6-1.2 17.1-1.8 25.7 0 .3.5.3.5 0 1.9-26.6 3.6-53.2 5.1-79.8-.2.1-.4.1-.5 0z" fill="#a1765d"/><path d="m252 54c-2.4 58.2-4.9 116.4-7.7 174.6 0 .3-.5.3-.5 0 1.5-32.5 3-65 4.5-97.5" fill="#e3c9ba"/><path d="m142.1 458.3c-4.4-1.3-15.1-1.2-15.4-1.1-10.2 2.5-20.7 4.1-31.2 4.8-10 .7-20.1.1-30.2.8-4.8.3-9.5 1-14.1 2.4-3.6 1.1-7.3 2.6-10 5.3-2.2 2.3-3.4 5.5-2.4 8.7 1 3 3.8 5.1 6.5 6.5 3.7 1.8 7.7 2.6 11.7 3.3 4.9.9 9.8 1.5 14.8 1.8 10.2.7 20.5.3 30.8-.5 10.1-.8 20.1-2 30.1-3.4 7.8-1.1 17.2-3.5 20.1-11.8 2.8-7.8-3.7-14.7-10.7-16.8z" fill="#f7e9e1"/><path d="m178.4 246.9c.4-.1.7-.1 1-.2.3 1.1.5 2.3.8 3.4.1-.4.2-.8.3-1.1l-.6-2.4c.4-.1.7-.1 1.1-.2h.1l.3-1.5c-.8-12.8.3-25.6 3.2-38 1.5-6.3 3.4-12.5 5.8-18.5 2.4-6.1 5.2-12 7.3-18.1.9-2.6 2.1-5.7 1.3-8.4-.6-1.9-2.2-3.5-4.3-3.3-2.5.2-4.8 2.4-6.5 3.9-2 1.8-3.7 3.8-5.2 5.9-7.1 10-8.9 22.5-9.2 34.5-.2 10 .4 20 1.7 29.9-4.5-11.2-10.8-21.6-18.7-30.7-3.1-3.5-6.4-7.1-10.7-9-2.7-1.2-8-2.1-9.1 1.7-.6 2 .5 4.1 1.6 5.7 1.3 1.9 2.8 3.7 4.4 5.4 3.4 3.7 7.3 7 10.8 10.7 8.3 8.6 13.1 19.3 16.9 30.5 0 .1.1.2.2.2 2.4.1 4.7 0 7-.4.1.4.2.8.2 1.2.1.3.5.2.5-.1s-.1-.7-.2-1.1z" fill="#768751"/><path d="m180.7 252.5.3 1.8c0 .3.5.2.5-.1-.2-1-.4-2-.5-2.9z" fill="#768751"/><path d="m216.9 197.1c-2.4-2.1-6-2.1-8.7-.7-3.7 1.9-6.3 5.8-8.6 9.1-2.7 3.8-5 7.9-7.1 12-3.9 7.8-6.9 16-9.7 24.1-.1 1.3-.3 2.5-.6 3.8 1.6-.1 3.2-.2 4.7-.4 2.1-.2 2.8-1 3.9-2.7 2.6-4.2 5.2-8.4 7.9-12.5s5.4-8.1 8.3-11.9c1.6-2.1 3.2-4.2 4.9-6.2 1.4-1.7 2.9-3.3 4.2-5.1 2.3-2.7 3.9-6.8.8-9.5z" fill="#505c36"/><path d="m657.4 166.3c-.5-2.8-1-7.3-3.9-8.9-1.4-.8-3.1-.4-4.3.5-1.2 1-1.9 2.4-2.5 3.8l-.1.1c0 .1 0 .2-.1.3-.1.2-.2.4-.2.6v.2c-1 5.5-.7 11.1-.7 16.6 0 3 0 6 .1 9 0 2.8.2 5.6 1.1 8.4 0 .1.2.2.3.2 2.9-1.2 1.7.4 3.4-2.6 1-1.8 6.5-6.8 6.8-8.8.4-2.1.6-4.1.8-6.2.4-4.3.1-8.8-.7-13.2z" fill="#301616"/><path d="m670.2 232.7c-.4.5-.9 1-1.4 1.5l-.4.4c-2.8 2.5-6.5 3.9-10 5-5.4 1.6-11 2.6-16.5 4.1-6.1 1.6-12.2 3.6-18 6.2-5.6 2.5-10.6 5.8-15.4 9.5-.8.7-1.7 1.3-2.6 2-.1.1-.3.2-.4.3-3.3 2.6-6.8 5.1-10.6 7-5.5 2.7-11.4 3.4-17.5 2.7-6.6-.7-13-2.5-19.5-3.4-6.6-.9-13.4-1.1-20.1-.6-2.3.2-4.7.5-7 .8-6.4 3.9-13.2 7-20.3 9.3-3.4 1.1-7.2 2.5-10.8 1.9-2.9-.5-5.4-2.3-7.1-4.7-4.2-5.7-3.7-14-2.5-20.6 1.3-7.4 4.2-14.5 7.6-21.2 7.1-14 16.7-26.5 22.2-41.3 2.9-7.6 5-15.6 7.6-23.4.1-.2.2-.5.2-.7 2-5.8 4.2-11.5 7.3-16.9 4.5-7.8 10.5-13.8 17.9-18.8.7 1 2 1 3.6 1 13.3.2 26.4-3.1 39.7-3.5 2.3-.1 3.7-1.6 4-3.4.1 0 .2.1.4.1 2.5.6 4.9 1.6 6.5 3.6 1.8 2.1 2.7 4.9 3.5 7.6.9 3.1 1.5 6.2 1.9 9.3.9 6.4 1.1 12.8 1.5 19.2.4 6.2 1 12.5 2.8 18.4 1.6 5.3 4.5 10.5 9.6 13.1 5.7 2.8 12.5 2.2 18.5 3.5 5.9 1.3 11.8 3.4 17 6.5 4.5 2.7 8.5 6.5 10.4 11.5 1.6 4.8 1.1 10-2.1 14z" fill="#b88187"/><path d="m611.8 88.5c-.3 1.4-.8 2.6-1.3 3.9-.6 2.6-1.3 5-1.9 6.8-.6 1.9-1.1 3.7-1.4 5.7-.2 1.5-.3 3.1-.5 4.6-.3 2.5-.9 5.2-2.6 7.1-1.7 1.8-4.2 2.5-6.6 2.3-3.1-.2-5.7-2.3-8.9-1.4-2.6.8-4.8 2.6-7.5 2.8-1.4.1-2.7-.1-4-.6-1.2-.4-2.5-1-3.6-1.5-3.1-1.4-6-2.1-9.5-1.7-2.8.3-5.5 1-8.3 1.1h-1.2c-1.8-.1-3.6-.4-5.2-1.2-.3-.1-.7-.2-1-.4-1.5-.8-2.4-2.3-2.7-3.9 0-.3-.1-.7-.1-1 0-1 .2-2.1.7-3 .4-.9 1.1-1.8 1.5-2.7.6-1.4.4-2.4-.2-3.8-.7-1.6-1-3.3-.7-5 .6-3.8 3-7 5.6-9.7 1.4-1.4 2.9-2.7 4.5-3.8 1.7-1.2 3.7-2.2 5.3-3.5 3.5-2.7 4-6.9 6.1-10.6 1.7-3 4.4-5.4 7.5-6.9 4.3-2.2 9.2-2.6 13.8-1.6 3.4.1 6.8.5 9.9 1.7.6.2 1.2.5 1.7.7.3.1.5.3.8.4 2.4 1.3 4.5 3.2 6.1 5.4 4.5 5.4 5.4 12.9 3.7 19.8z" fill="#7d443b"/><path d="m579.7 113.8c-.1-1.6-.7-3-1.5-4.3-.7-1.3-1.4-2.6-2.3-3.8-.1-.2-.3-.4-.4-.6-1.3-1.7-3-3.1-4.1-5-1-1.7-1.7-3.6-2.1-5.5-.5-2-.7-4.1-.9-6.2-.1-.9-.1-1.9-.6-2.6.1-.2-.1-.4-.3-.3-.1-.1-.2-.2-.4-.2-.3-.1-.5.3-.2.4.1 0 .2.1.2.1-2.3 1.8-4.6 3.8-6 6.5-1.7 3.2-.9 6.8-1.6 10.3-.2 1-.5 2-.9 3-1.2 3-2.9 6.2-3.1 9.3-.1.9 0 1.9.3 2.8 2.8-.1 5.5-.8 8.3-1.1 3.4-.4 6.3.3 9.5 1.7 1.2.5 2.4 1.1 3.6 1.5 1.2-1.1 2-2.4 2.3-3.9.1-.8.2-1.5.2-2.1z" fill="#301616"/><path d="m597.4 97.1c-.2.1-.4.1-.6.1-.2.1-.5.1-.7.1-5.8 1.2-16.3 2.7-16.9 4.3v.1c-.1.4-.3 1.5-.6 3-.2 1.1-.5 2.4-.8 3.8-.2 1-.4 2-.6 3.1-.3 1.5-.6 3-.9 4.6v.2c-.1.7-.3 1.4-.4 2.1 0 .2-.1.4-.1.6l-.1.4c-.2.9-.4 1.9-.6 2.9v.3c-.3 1.7-.7 3.3-.9 4.9 0 .2-.1.3-.1.5v.2c-.1.8-.3 1.5-.4 2.2-.2.9-.3 1.6-.4 2.3-.2 1-.3 1.8-.3 2.4.4.1.9.2 1.5.2 2.2.3 5.6.7 8.8 1 .5 0 1 .1 1.4.1 3.7.3 6.8.4 6.9-.1.2-.6.3-1.3.4-1.9.1-.7.6-2.9 1.2-6 .2-1.1.5-2.2.7-3.5v-.2c.1-.3.2-.7.2-1.1.7-3.2 1.4-6.9 2.2-10.5.3-1.6.6-3.1 1-4.6.2-1.1.5-2.2.7-3.3 0-.2.1-.3.1-.5.2-1.2.5-2.3.7-3.4.1-.4.2-.9.3-1.3.3-1.4.5-2.7.8-3.8-.7.3-1.5.5-2.5.8z" fill="#ffa57a"/><path d="m623.4 147.1c.1-3.3-.3-6.5-1.6-9.5-.8-1.9-1.9-3.6-3.5-5.2-.6-.6-1.2-1.1-1.8-1.6-.6-.4-1.2-.8-1.9-1.2-3-1.6-6.3-2.2-9.9-3.2-.3-.1-.4.4-.1.5.8.2 1.5.4 2.3.7-.5 2.1-1 4.3-1.3 6.5-.3 2.5-.4 5-.2 7.4.2 1.5.5 2.9.9 4.4-1.4 4.1-2.3 8.3-3.3 12.5-.3 1.5-.7 2.9-1 4.4.1 1.5.2 2.9.4 4.4.3 2.7.6 5.5.9 8.2.6 4.6 1.2 9.1 2.1 13.6.6 3.6 1.4 7.1 2.2 10.7.8 3.5 1.5 7.2 2.8 10.5s4.2 5.8 7.8 4.1c3.5-1.6 4.8-5.2 5-8.8.2-3.8-.3-7.8-.7-11.6-.2-2.5-1-16.3-1-25.5 0-3 0-5.5.2-7 .6-4.6 1.6-9.5 1.7-14.3z" fill="#ffa57a"/><path d="m665.3 159.6c-1.8-1.3-3.6-2.6-5.4-3.8-.1-.1-.2-.1-.3 0-12.6 9.3-24 20.1-36.5 29.6-2.5 1.9-5 3.6-7.5 5.4.2-.6.3-1.3.4-1.9.1-.3-.4-.4-.5 0-.2.8-.4 1.6-.5 2.4-.9.6-1.8 1.2-2.8 1.8-.3.2 0 .5.3.4.8-.5 1.5-1 2.3-1.5-.6 2.8-1.2 5.6-1.9 8.4-.7 3.2-2.1 7-1.3 10.2.6 2.4 2.4 4.2 5 4.1 2.9-.1 5.8-1.9 8.1-3.6 2.7-2 5-4.5 7.3-6.9s4.5-4.9 6.7-7.4c4.8-5.4 9.3-11 13.5-16.9 4.7-6.4 9.1-13.1 13.2-19.9 0-.2 0-.4-.1-.4z" fill="#ffa57a"/><path d="m592.1 104.7c-1.4-1.1-2.8-.3-4.2.4-2.1 1.1-4.2 2.2-6.2 3.3-1.5.9-3.3 1.8-4.5 3.2-.3 1.5-.6 3-.9 4.6v.2c-.1.7-.3 1.4-.4 2.1 0 .2-.1.4-.1.6 3.6.1 7.5-.3 10-3.1 1.4-1.6 2-3.6 2.8-5.5 1-2.1 2.8-3.5 3.6-5.6 0 0 0-.1-.1-.2z" fill="#dd6b4b"/><path d="m549.5 439.6c.3.3.5.6.8.9 4.6 5 10.4 9.1 15.7 13.3 1.5 1.2 4.4 3.2 2.1 5-2.2 1.7-5.3 2-8 1.5-3.4-.7-6.5-2.7-9.4-4.5l-9.9-6.3c-1.3-.8-2.7-1.7-3.3-3.2-.7-1.6-.6-3.5-.8-5.2 0-.2-.1-.5-.1-.7 4.3-.2 8.6-.2 12.9-.8z" fill="#ffa57a"/><path d="m611.7 447.8c-1.7-1-3.6-1.8-5.2-3.1-1-.8-6.6-6.5-8.1-8.8-.8-1.2-1.5-2.5-1.8-3.9-.3-1.5 0-2.9.5-4.4.7-2.3 1.2-4.5 1.1-6.9 0-.1-.2-.2-.3-.2-4 .6-7.9 1-11.9 1.3-.1 0-.2.1-.2.2 0 0-.1.1 0 .2.4 3.5-1.7 6.5-2.5 9.8-.9 3.8.2 7.8 3.2 9.8 4.1 2.8 12.7 12.8 20.4 13.2 2.7.2 5.8-.5 7.7-2.5 1.9-2.1-1.2-3.7-2.9-4.7z" fill="#ffa57a"/><path d="m614 314.6c-.5-7.7-23-57.2-31.1-75.6-.1-.2-.1-.3-.2-.5-1.1-2.6-1.9-4.5-2.3-5.5-3.2-8.4-.5-13.6 3.7-22.8.2-.3-11.8-2.4-11.9-2.8-3.9-.5-7.9-1.1-11.8-1.7-6.9-1-13.6-2.1-20.2-3.7-5.9 10.5-12.7 20.5-18.9 30.9-7.3 12.2-11.2 24.9-12.4 39-1 13.1.9 33.9 3.1 53-.5 8.6-1.3 17.1-1.7 25.6-1.1 20.9-1.3 41.9-.5 62.8.4 11.8 1.2 23.6 2.2 35.4 0 .2.1.3.3.2 3.1-.5 6.2-1.1 9.3-1.8.2 0 .3-.1.5-.1 5.6-1.3 11.2-3 16.6-5 4.3-.6 9-1.2 11.7-1.5 1.4-.2 2.8-.4 3.5-1.7.7-1.2.5-2.6.4-3.9-1-8.6-1.8-140.9-.5-149.3 0 .1.1.3.2.4.1.4.3.7.5 1.1 4.7 10.4 16.1 29.3 16.5 37.1.7 12.3-.8 33.5-3.3 45.5s-4 24.1-4.9 36.3c-.2 3.1-.4 6.2-.6 9.2-.1 1.5-.2 3.1-.2 4.6 0 .9-.4 2.3.2 3.2.5.7 1.6.8 2.4 1 1.5.3 3.1.6 4.7.9 2.9.5 5.8.8 8.8.9 3.3.2 6.6.1 9.9-.1 3-.2 6.1-.5 9.1-1.3.9-.2 1.7-.6 2.6-1 1.2-.2 2.5-.5 3.5-1.1 1.2-.7 1.4-2 1.6-3.3.8-1.5 2.1-19.1 2.7-24.2 2.3-20.4 3.2-32 5.5-52.4.6-9.2 1.7-18.5 1-27.8z" fill="#301616"/><path d="m616.8 132.1c-.2-.4-.5-.8-.8-1.2-.4-.5-.8-.9-1.3-1.3-1.2-1-2.7-1.7-4-2.1-8.4-2.9-16.3-4.8-24.9-7.1 0 .1 0 .2-.2.2-9.6 1.5-18.9 4.9-27.8 8.6-1.9.8-3.8 1.7-5.5 2.9-1.6 1.1-3.1 2.4-4.3 3.9-2.4 3.1-3.9 6.8-4.8 10.5-.5 1.8-.8 3.7-1.1 5.5-.4 2.4-.7 4.9-1 7.3-.2 1.5-1.8 32.7-4.5 48 7.4 1 14.7 2.5 21.8 4.4 3.9 1 7.8 2.1 11.8 3.3 3.5 1 7.1 2 10.5 3.4 5.1-9.2 18.4-34.1 22.4-42.5l.3-.6c3.8-8.2 7.9-16.4 10.9-24.9.2-.5.3-.9.5-1.4 1.2-3.6 2.2-7.3 2.6-11v-.5c.2-1.7.2-3.7-.6-5.4z" fill="#ffa57a"/><path d="m623.4 147.1c-.3 0-.6 0-.9.1-2.1.3-4.1 1-6.1 1.6-2.1.6-4.2 1.2-6.3 1.9-1.3.4-1.8 1.1-1.9 2.4-.2 2.2-.1 4.5-.1 6.8-.1 4.8 0 9.6 0 14.3 0 .2.2.3.4.2 4.2-2.4 8.8-3.9 13.1-6.1 0-3 0-5.5.2-7 .5-4.5 1.5-9.4 1.6-14.2z" fill="#dd6b4b"/><path d="m605.2 135c.2-.1.1-.5-.2-.4-2.8.8-5.4 2-7.7 3.8-2.4 1.8-4 4.1-5.9 6.2-2.2 2.5-5.4 3.1-8.4 4.5-2.5 1.1-4.7 2.7-6.6 4.6-.8.8-1.6 1.8-2.2 2.7-.3.5-1.5 1.8-.9 2.5.6.6 2.2.4 3 .4 1.9 0 3.9-.2 5.8-.4 5.8-.7 12.7-1.2 17.3-5 2.5-2 4-5.4 4.9-8.5.9-3.5 1.2-7 .9-10.4z" fill="#dd6b4b"/><path d="m610.8 159c-.7-2.9-1.4-5.8-2.1-8.8-18.2 3.2-36.8 3.2-55.2 2.4l-11.4-.6c-.4 2.4-.7 4.9-1 7.3-.2 1.5-1.8 32.7-4.5 48 7.4 1 14.7 2.5 21.8 4.4 3.9 1-6.7 4-2.8 5.1 3.5 1 21.7.2 25 1.6 4.4-8 15.2-28 20.5-38.5 1.9-2 3.5-3.1 5.5-5.1 1.3-1.3 2.4-3.1 3.4-4.8 1.1-2.1 1.6-4.5 1.4-6.8 0-1.5-.2-2.8-.6-4.2z" fill="#fff"/><path d="m605.1 81.1c-.8-4.1-3-7.8-6-10.5-1.7-1.6-3.5-2.8-5.4-3.7-.4.2-.8.4-1.4.2-4.3-.9-9.4-1.5-14.3-1.2-1.6.9-3.2 1.8-4.7 2.8-1.4.9-2.7 2-4.1 2.7-2.8 12.1-6.8 35.7-.5 41.3 3.6 3.2 11 2.4 14.9.6 5.9-2.8 8.1-5.2 11.2-9.2 2.9-3.8 5.9-5.5 8-9.8 1.9-4.1 3.2-8.7 2.3-13.2z" fill="#ffa57a"/><path d="m618.4 132.4c-.6-.6-1.2-1.1-1.8-1.6-.2 0-.4.1-.5.1-.2 0-.5.1-.7.1-3.3.6-6.5 1.6-9.6 3.1l-1.8.9c-.3.1 0 .6.2.4.5-.2.9-.5 1.4-.7-.2 2.2-.5 4.4-.7 6.7 0 .1.2.3.3.2.1 0 .2-.1.3-.1 1.9-.8 3.7-1.6 5.7-2.1 2-.6 4.1-.9 6.2-1.2.2 0 .4-.1.6-.1 1.1-.1 2.2-.2 3.2-.4h.6c-.7-1.9-1.9-3.7-3.4-5.3z" fill="#dd6b4b"/><path d="m573.6 89.8c-1.8.6-4.5-.5-4.3-2.8 0-.3-.5-.3-.5 0-.2 2.6 2.8 3.9 5 3.3.3-.1.1-.6-.2-.5z" fill="#301616"/><path d="m587.4 93.4c-1.5 1.1-4.4 1.1-5-1.1-.1-.3-.6-.1-.5.1.7 2.5 4 2.7 5.8 1.3.2 0 0-.4-.3-.3z" fill="#301616"/><path d="m609.7 156.2c-2.7-9.8-2.8-20-2.9-30.1 0-.1-.1-.2-.2-.2-.9-.4-1.8-.5-2.7-.5-.1 0-.3.1-.2.2.8 6.4 1.8 13.6-1.3 19.6-1.8 3.5-4.9 6.2-8.5 7.5-2.2.8-4.5 1.1-6.9.9-.3 0-.3.5 0 .5 2.4.2 4.9-.1 7.1-.9 1.7-.3 3 .9 4.3 1.8 1.1.7 2.2 1.3 3.4 1.6 2.5.6 5.2.3 7.8-.1.1 0 .1-.2.1-.3z" fill="#fff"/><path d="m578.5 87.4c-1.3 2.3-2.9 4.5-4 6.9-.8 1.7-1 3.7.3 5.2.2.2.6-.1.4-.3-1.6-1.9-.5-4.3.6-6.1s2.2-3.6 3.2-5.4c0-.3-.4-.6-.5-.3z" fill="#dd6b4b"/><path d="m577.3 104.8c-1.9-.7-3.8-1.5-5.6-2.4-.2-.1-.4 0-.4.2 0 .3.1.6.2.9v.1c.4 1.2 1 2.3 2.3 2.6s2.5-.3 3.6-1.1c.1 0 0-.3-.1-.3z" fill="#fff"/><path d="m577 83.8c-.6-1.6-1.9-2.8-3.5-3.4-1.1-.4-4.1-1-4.4.8-.1.7.4 1.1 1 1.5 1 .7 2.2 1.2 3.3 1.6.8.3 2.3 1.2 3.2.9.7-.2.5-1.4.4-1.4z" fill="#7d443b"/><path d="m526.3 250.5c-4.1 15.1-5.4 30.9-5.5 46.5-.1 13.9.8 27.8 1.4 41.7.6 14.1.7 28.1-.1 42.2-.8 14.5-1.9 29-1.5 43.5.2 7.5.7 15.1 1.4 22.6-.2 0-.3.1-.5.1-.9-9.2-1.4-18.4-1.5-27.6-.1-14.6 1.1-29.1 1.8-43.6.7-14.3.2-28.5-.4-42.8-1.3-27.6-3-55.9 4.3-82.9.2-.2.6 0 .6.3z" fill="#7d443b"/><path d="m583.2 86.7c.5.8 2.2 1.1 3 1.4 1.1.4 2.4.8 3.6.9.6.1 1.3.1 1.7-.5 1-1.6-1.7-3-2.8-3.5-1.6-.6-3.4-.6-4.9.2-.1 0-1 .8-.6 1.5z" fill="#7d443b"/><path d="m598.8 162c-.5-2.8-1-7.3-3.9-8.9-1.4-.8-3 0-4.2.9-1.2 1-2 2-2.6 3.4l-.1.1c0 .1 0 .2-.1.3-.1.2-.2.4-.2.6v.2c-1 5.5-.7 11.1-.7 16.6 0 3 0 6 .1 9 0 2.8.2 5.6 1.1 8.4 0 .1.2.2.3.2 2.9-1.2.2-1.4 3.4-2.6 1.9-.7 6.5-6.8 6.8-8.8.4-2.1.6-4.1.8-6.2.4-4.3.1-8.8-.7-13.2z" fill="#301616"/><path d="m638.9 140.1c.1-.1.2-.2.2-.3.1-.1.1-.3 0-.5 0-.1-.1-.2-.1-.3-.6-.9-1.8-1.1-2.8-1.1v-.1c0-.1-.2-.3-.4-.5-.7-.5-2.2-.4-3-.4-1.5 0-6 .6-7.5.7-.7.1-1.3.1-2 .2-1.5-.3-3-.3-4.6.1-1.5.4-2.9.7-4.5.6-1.4-.1-2.7-.3-4.1 0-4.9 1.1-8 5.7-10.9 9.6-.6.7-1.2 1.5-1.8 2.2-.1.1-.2.2-.3.4-.6.6-1.1 1.3-1.6 2 1.9 1.7 3.8 3.4 5.8 5 2-1.4-.4-.8 2.4-2.2 1.3-.6 5.8-2 10.6-3.6 4.3-1.2 11.6-3 15.8-4.4 2-.7 4.2-1.5 5.6-3.1.2-.3.5-.7.8-1.1.2 0 .4-.1.5-.1s.2 0 .2-.1c.5-.1 1.3-.3 1.8-.6.4-.2.7-.6.8-1 0-.8-.4-1.2-.9-1.4z" fill="#ffa57a"/><path d="m594.8 66.2c-3.3-2.1-7.8-2.7-11.7-2.9-2.1-.1-4.1 0-6.2.3-1.6.2-3.4.5-4.7 1.5-2.6 1.9-3.3 5.4-4.7 8.2-1.8 3.7-4.5 6.9-6.9 10.4-2 3-4.5 6.6-4.4 10.4 0 1 .3 1.8 1.4 1.1 1.2-.8 2-2.2 2.7-3.4.9-1.6 1.7-3.2 3.3-4.3 1.5-1.1 3.3-1.6 4.9-2.4 1.4-.7 2.5-1.6 3.4-2.9 1-1.6 1.7-3.3 2.9-4.8 1.2-1.7 3-3 4.9-3.8 2-.8 4.2-.9 6.4-1 3.8-.2 7.2-1.8 8.2-5.8.3 0 .5-.2.7-.5-.1.1-.1-.1-.2-.1z" fill="#7d443b"/><path d="m605.8 83.9c.1-6.1-1.6-12.6-5.9-17.2-2-2.1-4.7-3.9-7.6-4.2-1.1-.1-2.4.1-3 1.2-.6 1 0 1.6.4 2.3-.5.3-1 .5-1.6.8-1 .4-2.1.5-3.1.9-1.2.4-.5 1.6-.3 2.7.4 1.6 1 3.1 2 4.4 1.1 1.5 2.6 2.7 4 3.9 1.5 1.3 2.9 2.7 3.6 4.6s.6 4.1 1 6c.5 2.2 1.3 5.1 3.2 6.4.5.8 1.2 1.7 2 1.9.8.3 1.4-.4 1.8-1 .9-1.1 1.6-2.4 2.1-3.8 1-2.8 1.4-5.9 1.4-8.9z" fill="#7d443b"/><path d="m602.1 95c-2-2.2-5.3-.6-7 1.2-.2.2.2.5.4.3 0 0 0-.1.1-.1 0 .2 0 .5.1.8-.7 1.5-1.4 3-1.8 4.6-.2.8-.8 3.3 0 3.9.7.5 2.8-.6 3.4-.8 1.5-.7 2.9-1.6 4-2.8 1.8-1.9 2.8-5 .8-7.1z" fill="#ffa57a"/><path d="m600.9 96c-1 .3-1.8.8-2.5 1.6-.8.9-1.1 2.8-2.3 3.1-.3.1-.2.6.2.5.9-.2 1.3-.9 1.6-1.7.7-1.5 1.7-2.5 3.2-3.1.2 0 .1-.5-.2-.4z" fill="#dd6b4b"/><path d="m636.2 137.8c-1.8.1-3.7.4-5.4.6s-6.4.8-8 1c-1.4.1-3.7-.1-4.8.9-.2.2-.6-.1-.3-.4 1-.9 2.3-.8 3.5-.9l8.8-1.1c1.9-.2 3.9-.5 6-.6 0 .1.1.3.2.5z" fill="#dd6b4b"/><path d="m639.2 139.8c-2.2 0-4.5.4-6.7.6-1.7.2-6.4.9-8 1-1.4.1-3.7-.1-4.8.9-.2.2-.6-.1-.3-.4 1-.9 2.3-.8 3.5-.9l8.8-1.1c2.4-.2 5.1-.7 7.6-.7-.1.3-.1.4-.1.6z" fill="#dd6b4b"/><path d="m639 142.3c-.6.3-1.4.5-1.8.6-.1 0-.2 0-.2.1-1.2.1-2.3.3-3.4.4-1.7.2-6.4.8-8 1-1.4.1-3.7-.1-4.8.9-.2.2-.6-.1-.3-.4 1-.9 2.3-.8 3.5-.9l8.8-1.1c1.8-.1 4-.5 6.2-.6z" fill="#dd6b4b"/><path d="m696.7 149.2c.1-.1.2-.2.2-.3.1-.1.1-.3 0-.5 0-.1-.1-.2-.1-.3-.6-.9-1.8-1.1-2.8-1.1v-.1c0-.1-.2-.3-.4-.5-.7-.5-2.2-.4-3-.4-1.5 0-3 0-4.5.1-.7 0-4.3.6-5 .6-1.5-.3-3-.3-4.6 0-1.5.4-2.9.7-4.5.6-1.4-.1-2.7-.3-4.1 0-4.9 1.1-8 5.7-10.9 9.6-.6.7-1.2 1.5-1.8 2.2-.1.1-.2.2-.3.4-.6.6-1.1 1.3-1.6 2 1.9 1.7 3.8 3.4 5.8 5 2-1.4-.4-.8 2.4-2.2 1.3-.6 5.8-2 10.6-3.6 4.3-1.2 11.6-2.9 15.8-4.3 2-.7 4.2-1.5 5.6-3.1.2-.3.5-.7.8-1.1.2 0 .4-.1.5-.1s.2 0 .2-.1c.5-.1 1.3-.3 1.8-.6.4-.2.7-.6.8-1 0-.6-.4-.9-.9-1.2z" fill="#ffa57a"/><path d="m694 146.9c-1.8.1-3.7.4-5.4.6s-6.3.8-8 .9c-1.4.1-3.7-.1-4.8 1-.2.2-.6-.1-.3-.4 1-.9 2.3-.8 3.5-.9l8.7-1c1.9-.2 3.9-.5 6-.6.1.1.2.3.3.4z" fill="#dd6b4b"/><path d="m697 148.9c-2.2 0-4.5.4-6.7.6-1.7.2-6.3.8-8 .9-1.4.1-3.7-.1-4.8.9-.2.2-.6-.1-.3-.4 1-.9 2.3-.8 3.5-.9l8.7-1c2.4-.2 5.1-.7 7.6-.7z" fill="#dd6b4b"/><path d="m696.8 151.5c-.6.3-1.4.5-1.8.6-.1 0-.2 0-.2.1-1.2.1-2.3.3-3.4.4-1.7.2-3.4.3-5 .5-1.4.1-6.6.4-7.8 1.4-.2.2-.6-.1-.3-.4 1-.9 2.3-.8 3.5-.9l8.7-1c1.9-.3 4.1-.7 6.3-.7z" fill="#dd6b4b"/><path d="m570.8 170.9v.6c-.4 13.6-2.1 27.2-6.3 40-1.3 4-2.9 7.9-4.7 11.7-2.4 5.1-5.2 9.9-8.2 14.6-1.7 2.7-3.6 5.3-5.5 7.9-7 9.5-15 18.4-24.3 25-4.4 3.2-9.2 5.9-14.2 7.7-2.5.9-5 1.7-7.5 2.2-.2-.2-.4-.5-.6-.6 0-.1-.1-.1-.1-.2 3.3-12.3 9.1-23.4 14.4-34.7 5.2-11.1 9.2-22.7 12.2-34.8 3-11.9 5.2-24.1 7.4-36.2 2-11 4.5-26.3 11-35.2 1.8-2.4 4.5-4.6 7.4-6.6.1-.1.3-.2.4-.3 7.1-4.6 15.5-7.4 15.7-7.4 0-.3.5-.2.5.1 1.5 15.4 2.8 30.8 2.4 46.2z" fill="#b88187"/><path d="m603.1 154.5c-1.9-1.1-3.9-2.2-5.8-3.3-.1-.1-.2 0-.3 0-11.7 10.5-22 22.4-33.5 33-2.3 2.1-4.6 4.1-6.9 6.1.1-.7.2-1.3.2-2 0-.3-.5-.3-.5 0l-.3 2.4c-.9.7-1.7 1.4-2.6 2.1-.2.2.1.5.3.4.7-.6 1.4-1.1 2.2-1.7-.3 2.8-.7 5.7-1.1 8.5-.4 3.2-1.4 7.1-.3 10.3.8 2.3 2.8 4 5.3 3.6 2.9-.4 5.6-2.5 7.7-4.4 2.5-2.2 4.6-4.9 6.6-7.5s4-5.3 6-8c4.2-5.9 8.2-11.9 11.8-18.1 4.1-6.9 7.8-13.9 11.2-21.1.1-.1.1-.3 0-.3z" fill="#ffa57a"/><path d="m565.7 204.3c-.2-3.8-1.1-7.7-1.8-11.5-.7-3.7-1.4-7.4-2.2-11-2.5-12.5-5.3-25-7.5-37.6-.2.3-.5.6-.8.9-3.9 3.4-7.3 7.3-11.6 10.2-.1.1-.2.1-.2.1-.2 1.3-.3 2.6-.5 3.9l-.6 4.5c.3 1.4.5 2.9.8 4.3 1.4 7.2 3.1 14.4 5.1 21.5 1 3.5 2 7 3.2 10.4 1.1 3.4 2.2 7 3.8 10.2s4.7 5.3 8.2 3.3c3.4-1.9 4.3-5.7 4.1-9.2z" fill="#ffa57a"/><path d="m592.1 188.6c-.3-2.5-1-7.5-1.2-10-.4-5-.5-10.1-.4-15.1.1-2.5.2-4.9.5-7.4.1-.8.3-1.6.4-2.4 0-.2-.2-.4-.4-.2-7.7 6.9-15.3 13.8-23 20.7-.8.8-1.7 1.6-2.7 2.1-.4.2-1.3.7-1.8.5s-.7-1.4-.8-1.8c-.8-2.3-1.5-4.6-2.1-6.9-1.2-4.9-2-9.9-2.3-14.9-.3-4.4-.2-9.2-2.2-13.2-1.6-3.4-5.3-4.2-8.6-3-4.1 1.4-6.2 4.7-8 8.4-1.9 3.9-3.4 7.9-4.6 12-2.5 8.5-3.6 17.5-3.5 26.4.1 8.5 1 17.4 3.5 25.6 1 3.5 2.6 6.9 5.3 9.5s6.4 3.8 10.1 4.3c2.2.2 4.3.3 6.5.2s4.3-.2 6.4-.9c3.8-1.3 6.5-4.4 9-7.4 3.3-3.9 6.6-7.9 9.9-11.8 1.6-1.9 3.2-3.9 4.9-5.8 1.5-1.7 3.3-3.5 4.3-5.5.9-2 1.1-1.5.8-3.4z" fill="#b88187"/><path d="m651 190.2c-.3-2.5-.6-5-.8-7.6-.4-5-.5-10.1-.4-15.1.1-2.5.2-4.9.5-7.4.1-.8.2-1.9.4-2.7 0-.2-.3 0-.6.1-3.2 2-12.9 11.5-20.4 18.4-.7.6-1.3 1.2-1.9 1.8-.2.1-.3.3-.5.4-.5.5-1 .9-1.6 1.4-1.4-.1-2.8-.3-4.1-.3-2.1 0-3.5-.1-4.8 1.7-.2.3-.5.7-.7 1-2.8 4-5.3 8.3-7.8 12.5-2.5 4.3-5.3 8.7-6.6 13.5-1.1 3.8-.8 7.9 1.9 11 2 2.3 4.9 3.7 7.9 4.2-.3 1-.5 2-.8 2.9-.1.4-.2.8-.3 1.1 1.9.2 3.8.2 5.7.1 2.1-.1 4.3-.2 6.4-.9 3.8-1.3 6.5-4.4 9-7.4 3.3-3.9 6.6-7.9 9.9-11.8 1.6-1.9 3.2-3.9 4.9-5.8l.3-.3c.1-.1.3-.3.4-.5 1.3-1.5 2.7-3 3.6-4.7.8-1.8.6-3.7.4-5.6z" fill="#b88187"/><path d="m629 166.6c-1.1-3.2-3.7-5.9-6.9-6.8-2.3 1.9-4.8 3.6-7.1 5.6-3.2 2.8-6.3 5.9-9.1 9.1-1.3 1.7-2.6 3.4-3.7 5.2-.7 1.1-1.4 2.3-2.1 3.5-.4 1.5-.7 3-1 4.5-.9 4.6-2.3 9.2-2.8 13.9-.2 1.9-.8 4.2-1 6.1 4.6-3 10.9-2.8 17.4-7.2 4.4-2.9 10.5-16.5 13.5-20.8 2.7-3.7 4.3-8.6 2.8-13.1z" fill="#b88187"/><path d="m601.3 62.6c-2.8.3-5.5 1.1-8 2.2-3.5 1.6-7.4 3.9-8.2 7.9.2 0 .4.1.5.2.7-4.2 5.1-6.6 8.7-8.1 2.5-1 5.2-1.7 7.8-1.9-.2 0-.5-.2-.8-.3z" fill="#301616"/><path d="m574 167.8c-.8 1.5-1.8 2.8-3.2 3.8-.4.3-.9.6-1.4.9-.2.1-.3 0-.4-.1-5.6-13.3-8.3-28.3-17-40 .1-.1.3-.2.4-.3 8.7 11.7 11.4 26.6 17 39.9.5-.3 1-.6 1.4-1 1.1-.9 2-2 2.7-3.4.2-.4.6-.1.5.2z" fill="#301616"/><path d="m559.7 223.2c-4.9 1.4-7.7-3.8-9.7-7.3-8.6-15.4-16.3-31.2-22.6-47.6.1-.2.2-.5.2-.7 1.1 3 2.3 6 3.5 8.9 3.6 8.6 7.5 17.1 11.8 25.4 2.2 4.2 4.4 8.3 6.7 12.5 2 3.5 4.7 10 9.9 8.5.4-.2.5.2.2.3z" fill="#301616"/><path d="m646.9 200.5c-.1.1-.3.3-.4.5-.3 0-.6 0-1-.1-.4 0-.8-.1-1.2-.1-4.7-.4-9.3-.6-14-1.2-3.1-.4-6.8-1.4-8.4-4.4-.4-.7-.6-1.5-.8-2.2-.5-2.9.6-6 2-8.4 1.3-2.4 2.9-4.6 4.6-6.8.6-.6 1.3-1.2 1.9-1.8-2.2 2.9-4.4 5.8-6.2 9-1.4 2.5-2.5 6-1.7 8.8.3 1 .9 2 1.8 2.8 2.8 2.5 7.1 2.5 10.6 2.8.6 0 1.1.1 1.7.1h.1c3.7.4 7.3.7 11 1z" fill="#301616"/><path d="m594.7 220.4c-.2-7.6.7-15.2 2.3-22.6 1.3-6.2 2.7-12.5 5-18.4-.3.3-.5.6-.8.9-1.6 4.6-2.8 9.4-3.9 14.1-1.8 7.7-3 15.4-3.1 23.3-.1 14.1 3.3 28.3 9.7 40.9.5 1.1 1.1 2.1 1.7 3.1.1-.1.3-.2.4-.3-3.5-6.3-6.2-13.1-8.1-20.1-2-6.9-3-13.9-3.2-20.9z" fill="#301616"/><path d="m673.5 154.9c-4.4 1.9-12.5-1.3-14.5 4.7-.1.3.4.4.5.1 1.1-3.1 4.6-3.5 7.4-3.5 2.4 0 4.7.1 6.9-.8.2-.2-.1-.6-.3-.5z" fill="#dd6b4b"/><path d="m672.3 148.5c-2 .5-4 .8-6 .9-.3 0-.3.5 0 .5 2.1-.2 4.1-.5 6.1-.9.3-.1.2-.6-.1-.5z" fill="#dd6b4b"/><path d="m565.3 261.6c-4.2 6.2-8 12.7-11.3 19.4-.1.3.3.5.4.2 3.3-6.7 7.1-13.2 11.3-19.4.2-.3-.3-.5-.4-.2z" fill="#7d443b"/><path d="m556.5 222.9c-1.2-.3-1.9-.9-2.8-1.7-.1-.1-.1-.1-.2-.1-.8-1.3-1.6-2.6-2.4-4 0-.1-.1-.1-.2-.1-1.6-2.9-3.1-5.8-4.4-8.8-.1-.2-.4-.1-.4.1-.8-1.6-1.7-3.3-2.5-4.9 0-.1-.1-.1-.2-.1-.5-1.4-1.1-2.7-1.8-4l-.1-.1v-.4c0-.3-.5-.3-.5 0 .3 3.9-1.8 7.6-.1 11.4 1.4 3.3 4.4 5.8 5.2 9.4.5 2.3.2 4.7.3 7 .1 2 .4 4.1 1.2 6 .8 2.1 2.2 3.9 4.1 5.1 3-4.7 5.8-9.5 8.2-14.6-1.2.1-2.4.1-3.4-.2z" fill="#301616"/><path d="m507.2 450.7c-9.6-8.2-15.1-19.8-21.4-30.5-3.1-5.3-6.5-10.5-10.7-15.1-2.1-2.3-4.4-4.3-6.8-6.2-1.6-1.3-3.2-2.5-4.7-3.9-1.1-1-2.1-2.1-3-3.3-.7-.9-1.2-1.8-1.8-2.8-1.2-2.3-2.1-4.8-2.9-7.2-1.2-3.4-2.3-6.8-3.4-10.2-2.3-7.1-4.3-14.2-6.3-21.3-3.4-12.4-7.8-26.4-19.6-33.4-2.7-1.6-5.8-2.8-8.9-2-2.7.7-4.8 2.7-6.3 5-2.3 3.5-3.5 7.8-3.5 12.1-.2 0-.3.1-.2.3s.2.5.3.7c0 1.8.3 3.6.7 5.3.1.3.5.2.5-.1-.3-1.2-.5-2.5-.6-3.7 3.2 8.8 7.2 17.4 11.4 25.8 4.6 9.1 9.3 18.2 14.4 27.1 2.5 4.4 5.2 8.6 8.3 12.5.3.4.5.7.8 1 3 3.8 6.3 7.3 9.6 10.8 2.2 2.3 6.4 6.5 11.5 11.4 12.1 11.6 29.5 27.8 37.7 35.8.1.1.3.1.3 0l4.7-8c0 .1 0-.1-.1-.1z" fill="#ffa57a"/><path d="m463.7 395c-1.1-1-2.1-2.1-3-3.3-.7-.9-1.2-1.8-1.8-2.8-2.4.8-4.5 2.1-6.6 3.6-2.9 2.1-5.8 4.4-8 7.2-.3.4-.6.8-.9 1.2 3 3.8 6.3 7.3 9.6 10.9 2.2 2.3 6.4 6.5 11.5 11.4.5-2.3.7-4.6.8-6.9.4-7.2-.2-14.3-1.6-21.3z" fill="#dd6b4b"/><path d="m432.2 239c.5 1.7.3 3.4 0 5.2-.3 1.7-1.7 3.3-2.7 4.7-1.4 1.9-2.9 3.8-4.7 5.2-.8.6-1.7 1.2-2.6 1.6.1.3-.3.5-.4.2-3.4-8.4-6.6-16.9-9.3-25.6-1-3.3-1.9-6.6-2.8-10-1.1-4.5-2-9.1-2.7-13.7-.6-4-1.1-8.1-1-12.2.1-3.9.8-7.7 2.2-11.4 1.3-3.7 3.1-7.3 4.8-10.8 1.5-3.1 9.3-18.1 14.4-27.9 2.8.7 5.5 1.4 8.3 2 .3.1.6.1.9.2-4 11.4-15.9 44.5-15.7 48.6.2 3.7 5.3 23.3 8.9 35.7.2.5.3 1.1.5 1.6.8 2.8 1.4 5.1 1.9 6.6z" fill="#ffa57a"/><path d="m430.2 231.6c-.1-.2-.2-.4-.4-.6-.6-.7-1.7-1-2.5-1.3-3.1-1.1-6.4-1.2-9.4-2.3-3.6-1.3-5.9-4.1-8.2-6.9.8 3.4 1.8 6.7 2.8 10 2.7 8.7 5.9 17.2 9.3 25.6.1.3.5.1.4-.2 1-.4 1.8-1 2.6-1.6.5-.7 1-1.5 1.3-2.4 1.3-3.5 2.2-7.3 2.9-11 .4-2.1.8-4.2 1-6.4.1-.5.2-1.2.2-1.8.1-.5.1-.8 0-1.1z" fill="#dd6b4b"/><path d="m441.1 116.9c-.4-1.1-.9-3.1-2.4-3.2-.5 0-.8.1-1 .4v-.1l-.6-.6c-.6-.6-1.4-1-2.2-.9-.5.1-1 .5-1 1.1v.1.3c-.2-.1-.3-.2-.5-.2-.5-.1-1.1-.1-1.6.3-.3.2-.4.5-.5.9 0 .1-.1.2-.1.4h-.3c-.4.1-.8.3-1.2.6-.8.9-.7 2.4-.7 3.7v.4c-.1.1-.2.1-.3.2-1.5 1.3-2.1 3.4-2.4 5.4-.5 3.8-.8 7-1.5 11.3.7.1 1.6.3 2.3.4 1.3 0 2.7.1 3.8.6.1.1.3.1.4.2.2.1.3.2.5.3.9.6 1.7 1.7 2.2 2.8.3.7.5 1.3.5 2 0 .3 0 .5.1.8.4.9 1.3.5 1.9.1.9-.7 1.8-1 2.8-1.4.5-.2 1-.5 1.3-1 2.3-3.1 1.2-22.7.5-24.9z" fill="#ffa57a"/><path d="m491.1 183.1c-.4-3.1-3-5.2-6-5.7-2.3-.3-4.5.2-6.5 1.2-.2.1-.4.2-.5.3 0 0-.1.1-.2.1-.2-.5-1.5-5.5-12.8-6.8-1.9-.2-3.8.1-5.7-.4-1.7-.4-3.2-1.4-5-1.8-2.9-.7-6-.1-8.4 1.6-.2-.1-.4.1-.3.4.8 1.6 1.6 3.4 2.4 5-1 1.2-1.5 2.6-2.7 3.6-1 .8-1.9 1.7-2.5 2.8-1.4 2.3-1.9 5-1.4 7.6 0 .1.1.2.3.2.1.3.6.2.5-.1-.4-1 2.3-.7 2.7-.6.9.1 1.8.1 2.7.2 1.7.1 3.5.2 5.2.4 3.2.3 6 1.2 7.8 3.9 3.5 5 2.2 11.2.7 16.7-.4 1.5-.9 3-1.2 4.4-.3 1.1-.7 2.4-.4 3.5.5 2 2.8 1.8 4.1.8 1.2-.8 2.1-1.9 3.5-2.4 1.3-.4 2.8-.5 4.1-.7 2.4-.4 4-1.6 5.2-3.7 1.4-2.4 1-4.7 3-6.7 1.9-1.9 3.3-3.8 3.7-6.6.2-1.2.2-2.4.2-3.6 0-.9-.2-1.7-.3-2.6h.1c.1-.1.3-.1.4-.2 1.2-.6 2.2-1.3 3.2-2.2 2.5-2 4.6-5.1 4.1-8.6z" fill="#301616"/><path d="m474.1 209c.2-.5.4-.9.7-1.3-.6.6-1.2 1.2-1.8 1.9l.2.2c.3-.3.6-.5.9-.8z" fill="#7d443b"/><path d="m498.9 445.9c-.7 2.4-1.4 4.7-2.2 7.1-.2-.2-.6.2-.3.3l.3.3c4.4 3.5 7.2 8.5 9.6 13.6 1.2 2.7 4.8 10.2 6.5 13.5.8 1.6 3.8 2.3 5 .8 1.4-1.8 1.8-4.7 1.3-6.7-.9-3.1-1.9-6.1-2.8-9.1-.9-2.8-1.6-5.7-2.7-8.4-1.1-2.6-3-4.5-5.3-6.1-2.9-2-6-3.7-9-5.4-.2-.1-.3 0-.4.1z" fill="#ffa57a"/><path d="m467.7 379.6c-.1-.4-.3-.7-.4-1.1-.7-2-1.5-4-2.3-5.9-1-2.6-2.2-5.2-3.3-7.7-2.3-5.1-4.7-10.1-7.2-15.1-1-2.1-2.1-4.2-3.1-6.4 0-.1-.1-.2-.2-.4 0-.1-.1-.2-.1-.2-5.8-11.9-11.3-23.9-14.8-36.6 0-.1-.1-.2-.1-.4v-.1c-.8-2.8-1.4-5.7-2-8.6-.3-1.4-.5-2.9-.7-4.4-.2-.9-.4-1.6-1.4-1.9-1.1-.2-2.5.2-3.6.4l-5 .7c-3.6.5-7.5 1.6-10.6-.8.1-.5.1-1 .2-1.4 0-.3-.5-.3-.5 0-1 8.3-3.8 16.3-4.8 24.6-.2 1.2-.2 2.5-.3 3.7-.1 2.1 0 4.1.2 6.2v.5.1c.5 4.9 1.7 9.8 3.1 14.6 4.7 16.2 9.5 32.5 15.5 48.3.8 2.1 1.6 4.2 2.5 6.2.1.2.2.4.2.6 2.6 6.4 5.5 12.7 8.7 18.8.1.1.2.2.3.1 9.6-5.9 17.8-13.7 25.7-21.6 1.7-1.6 3.9-3.3 4.9-5.5 1-2.1-.2-4.6-.9-6.7z" fill="#ffd761"/><path d="m542.3 288.2c-13.5-5-27.7-7.3-33.3-11.5-6-4.4-17.7-18.5-28-27.4-3-2.6-6.3-5-10-6.7-2-.9-4-1.7-6-2.4-.9 5.4-1.6 10.8-2.4 16.1-.2 1-.3 2-.5 3 9.2 7.8 32.3 26.9 35 28.5 12.8 7.4 34.6 7.1 38.8 7.6 1.4.1 2.9.6 3.8-.7 1.1-1.6 2.2-4.3 2.8-6.2 0-.1 0-.3-.2-.3z" fill="#ffa57a"/><path d="m466.3 200c-.2.1-.4.1-.6.2s-.4.1-.6.2c-5.5 1.5-15.2 3.5-15.7 5.2v.1l-.6 3c-.2 1.1-.5 2.4-.8 3.8-.5 2.3-1 4.9-1.5 7.6v.2c-.1.7-.3 1.4-.4 2.1-.1.3-.1.7-.2 1-.2 1-.4 1.9-.6 2.8v.3c-.1.5-.2.9-.3 1.4-.2 1.2-.5 2.4-.7 3.5 0 .2-.1.3-.1.5v.2c-.1.8-.3 1.5-.4 2.2-.2.9-.3 1.6-.4 2.3-.2 1-.3 1.8-.4 2.4.4 0 .8.1 1.4.1 2.1.2 5.2.4 8.1.5h1.3c3.4.1 6.3 0 6.4-.5.2-.6.3-1.3.4-1.9.1-.7.6-2.9 1.2-5.9.2-1.1.5-2.2.7-3.5v-.2c.1-.4.2-.7.2-1.1.7-3.2 1.4-6.9 2.2-10.5.3-1.5.6-3.1 1-4.6.2-1.1.5-2.2.7-3.3 0-.2.1-.3.1-.5.2-1.2.5-2.3.7-3.4.1-.5.2-.9.3-1.3.3-1.4.5-2.7.8-3.7-.5.3-1.2.5-2.2.8z" fill="#ffa57a"/><path d="m462 218.5c-4.5.5-8.9 1.1-13.2 2.4-.9.2-1.7.5-2.6.8-.1.7-.3 1.4-.4 2.1-.1.3-.1.7-.2 1-.2 1-.4 1.9-.6 2.8v.3c-.1.5-.2.9-.3 1.4 1.2.5 2.5.8 3.9.6 2-.3 3.4-1.5 4.9-2.8 1.8-1.5 4.2-1.9 6.1-3.2 1.6-1.2 2.4-3.1 2.7-5 0-.3-.1-.5-.3-.4z" fill="#dd6b4b"/><path d="m478.2 200.6c.1-2.8-.7-5.6-1.1-8.4v-.3c-1.5-2.1-2.8-4.2-4.6-6.1-1.2-1.3-2.3-2.5-2.9-4.1-2.8-1.5-5.8-2.7-8.7-3.6-3.1-1-6.3-1.8-9.5-2.2-1.6 2.1-3.3 4.4-4.8 6.7-.5.8-1 1.5-1.5 2.3-3.7 5.9-6.9 12.1-8.6 17.5-1.4 4.5-2.5 9.2-1.1 13.8 1.2 4.1 5.1 6.1 9.3 6.3 5.5.2 14.9-.8 19.2-3.3 4.1-2.4 4.7-3.7 8.2-7 2.5-2.3 4.7-5 6.1-8.1z" fill="#ffa57a"/><path d="m442.7 194.9c-.9 1.4-.9 2.9-.1 3.4s2.2-.2 3-1.6.9-2.9.1-3.4c-.8-.4-2.1.3-3 1.6z" fill="#301616"/><path d="m455.6 201.1c-.9 1.3-1 2.9-.3 3.4.8.5 2.2-.1 3.1-1.4s1-2.9.3-3.4c-.8-.5-2.1.1-3.1 1.4z" fill="#301616"/><path d="m475.7 251.5c-2.1 6.4-4.6 12.8-7.4 19-.4.8-1 2-1.8 3.5-.7 1.4-1.6 2.9-2.6 4.6-4.3 7.6-10.5 17.7-13.1 21.7 0 0 0 .1-.1.1-.1.1-.2.3-.3.4-.5.8-.8 1.2-.9 1.2-1 .1-1.9.1-2.9.2-3.9.2-7.8.3-11.7.3-4.2 0-8.4-.2-12.5-.5-3.5-.3-7.1-.6-10.6-1.1-.1 0-.2-.1-.2-.2.1-3.6.3-7.3.6-10.9 0-.2 0-.4.1-.6.1-1.6.3-3.2.5-4.8 1.6-13.6 5-27 9.9-39.9.7-1.8 1.4-3.6 2.2-5.4 1.3-3 2.6-6 4.1-8.9 0-.1.2-.1.3-.1 2.7.5 5.5.9 8.2 1.1h.5c1 .1 2 .1 3 .2h1c.1.2.3.4.5.5 5.4 2.8 11.6 2 17.3 3.6.3.1.7.2 1 .3h.2c.6.4 1.2.7 1.8 1.1.9.5 1.8 1.1 2.7 1.6.2.1.3.2.5.3 5.4 3.4 10.7 6.9 11 7.6.5 1-.9 4.1-1.3 5.1z" fill="#ffd761"/><path d="m452.3 316.3c-.5-5.2-.9-10.3-1.3-15.5v-.4-.1c-.2-2.6-.5-5.2-.7-7.9 0-.2-.2-.3-.3-.2-6.4 1.8-12.8 3.5-19.2 5.1-.3.1-.7.2-1.1.3l-4.8 1.2c.2-.3.3-.6.5-1 .1-.3-.3-.5-.4-.2-.2.5-.4.9-.6 1.4-.3.1-.7.2-1 .2-.3.1-.2.5.1.5.2 0 .4-.1.6-.1-.4.9-.8 1.7-1.3 2.5-6.5 12.4-15.7 23-24.1 34.1-1.2 1.6-2.5 3.3-3.7 5-5.3 7.3-9.9 14.9-13.3 23.2-1.9 4.6-3.6 9.4-5.2 14.1-.2.6-.5 1.3-.7 2 0 .1-.1.2-.1.3s0 .1-.1.2c-.1.3-.2.6-.2 1-.1.8-.1 1.5.3 2.3.8 1.8 2.5 3.3 3.7 4.8 5.8 6.6 12.5 12.4 19.9 17.2 3.7 2.4 7.6 4.6 11.7 6.5 1.2.6 3.2 1.9 4.6 1.1 0 0 .1 0 .1-.1.3-.2.5-.4.7-.7.1-.1.2-.3.3-.4v-.1c.2-.3.4-.6.6-.8.7-1 1.5-2 2.2-3 9-12.2 16.5-25.5 22.5-39.4 1.3-3.1 2.6-6.3 3.8-9.5 1.6-4.4 3.1-8.9 4.4-13.4 1.4-4.7 2.6-9.5 2.9-14.5.2-5.3-.4-10.5-.8-15.7z" fill="#ffd761"/><path d="m432.9 361c-4.6 5.8-9.1 11.7-13.4 17.8-2.1 2.9-4.2 5.9-6.2 8.9-1.8 2.7-3.7 5.4-4.8 8.4-.2.4-.3.8-.4 1.3-1 3.4-1.1 7-1.2 10.5-.1 3.1-.4 6.1-1 9.1-.9 4.7-2.4 9.2-4.2 13.6-.5 1.3-1 2.6-1.6 3.9-4.8 11.4-12.3 22.4-13.2 35 0 0 .2.2.5.2-.1.1-.2.3-.3.4l-8.1.9c-.1 0-.2-.1-.2-.2 1.9-13.7 5.4-45.1 7.5-60.9.4-2.8.7-5.2 1-6.8 1-5.2 1.9-10.4 3.3-15.5.7-2.6 1.6-5.2 2.5-7.7.8-2.2 1.7-4.3 2.6-6.4 4.1-9.4 8.6-18.6 13.2-27.7 4.2-8.4 8.8-16.7 13.9-24.5-.9.8-1.8 1.7-2.6 2.7-.2.2-.5-.1-.3-.3 1.1-1.4 2.4-2.6 3.8-3.8.1-.2.3-.4.4-.6s.3-.1.4 0c3.5-2.5 7.6-4.1 11.8-4.4 2.7-.1 5.6.4 7.8 2.1 2.5 2 3.4 5.3 3.7 8.4 1.7 13.6-6.9 25.5-14.9 35.6z" fill="#ffa57a"/><path d="m387.7 459.8c-2.4.5-4.8 1.1-7.2 1.6 0-.3-.4-.5-.5-.1 0 .1 0 .3-.1.4v.1c-.9 5.6-3.9 10.5-7.2 15-1.7 2.4-6.6 9.2-8.6 12.3-1 1.5-.1 4.4 1.7 4.8 2.2.4 5-.7 6.5-2.2 2.2-2.3 4.4-4.6 6.6-6.9 2-2.1 4.2-4.2 6-6.5 1.7-2.2 2.5-4.8 2.8-7.6.3-3.5.3-7 .4-10.5 0-.3-.2-.4-.4-.4z" fill="#ffa57a"/><path d="m451.7 194.7c-3.3 2.4-8.4 5.4-6.5 10.1.1.3.6.2.5-.1-1.8-4.5 3.2-7.4 6.2-9.6.3-.1 0-.6-.2-.4z" fill="#dd6b4b"/><path d="m448.2 209.9c-.1-.1-.2-.2-.4-.2-2.1-1.4-4.3-2.8-6.5-4.1-.1-.1-.2-.1-.3-.2-.2-.1-.4 0-.4.2-.1 1.4-.5 5.3 2.2 7.2 1.5 1 4.7.5 6-.6 1.1-1.2.4-1.6-.6-2.3z" fill="#dd6b4b"/><path d="m409.6 402.2c-3.5-3.9-7.2-7.5-11.3-10.7-6.7-5.2-14.5-9.2-22.8-10.9 0 .1 0 .1-.1.2-.1.3-.2.6-.2 1-.1.8-.1 1.5.3 2.3.8 1.8 2.5 3.3 3.7 4.8 5.8 6.6 12.5 12.4 19.9 17.2 3.7 2.4 7.6 4.6 11.7 6.5 1.2.6 3.2 1.9 4.6 1.1 0 0 .1 0 .1-.1.3-.2.5-.4.7-.7.1-.1.2-.3.3-.4v-.1c-1.6-3.8-4.2-7.1-6.9-10.2z" fill="#301616"/><path d="m447.8 209.6c-2.1-1.4-4.3-2.8-6.5-4.1-.4 3.4 4 6.7 6.9 4.3-.2 0-.3-.1-.4-.2z" fill="#fff"/><path d="m406.6 388.3c-1.1-3.1-2.8-6.1-5.7-7.8-2.4-1.4-5.2-1.7-7.6-.5-.9 2.5-1.8 5.1-2.5 7.7-1.4 5.1-2.4 10.3-3.3 15.5-.3 1.6-.7 3.9-1 6.8.4.1.8.1 1.2.2 1.3.4 2.5 1 3.6 1.9 2.6 2 4 4.8 5 7.9 1 3.5 2.2 6.8 4.7 9.6.3.4.7.7 1 1 1.8-4.4 3.2-9 4.2-13.6.6-3 .8-6.1 1-9.1.1-3.5.2-7.1 1.2-10.5.1-.4.3-.9.4-1.3-.7-2.7-1.3-5.3-2.2-7.8z" fill="#dd6b4b"/><path d="m465.7 197.2c-.5-1.3-1.9-2.9-3.5-3.6-1.2-.7-4.9-2.1-5.3 0-.2 1.1 1 1.8 1.8 2.3 1.4 1 2.7 2.1 4.1 2.9.7.4 1.8 1 2.6.6s.6-1.5.3-2.2z" fill="#301616"/><path d="m450.6 188.4c-.6-1.2-2.1-2.8-3.7-3.3-.7-.4-2.2-.9-3.5-.9-.5.8-1 1.6-1.4 2.4.4.5 1 .8 1.5 1.1 1.4.9 2.8 1.9 4.3 2.7.7.4 1.8.9 2.6.5.8-.7.5-1.8.2-2.5z" fill="#301616"/><path d="m450.2 319.1c-1-3.1-3-6-5.8-7.7-3.3-2-7.4-2.3-11.2-1.9-8 .8-14.7 5.1-19.9 11.2-3 3.5-5.6 7.3-8.2 11-1 1.4-2 2.8-3 4.3-1.2 0-2.4 0-3.6.2-1.2 1.6-2.5 3.3-3.7 5-.2.3-.5.7-.7 1-1.2 1.6-2.3 3.2-3.3 4.9-3.6 5.5-6.7 11.2-9.3 17.3-1.9 4.6-3.6 9.4-5.2 14.1-.4 1.1-.9 2.3-1.1 3.5 14.9 1.6 28.5 10.2 36.3 23.3 1.6 2.7 2.9 5.5 3.9 8.4.7-.5 1.2-1.4 1.7-2 .7-1 1.5-2 2.2-3 9-12.2 16.5-25.5 22.5-39.4 0-.4.1-.8.1-1.2.4-4.3.9-8.7-.8-12.8-.3-.9-.8-1.7-1.2-2.5 2.3-3.3 4.4-6.8 6.1-10.5 3.4-7.1 6.7-15.5 4.2-23.2z" fill="#ffd761"/><path d="m480.5 195.4c-.2-3.8-1.7-7.6-4.8-9.7-.2-.1-.3-.2-.5-.3-.3-.2-.7-.4-1.1-.5-.7-2.2-2.3-4-4.2-5.1-3.2-1.9-7.5-1.7-10-4.7-2-2.5-4.1-4.5-7.5-5-2.8-.4-5.8.6-7.7 2.8-.4.5-.7 1-1 1.5-.5 1-.5 2.1-1.6 2.7-.6.3-1.3.4-1.9.8s-1.1.9-1.5 1.4c-1.7 2.1-2.6 5.8-1.5 8.4.4 1 1.2 1.6 2.2 1.8 1.6.2 3-1 4.5-1.2 1.8-.2 2.1.2 3.6.9 1.5.6 2.9.8 4.4.4 2-.6 3.2-2.2 5.4-2.3s4.1.5 6.1 1.4c1.1.5 4.7 2.1 5.8 2h.2.1c.2 0 .3-.1.5-.1-.1.2-.1.4-.2.5-.2.7-.3 1.4-.3 2.2.1 2.6 1.2 5 .6 7.6-.5 2.1-1.6 4-1.8 6.1-.1 1.1 0 2 .3 3 .2 1.5-.1 3-.9 4.2-1 1.4-2.5 1.9-3.8 2.9-2.2 1.8-.8 4.8-1 7.4 0 .2.3.3.5.1 1-1.6 1-2.8 2.4-4 1.1-.9 2.6-1.1 3.7-2.1 1.2-1 2-2.2 2.6-3.6.2-.2.5-.4.7-.6 1.6-1.6 3.2-3.2 4.5-5.1-.4.6 3.2-13.3 3.2-13.8zm-5.6-9.6c.1 0 .2.1.3.2-.2 0-.4.1-.5.2-.1 0-.2.1-.3.1 0-.3-.1-.5-.1-.8.2 0 .4.2.6.3z" fill="#301616"/><path d="m471.4 212.3c-.3-2.1-2-2.9-3.8-3 0-.1.1-.3.1-.4 0-.3-.5-.3-.5 0 0 .1 0 .2-.1.4h-1.2c-.3 0-.3.5 0 .5h1c-.6 1.3-2.2 2.3-3 3.3-.7.9-1.8 2.1-2 3.3-.1.8.3 1.2 1 1.3 1.3.2 3-.1 4.3-.3 2.4-.6 4.6-2.4 4.2-5.1z" fill="#ffa57a"/><path d="m469.7 212.1c-2.8-1.1-3.6 3-6.1 2.9-.3 0-.3.5 0 .5.8.1 1.5-.2 2.2-.8 1-.9 2-2.8 3.7-2.1.2 0 .5-.4.2-.5z" fill="#dd6b4b"/><path d="m454.4 232.1c-2.7-1-5.6-1.2-8.4-.8h-4.9c-.3 3.9 2.3 7.5 6 9 3.9 1.5 8.3.9 12-1 1.4-.7 2.7-1.5 4-2.5-4-2.3-7.5-4.2-8.7-4.7z" fill="#ffa57a"/><path d="m436.9 306c-.2.1-.3.1-.5.2-10.3 4.9-20 11.2-28.6 18.7 0-.2 0-.4-.1-.6 8.7-7.4 18.3-13.6 28.5-18.5.1-.1.2-.1.4-.2.3-.2.5.2.3.4z" fill="#7d443b"/><path d="m451.5 343.4c-.7 1.9-1.4 3.7-2.1 5.5-6.1 15.5-12.9 30.7-20.3 45.6-.1-.2-.2-.4-.2-.6l2.4-4.8c7.4-15.1 14-30.6 20-46.3 0 .2.1.4.2.6z" fill="#7d443b"/><path d="m450.9 300.4v.4h-.3c-1.5 0-3 0-4.5-.2-4.8-.5-9.5-1.4-14.2-2.5-.8-.2-1.5-.4-2.3-.6-6-1.5-12.7-3.5-17.2-7.8 0-.2 0-.4.1-.6 2.1 2.1 4.8 3.6 7.6 4.8 3.4 1.4 7 2.5 10.6 3.4.5.1.9.2 1.4.4 4.5 1.1 9 2 13.6 2.4 1.7.2 3.5.3 5.2.2h.1c-.1 0-.1.1-.1.1z" fill="#7d443b"/><path d="m466.1 238.7c-.8.8-1.6 1.5-2.5 2.1-5.1 4-11.8 6.1-18 3.5-5.3-2.2-8.8-7.6-8-13.3h.5c-.5 3.5.7 7.2 3.2 9.8 2.7 2.9 6.8 4.3 10.8 4.1 5.4-.2 9.8-3 13.6-6.6.1.2.3.3.4.4z" fill="#7d443b"/><path d="m440.7 140.2c-.2-1.7-.5-3.3-.7-5-.4-3.6-.6-7.1-.7-10.7 0-.1-.2-.3-.3-.2-1.6.6-3.1 1.4-4.6 2.2h-.2l-.5.3c-.6.4-1.3.7-1.9 1.1-.1.1-.1.2-.1.3-1.3.9-2.7 1.9-4 2.8-.6.4-1.2.8-1.6 1.5-.5.9-.7 2-.9 3.1-.5 2.1-.8 4.4-.2 6.4.8 2.7 1.1 5.2.2 7.9-.1.2.1.3.2.3 1.8 0 3.5.1 5.3.4.9.1 1.9.4 2.9.4.3 0 .4 0 .7-.2.5-.3.8-1.1 1.1-1.6.4-.6.7-1.2 1.1-1.8.9-1.5 1.8-2.9 2.9-4.2 1-1.1 1.5-1.5 1.3-3z" fill="#ffa57a"/><path d="m483.8 194.1c-.1.1-.3.1-.4.2-1.7-3.8-4.4-7.4-5.2-11.4-1 .8-1.8 1.8-2.5 2.8-.7.9-1.3 1.8-2 2.7-1 1.2-2.2 2.2-3.7 2.5 0-.2.1-.4.2-.5 2-.6 3.3-2.4 4.5-4.1 0-.1.1-.1.1-.2.1-.1.2-.2.2-.3.1-.1.2-.3.3-.4.8-1.1 1.8-2.2 2.9-3.1-.2-1.1-.2-2.2 0-3.4.2-.1.4-.2.5-.3-.2 1.2-.2 2.4-.1 3.6v.2c.7 4.1 3.5 7.8 5.2 11.7z" fill="#7d443b"/><path d="m441.6 134.8c0 .3-.5.3-.5 0-.2-2.2-1.4-4.1-2.1-6.1-.5-1.6-1-7.3-3.9-5.9-1.3 3.6 1.9 7.3-.4 10.7-1 1.5-2.3 2.8-3.2 4.4-.1.1-.1.2-.2.4-.9 1.9-1.3 3.9-1.3 6 0 .3-.5.3-.5 0 0-2.2.5-4.3 1.4-6.2.6-1.3 1.4-2.5 2.4-3.7.9-1.1 1.6-2.1 1.8-3.5.1-1.2-.2-2.3-.5-3.5-.4-1.6-.6-3.3 0-4.9v-.3c0-2.9-.3-5.8-1.3-8.4.2.1.3.1.5.2v-.3-.1c1 2.6 1.4 5.4 1.4 8.3v.4c.8-.3 1.5 0 2 .4.2.1.3.3.4.4.6.8 1 2 1.2 2.9.4 1.7.9 3.3 1.6 4.9.5 1.3 1 2.5 1.2 3.9z" fill="#dd6b4b"/><path d="m430 127.3c0 .7 0 1.9-.3 2.5-.1.1-.3.2-.4.1s-.1-.2 0-.4c.3-.6.2-1.9.2-2.6 0-.8.1-1.7 0-2.5 0-1.4-.3-2.8-.8-4.1.1-.1.2-.2.3-.2v-.4c.7 1.4 1 2.9 1.1 4.5 0 1 0 2.1-.1 3.1z" fill="#dd6b4b"/><path d="m432.3 128.4c0 .3-.5.3-.5 0 .2-4.4.3-8.9-1-13.1h.3c0-.1 0-.2.1-.4 1.5 4.4 1.3 9 1.1 13.5z" fill="#dd6b4b"/><path d="m437.7 123c0 .1 0 .1-.1.2s-.4.1-.4-.2v-.3c.1-3.1.2-6.3-.2-9.3l.6.6c.3 3 .2 6 .1 9z" fill="#dd6b4b"/><path d="m574.1 297.2c-.2-.3-.6-.4-1-.4-1.1-.1-2.2-.1-3.3-.2-1.3-.2-2.7-.4-4-.7h.2c.4-.1.8-.2 1.1-.4.6-.4 1.2-1.2.7-1.9-.2-.3-.6-.4-1-.4-1.1-.1-2.2-.1-3.3-.2-2.3-.3-4.6-.8-6.9-1.3-4.7-1.4-9.5-2.6-14.2-3.6-1-.2-2.1-.6-3.1-.6-.9 0-1.7.5-2.4 1-2 1.2-4 2.4-6 3.5-.4-.1-.8-.3-1.2-.3-.3 0-.4.4-.1.5.3 0 .6.1.9.2-.1.2.1.5.3.3.1 0 .2-.1.2-.1 1.2.5 2.2 1.3 3 2.2l.3.3c1 2.3 1.5 4.8 3.1 6.8 1.1 1.4 2.5 2.5 3.8 3.7 1.4 1.3 2.9 2.6 4.3 3.9.6.5 1.1 1 1.8 1.4.4.3 1.1.9 1.6 1 .9.1 1-1.3 1-1.9-.1-1.3-1.1-2.4-1.8-3.4-.6-.9-1.2-1.8-1.6-2.7.4.1.7.2.8.2 1.8.7 4 1.2 5.8 1.8s3.6 1 5.4 1.4c1.6.3 3.2.8 4.9.7.8 0 2.2-.3 2.5-1.2.4-1-.8-1.2-1.5-1.4-3.6-1.1-7.2-2.5-10.6-4.1-.8-.4-1.2-.6-2-1.1 3.4 1 6.4 1.9 9.8 2.6 1.8.4 3.6.7 5.5.8 1.4.1 3.3.3 4.6-.4.6-.3 1.2-1.1.7-1.8-.2-.3-.6-.4-1-.5-1.1-.1-2.2-.1-3.3-.3-3.8-.6-7.6-1.6-11.4-2.5-1.1-.2-2.2-.5-3.2-.8.5 0 6.7.9 9.9 1.5 1.8.4 3.7.6 5.5.7 1.4 0 3.3.2 4.6-.6.5-.2 1.1-1 .6-1.7z" fill="#ffa57a"/><path d="m567.1 295.5c-.3.2-.7.3-1.1.4-3.9-.4-7.7-1.5-11.5-2.6-.3-.1-.2-.6.1-.5 4.2 1.1 8.3 2.3 12.5 2.7z" fill="#dd6b4b"/><path d="m454.6 349.8c-.2.3-.3.5-.5.8-1.2 2-2.8 3.8-4.5 5.5-1.8 1.9-3.6 3.8-5.4 5.7 0 .1 0 .1-.1.2l-.3-.6c2.6-5.8 5-12.3 7.4-18.2.1.1.1.2.2.4 1.1 1.9 2.1 4.1 3.2 6.2z" fill="#7d443b"/><path d="m416 317.5c-2.9-.3-5.8-.1-8.6.6-.1 2.1 0 4.1.2 6.2v.5c3.1-1.8 5.8-4.5 8.5-6.8.3-.2.1-.5-.1-.5z" fill="#7d443b"/><path d="m435.5 282.8c-.5-.4-1.1-.7-1.8-.9 0-.1 0-.1-.1-.1-2-1.1-4.2-1.8-6.4-2.1-1.5-.2-3.4-.4-4.7.5-1 .6-1.6 1.8-1.2 3 .5 1.5 2.9 1.7 4.2 2 2.3.6 4.6 1.2 7 1.5 1.2.2 2.8.5 3.7-.6.8-1.1.2-2.5-.7-3.3z" fill="#fff"/><path d="m444.4 327.6c-.5-.4-1.1-.7-1.8-.9 0-.1 0-.1-.1-.1-2-1.1-4.2-1.8-6.4-2.1-1.5-.2-3.4-.4-4.7.5-1 .6-1.6 1.8-1.2 3 .5 1.5 2.9 1.7 4.2 2 2.3.6 4.6 1.2 7 1.5 1.2.2 2.8.5 3.7-.6s.2-2.5-.7-3.3z" fill="#fff"/><path d="m465 372.6c-1.4-.6-2.9-1-4.4-1.2s-3.4-.4-4.7.5c-1 .6-1.6 1.8-1.2 3 .5 1.5 2.9 1.7 4.2 2 2.3.6 4.6 1.2 7 1.5.4 0 .9.1 1.4.2-.7-2-1.5-4-2.3-6z" fill="#fff"/><path d="m403.4 345.3c-.5-.4-1.1-.7-1.8-.9 0-.1 0-.1-.1-.1-2-1.1-4.2-1.8-6.4-2.1-.3 0-.7-.1-1-.1-1.2 1.6-2.3 3.2-3.3 4.9.9.3 1.9.5 2.7.7 2.3.6 4.6 1.2 7 1.5 1.2.2 2.8.5 3.7-.6.8-1.1.1-2.5-.8-3.3z" fill="#fff"/><path d="m425.9 381.7c-.5-.4-1.1-.7-1.8-.9 0-.1 0-.1-.1-.1-2-1.1-4.2-1.8-6.4-2.1-1.5-.2-3.4-.4-4.7.5-1 .6-1.6 1.8-1.2 3 .5 1.5 2.9 1.7 4.2 2 2.3.6 4.6 1.2 7 1.5 1.2.2 2.8.5 3.7-.6.8-1.1.2-2.5-.7-3.3z" fill="#fff"/><path d="m460.3 271.9c-1.5-.2-3.4-.4-4.7.5-1 .6-1.6 1.8-1.2 3 .5 1.5 2.9 1.7 4.2 2 1.8.5 3.6.9 5.4 1.3 1-1.7 1.8-3.3 2.6-4.6-2-1.2-4.1-1.9-6.3-2.2z" fill="#fff"/><path d="m430.9 241.7c-.5-.4-1.1-.7-1.8-.9 0-.1 0-.1-.1-.1-1.3-.7-2.6-1.2-4-1.6-.8 1.8-1.5 3.6-2.2 5.4 1.7.4 3.3.8 5 1 1.2.2 2.8.5 3.7-.6s.3-2.5-.6-3.2z" fill="#fff"/><path d="m251.3 261.7c-18.2 2-36.5 3.8-54.7 5.5-18.3 1.7-36.5 3.3-54.8 4.7-10.3.8-20.7 1.5-31 2.3-.3 0-.3.5 0 .5 18.3-1.2 36.6-2.6 54.9-4.2 18.3-1.5 36.5-3.2 54.8-5 10.3-1 20.6-2.1 30.9-3.2.3-.1.3-.6-.1-.6z" fill="#99a5cc"/><path d="m251 311.9c-18.2 2-36.5 3.9-54.7 5.6s-36.5 3.3-54.8 4.7c-10.3.8-20.7 1.6-31 2.3-.3 0-.3.5 0 .5 18.3-1.3 36.6-2.7 54.8-4.2s36.5-3.2 54.8-5.1c10.3-1 20.6-2.1 30.9-3.2.3-.1.3-.6 0-.6z" fill="#99a5cc"/><path d="m249.4 359.5c-18.2 2-36.5 3.9-54.7 5.6s-36.5 3.3-54.8 4.7c-10.3.8-20.7 1.6-31 2.3-.3 0-.3.5 0 .5 18.3-1.3 36.6-2.7 54.8-4.2s36.5-3.2 54.8-5.1c10.3-1 20.6-2.1 30.9-3.2.3-.1.3-.6 0-.6z" fill="#99a5cc"/><path d="m145 271.8c-18.3-.5-36.6-1.1-54.9-1.9s-36.6-1.7-54.9-2.8c-10.3-.6-20.7-1.2-31-1.9-.3 0-.4.5 0 .5 18.3 1.2 36.6 2.3 54.9 3.2s36.6 1.7 54.9 2.4c10.3.4 20.7.7 31 1 .3 0 .3-.5 0-.5z" fill="#99a5cc"/><path d="m418.8 114.5c-1.6-3.1-1.8-3.1-3.5-6.2 0-.1-.2-.1-.3-.1-5.8 1.7-41.3 8.1-44.3 8.4-2.8.3-5.5.8-8.2 1.6-2.8.7-5.5 1.8-8.3 2.4-2.4.5-4.8.4-7.2 0-.7-.1-1.5-.2-2.2-.4-.6-.1-1.2-.2-1.9-.4-4.9-1-9.8-2.1-14.6-3.4-.1-.1-.3-.2-.4-.1-1.1-.3-2.2-.6-3.2-.9-.3-.1-.4.4-.1.5 1.1.3 2.2.6 3.2.9-1.1 6.9-3 13.7-5.5 20.2 0 .1 0 .3.2.3 3.3.7 11.1 1.6 18.3 2.3 6.9.7 13.3 1.2 15 1.2 6.2.1 8.3.2 13.6-2.7.1-.1.3-.1.4-.2 7-3.7 41.9-19.9 48.8-23.2.2.1.2-.1.2-.2z" fill="#ffa57a"/><path d="m369.1 137c-2-2.2-4.5-3.1-7.2-4.2-2.2-.8-4.4-1.8-5.9-3.6-.9-1.1-1.6-2.4-2.4-3.6-.9-1.2-2-2.3-3.3-3.2-1-.7-2.1-1.3-3.2-1.7-1.3-.5-2.7-.8-4-.9v.1c-.3 2.4-1.1 4.7-1.7 7-.9 3.8-1.1 7.7-.6 11.5 0 .4.1.8.2 1.3 6.9.7 13.3 1.2 15 1.2 6.2.1 8.3.2 13.6-2.7.1-.1.3-.1.4-.2-.4-.3-.6-.7-.9-1z" fill="#dd6b4b"/><path d="m257 245.8c-1 1.1-1.9 2.2-2.7 3.4-5-7.8-9.9-15.6-14.8-23.5-.2-.3-.4-.7-.6-1-4.8-7.6-10.1-15.2-13.1-23.7.6 0 1.2-.1 1.8-.2.3 0 .2-.5-.1-.5-.6.1-1.3.1-1.9.2l-.3-.9c-.1-.3-.5-.1-.5.2.1.2.2.5.3.7-8.7.8-17.4 1.5-26.1 2.2-.2 0-.2.2-.2.3 1.4 3.4 2.6 7 4.2 10.3.5 1.1 1.1 2.2 1.7 3.2 2.4 3.9 6.1 6.8 9.6 9.6 7.8 6.1 16 11.6 23.9 17.6 4.5 3.5 8.9 7.2 13 11.3.1.1.3.1.4-.1.8-1.8 1.7-3.5 2.8-5 .2.4.5.8.8 1.2.2.3.6 0 .4-.3-.3-.4-.6-.9-.8-1.3.9-1.2 1.8-2.5 2.8-3.6.1 0-.3-.3-.6-.1z" fill="#ffa57a"/><path d="m238.8 224.8c-4.8-7.6-10.1-15.2-13.1-23.7.6 0 1.2-.1 1.8-.2.3 0 .2-.5-.1-.5-.6.1-1.3.1-1.9.2l-.3-.9c-.1-.3-.5-.1-.5.2.1.2.2.5.3.7-8.7.8-17.4 1.5-26.1 2.2-.2 0-.2.2-.2.3 1.4 3.4 2.6 7 4.2 10.3 1.3.5 2.7.7 4.2.7 4.5 0 9-.9 12.9 1.9 1.4 1 2.6 2.4 3.9 3.5 1.7 1.6 3.5 2.6 5.7 3.3 3.2 1 6.5 1.9 9.8 2.7-.1 0-.4-.4-.6-.7z" fill="#dd6b4b"/><path d="m263.6 312.7c-3.3 5.5-6.6 11.1-8.8 16.9-.7 1.8-1.2 3.5-1.6 5.3-1 4.4-1.7 8.7-2.2 13.1-.6 5.2-1 10.5-1.5 15.7-.5 4.7-1.2 9.4-2.6 14-1.4 4.5-3.6 8.6-6.2 12.5s-21.3 42.1-25.1 51.3c0 .1-.1.1-.2.1-5.1-.2-2.6.3-7.4-1.5-.1 0-.2-.2-.1-.3 3.1-6.3 12.2-50.1 19.8-86.5 1.6-7.7 3.1-15.1 4.5-21.8 1.6-7.6 3-14.3 4.2-19.3 9 .6 18.1.6 27.2.5z" fill="#ffa57a"/><path d="m319 352.2c-1-5.8-1.9-11.6-2.2-17.5v-3.2c.4-10.2 4.3-21.2 6.7-31 0-.2-.1-.3-.3-.3-9.5 3-19 5.7-28.6 8.3 0-5.5.2-11 .5-16.5 0-.3-.5-.3-.5 0-.3 5.5-.5 11.1-.5 16.6-1.6.4-3.3.9-4.9 1.3-.3.1-.2.6.2.5 1.6-.4 3.2-.8 4.8-1.3 0 3.8.6 14.2 1.5 27.7.3 4.8.7 10 1 15.4 2.6 38.1 6.1 88 4.8 95.3 0 .1 0 .3.2.3 5.1.5 2.6 1.1 7.6 0 .1 0 .2-.1.2-.2 1.2-9.9 8.9-51.8 10.4-56.2 1.5-4.5 2.5-9 2.6-13.8s-.4-9.5-1.2-14.2c-.9-3.7-1.6-7.5-2.3-11.2z" fill="#ffa57a"/><path d="m244.4 329.9c-4 .4-7.9 1-11.9 1.7-.1 0-.3 0-.4.1-1.4 6.6-2.9 14.1-4.5 21.8h.3c2 .2 3.9-.2 5.7-.9 3.2-1.3 6.1-3.4 9.6-4.2 2.6-.6 5.2-.4 7.9-.3.5-4.4 1.2-8.8 2.2-13.1.4-1.8 1-3.6 1.6-5.3-3.5-.4-7.1-.2-10.5.2z" fill="#dd6b4b"/><path d="m316.8 334.7v-3.2c-.8 0-1.6.2-2.3.5-1.8.6-3.5 1.5-5.4 2.1-1.8.6-3.5 1.1-5.3 1.5-1.7.4-3.3.7-5 .9-1 .1-2.1.1-3.2.3.3 4.8.7 10 1 15.4 4.4-.1 8.8-.1 13.2-.1 3 0 6.1.1 9.2.2-1-5.9-1.9-11.7-2.2-17.6z" fill="#dd6b4b"/><path d="m327.4 280.4c-.4 21.3-2.9 42.5-2.7 63.8-4-.1-8-.3-11.9-.4h-.5c-4.1-.1-8.3-.3-12.4-.6-4.4-.3-8.7-.6-13.1-.9-2-13.1-4-26.1-6-39.2-.1.1-.1.2-.2.4-.1.3-.3.6-.4.9-5.9 12-11.5 24.7-17.2 36.8-5.9-.5-11.9-.9-17.8-1.3-6.6-.4-13.3-.8-19.9-1.1 0-.4.1-.8.1-1.2.2-1.2.6-2.4.9-3.6.6-2.8 1.3-5.5 2-8.2 1.3-5.5 2-11.8 3.4-17.3 2.8-10.9 5.8-21.7 9-32.5 1-3.2 2.5-8.2 4.1-13.6 0-.2.1-.3.1-.5 3.9-12.7 8.6-27.9 9.3-31.6 1-5.7-.1-11.3-1.4-16.8-.5.2-.9.4-1.4.6-.3.1-.5-.3-.2-.4 16.2-7.2 33.5-16.7 49.7-23.9.2-.1.3 0 .4.2.6 5.6 2.5 11 5.3 15.9 1.4 2.4 3.4 4.3 4.9 6.6 1.7 2.6 4.8 7.3 6.8 10.4.6 1 1.1 1.9 1.4 2.5 1.5 3.4 2.8 7 3.8 10.7 4.4 16.6 4 35.6 3.9 44.3z" fill="#b8aaa5"/><path d="m319.6 225.3c-.3-.6-.8-1.5-1.4-2.5-2.2.5-4.3 1.6-6.2 2.9-2.6 1.7-5 3.8-7.5 5.6-2.8 2.1-5.8 3.9-8.8 5.5-.1-.1-.4 0-.4.2-.2 2.1 1.7 3.5 3.6 3.6 2.6.1 5-1.6 7.2-2.8 1.2-.7 2.5-1.3 3.8-1.5 1.9-.4 3.7.2 5.6.6 2.2.5 4.6.5 6.7-.4.4-.2.8-.4 1.1-.6-.9-3.6-2.1-7.2-3.7-10.6z" fill="#301616"/><path d="m317.1 278.4c-.6 9.5-1.3 19-1.9 28.4-.8 12.4-1.7 24.7-2.5 37h-.5l.8-11.4c1.3-19 2.7-38 3.8-57 1.1-17.9 1.3-36.2-4.5-53.3-.1-.3.4-.4.5-.1 3.2 9.5 4.6 19.4 5 29.3.4 9-.1 18.1-.7 27.1z" fill="#301616"/><path d="m345 126.2c0-1-.1-2.1-.1-3.1v-.1c0-.8 0-1.9-.3-2.6-.1-.3-.4-.5-.6-.7-.9-.6-2.2-.9-3-1.1-2.1-.8-4.2-1.6-6.3-2.4-3.7-1.4-7.3-2.8-11-4.1-.2-.1-.3-.1-.5-.2-.4-.1-.7-.3-1.1-.4-1.8-.7-3.5-1.4-5.2-2.1l-3.9-1.8c-1.1-.5-2.2-1-3.4-1.5-.2-.1-.3-.1-.5-.2-2.7-1.1-5.5-2-8.8-2.6-5.8-1-13.1-1-19.9-.8h-.1-.4c-2.5.1-5 .1-7.2.2h-1.1c-4.3 0-9.6-.1-14.1 1.2-1.1.4-2.2.8-3.2 1.4s-1.9 1.3-2.7 2.1c0 0 0-.1-.1-.1l.3-.3c.2-.2 0-.4-.2-.4-.1 0-.1 0-.2.1l-17.3 17.3c-5.2 5.2-10.4 10.6-14.4 16.9-.8 1.3-1.6 2.6-2.4 4l-.3.6c-1.3 2.3-2.4 4.6-3.5 6.9-.7 1.5-1.4 3.1-2.1 4.7-3.5 8.2-6.2 16.8-9.2 25.1l-1.2 3.3c-.5 1.5-1.1 3-1.6 4.5-.6 1.7-1.2 3.4-1.8 5-1.5 4.1-2.8 8.2-2.8 12.5 0 .1.1.2.2.2 10.3-.3 20.5-1.4 30.7-3.1h.1c2.1-.4 4.2-.8 6.4-1.2.1 0 .2-.1.2-.2.1-.5.2-1 .3-1.4.6-2.8 1.8-5.3 3.3-7.7.1-.1.1-.2.2-.3s.1-.2.2-.4c.2-.3.3-.5.5-.8 0 .8.1 1.5.2 2.3.2 1.6.6 3.1 1.1 4.7.4 1.2.8 2.5 1.2 3.7.6 2 1.1 4 1.2 6.2.1 4.8-.9 9.8 1 14.4.9 2.1 2.1 4 2.8 6.2v.2c.4 1.2.7 2.4.9 3.7.2 1.2.3 2.5.4 3.8.3 5.4-.1 10.8 1.4 16.1 0 .1.2.2.3.2 11.7-2.9 23.3-6.5 34.6-10.5.2-.1.3-.1.5-.2 8.9-3.2 17.6-6.7 26.2-10.6 2.5-1.1 5.1-2.3 7.6-3.5 1.5-.7 3.7-1.4 3.9-3.3.1-1.1-.4-2.3-.6-3.4-.3-1.4-.7-2.8-1-4.2-.6-2.9-1-5.9-1.3-8.9-.3-2.8-.4-5.5-.4-8.3v-.2c0-1.3.1-2.6.1-4 .1-1.4.1-2.7.1-4.1 0-2.6-.7-4.8-1.8-7.1-1.2-2.5-2.1-5-2.7-7.6-.4-2-.7-4.1-1-6.1 0-.6 0-1.2-.1-1.9 0-1.3-.1-2.6-.1-3.8-.3-9.3-.7-17-.7-18.9h.1.5c9.8.1 21.6-.8 31.3-1.8.1 0 .2-.1.2-.2 1-4.1 1.6-8.4 1.8-12.6.4-2.4.4-4.6.4-6.7z" fill="#fff"/><path d="m262.3 108.9c4.4-.7 8-2.3 10.3-5.8v-.3c.1-.9.2-1.9.3-2.9 0-.3.1-.7.1-1 .1-.7.1-1.4.2-2.2v-.2c.2-2.8.5-5.4.7-7.7.1-1.5.2-2.8.3-3.9.1-1.5.2-2.6.3-3.1v-.1c-.1-1.7-10.7-6.8-16.6-10-.2-.1-.5-.2-.7-.4l-.6-.3c-1-.6-1.8-1.1-2.2-1.4-.1 1.1-.2 2.4-.3 3.8 0 .4-.1.9-.1 1.3-.1 1.1-.2 2.2-.3 3.4v.5l-.3 3.3c-.1 1.5-.3 3.1-.4 4.7-.3 3.7-.6 7.4-.9 10.6 0 .4-.1.7-.1 1.1v.2c-.1 1.3-.2 2.5-.3 3.5-.2 2.5-.4 4.5-.5 5.5 2.7 2.4 8.2 1.9 11.1 1.4z" fill="#ffa57a"/><path d="m271.6 102.6c-4.3 0-9.6-.1-14.1 1.2-1.1.4-2.2.9-3.2 1.4-.9.4-1.8.9-2.6 1.3-.1 0-.1.1-.2.1l-1.7 1.7c5.4 3.3 11.3 5.7 17.5 7.2 1.8-4.3 3.6-8.6 5.3-12.9z" fill="#ffa57a"/><path d="m261.6 99c1.1 1.2 2.7 1.7 3.5 3.2.7 1.3 1 2.8 1.9 4 .3.4 1.4 2.2 3.1 2.6 1.1-2.4 1.5-3.2 2.4-5.6.1-1.4.9-9.2 1-10.1-.8-1.1-8.6-2.6-11.3-6-.1-.1-.4-.1-.5 0-1.3 2.7-2.7 5.6-1.9 8.7.4 1.2 1 2.3 1.8 3.2z" fill="#dd6b4b"/><path d="m289.3 90.1c-1.1 5.1-4.1 6.3-8.6 6.3-8.3.1-14.3-1.7-20.3-8.4-2.7-6-5 1-5.9.7-1.4-2.2-7-10-8.1-12.2 0-.1-.1-.1-.1-.2-1.5-3.2-2.5-6.5-2.6-9.6-.1-5.6.3-9.9 3.8-14.4 1.8-2.3 4-4.2 6.7-5.3.2-.1.4-.2.6-.2 2.8-1.1 4.8-1.7 7.7-2.2 3.1-.6 6-.9 9.2-1h.8c1.3 0 2.8-.1 4.3 0 1.6.1 3.1.4 4.3 1.2l.6.6c.4.5.8 1.2 1.4 2.2.4.9.8 1.9 1.2 3.2.2.6.4 1.3.6 2 .1.3.2.6.2.9 0 .1 2.3 13.6 3.7 25.4.2 1.4.3 2.8.4 4 .3 3.6.3 6.2.1 7z" fill="#ffa57a"/><path d="m288.9 79.6c-.5.1-1.1.1-1.6.2-1.6.2-3.2.3-4.2.4h-.3-.2c-.4 0-.7 0-.8.1-.2 0-.4.3-.2.5 1.2 1.7 3 3.2 5.3 3.2.9 0 1.7-.1 2.4-.3 0-1.3-.2-2.6-.4-4.1z" fill="#fff"/><path d="m283.9 67c.2 1.8-.5 3.4-1.6 3.5s-2.1-1.3-2.2-3.1c-.2-1.8.5-3.4 1.6-3.5s2 1.3 2.2 3.1z" fill="#301616"/><path d="m227.3 419.3c-5-.8-10-1.4-15-1.6-.1 0-.2 0-.2.1-.6 1.1-1.1 2.2-1.5 3.3-.5 1.3-.5 2.6-.7 4-.3 2-1.8 3.5-2.3 5.3-.8 2.1-.8 4.4-1.4 6.5-.2.7-.4 1.3-.7 2-1 1.6-2.2 3.1-3.5 4.5-4.6 5-10.4 9.1-15.7 13.3-1.5 1.2-4.4 3.2-2.1 5 2.2 1.7 5.3 2 8 1.5 3.4-.7 6.5-2.7 9.4-4.5l9.9-6.3c1.3-.8 2.7-1.7 3.3-3.2.7-1.6.6-3.5.8-5.2.1-1 .2-1.9.4-2.9l.9-1.8c.9-2.2 1.3-4.7 2.9-6.5.7-.7 1.3-1.4 1.7-2.3s.5-1.9.9-2.8c.5-1.5 1.3-3 2.2-4.4 1.4-1 2.7-2 3.1-3.8-.2 0-.3-.2-.4-.2z" fill="#ffd4c7"/><path d="m314.5 419.5c-4.4-.6-8.8-.7-13.2-.5-.2 0-.2.1-.2.3-.1 0-.2.1-.2.2.1 2.3-1.3 4.4-1.4 6.7-.1 1.3.3 2.5.7 3.8.2 1.2.2 2.4-.2 3.7-.5 1.6-.8 3.2-.8 4.9 0 2 0 3.5-.9 5.3-.5.9-1.2 1.8-1.7 2.8l-.1.1c-4.6 5-10.4 9.1-15.7 13.3-1.5 1.2-4.4 3.2-2.1 5 2.2 1.7 5.3 2 8 1.5 3.4-.7 6.5-2.7 9.4-4.5l9.9-6.3c1.3-.8 2.7-1.7 3.3-3.2.4-.9.5-1.9.6-3 .1-.3.1-.6.2-.9.2-1.8.1-3.6.2-5.3.1-2.1.7-4 1.2-5.9.3-1.4.6-2.8.9-4.1.5-1.3 1.2-2.6 1.6-4 .4-1.3.2-2.7.2-4 0-1.8.4-3.6.8-5.4-.2-.4-.4-.5-.5-.5z" fill="#ffd4c7"/><path d="m290.9 68.9c-1.9-3.1-3.8-6.2-5.7-9.3 0-.3 0-.6.1-.9 0-.3-.5-.4-.5-.1v.2c-.2-.3-.3-.6-.5-.8-.2-.3-.6 0-.4.3.3.5.6.9.8 1.4-.2 3-.5 6.1-.5 9.1 0 1.3.3 2.5 1.1 3.6 1.1 1.4 2.7 2.6 2.6 4.6 0 .3.5.4.5.1v-.4s.1 0 .1-.1c1.1-1.3 2.2-2.6 3-4.1.8-1.3.2-2.3-.6-3.6z" fill="#ffa57a"/><path d="m285.5 58.4c-.2-1-.8-1.6-1.5-2-1.1-.5-3.2-.6-5 .1-1.9.9-4.1 2.2-4 4.5.1 2.9 4.8.7 6.1.6 1.8-.2 5-.4 4.4-3.2z" fill="#7d443b"/><path d="m444.8 111c-.5-1.7-1.5-3.1-2.6-4.5-1.5-1.8-2.9-3.7-4.4-5.5-1-1.2-2.1-2.7-3.7-3.1-1.2-.3-2.4.1-3.5.7-.2.1-.4.1-.7.2-1.1.4-2.1 1.2-3.1 1.8 0 0-10.8 6.6-16.4 9.5.8 1.6 1.8 2.7 2.7 4.3.1.2.2.5.4.7 0 .5-.1 1-.2 1.5 0 .1.1.2.2.2 3.5-.3 7-.3 10.5-.2 1.5.4 2.9 1.2 4.5 1.5 1 .2 1.9.1 2.9.3 1.2.2 2.2.7 3.1 1.4.8.6 1.8 1.5 2.9 1 .8-.4 1.1-1.5.8-2.3-.4-1.3-1.7-2.1-2.8-2.9-1.5-1-3-1.9-4.7-2.6-.7-.3-1.4-.6-2.1-.8 0 0-.1 0-.2-.1 1-1.1 2-2.1 3.1-3.2.5-.5 1.1-1.1 1.6-1.2 1.1-.4 2.2.1 3.2.7 1.4.7 2.7 1.5 3.8 2.5.7.6 1.1 1.3 1.5 2.1-.2 2.1-.3 4.3-.4 6.4 0 .9.1 2.3 1.4 1.7.5-.2.7-.6.8-1.1.5-1.1.8-2.3 1.1-3.4.6-1.7.8-3.7.3-5.6zm-30.7 5.3c-.2-.1-.3-.3-.1-.6.2.2.5.4.8.5-.3.1-.5.1-.7.1z" fill="#ffa57a"/><path d="m280.1 42.1c-.2-.2-.5-.4-.7-.5-1.4-.9-2.8-1.5-4.5-1.6-1.8 0-3.5.6-5.2.9-2.2.4-4.3-.4-6.5-.2-3.3.3-7.1 1.6-9.5 4-.8.7-1.5 1.5-2.3 2.1-.8.5-1.7.9-2.5 1.3-1.5.7-2.9 1.5-4.1 2.7-2.3 2.3-3.7 5.4-3.9 8.7-.2.8-.4 1.7-.5 2.6-.3 3.4.7 6.6 2 9.7 1 2.4 2 4.7 3.1 7 .6 1.2 1.1 2.3 1.8 3.5 2 3.7 4.2 7.3 4.9 11.5 0 .2.3.2.4.1 2.3-2.7 4.7-5.9 4.2-9.7-.3-1.9-.9-3.7-.8-5.6 0-.4.1-.9.2-1.3.6-2.1 1.8-3.9 3.4-5.3 1.4-1.2 3.1-2.1 3.9-3.9.7-1.5.7-3.2.7-4.9 0-4.5 1.2-8.7 4.1-12.2 1.6-1.9 5.6-4.5 8.9-5.6 2.1-.7 4.1-.3 4.2-.3s.2-.1.2-.2c0-1.1-.7-2.1-1.5-2.8z" fill="#7d443b"/><path d="m280.1 42.1c-1.2-1.6-3-2.9-5-3.3-1.7-.4-3.3-.1-4.9.2-1.5.3-2.9.3-4.5.1-3.2-.3-6.3 0-9.2 1.2s-5.6 3.1-8.2 4.7c-2.5 1.6-5.3 3-7.4 5.2-2 2.1-3.1 4.7-3.9 7.5s-1.6 5.8-1.6 8.7c0 3.1 1.5 5.6 3.8 7.7 2 1.8 4.3 3.2 6.4 4.8h.1c1.5 1.2 3 2.5 4 4.1 0-1.4 0-2.8.1-4.1.2-2.5.6-5 1.3-7.4 1.9-6.8 5.8-12.9 11.1-17.6 5.5-4.9 12.2-7.5 19.2-9.6-.5-.9-.9-1.6-1.3-2.2z" fill="#7d443b"/><path d="m256.8 84.2c-.3-1.9-.9-3.7-.8-5.6 0-.1-.1-.1-.2-.2-1.2-1.5-3.1-.2-4.7.1-.5.1-1 .2-1.5.2-1.4.2-2.8.2-4.1 0h.1c.6 1.2 1.1 2.3 1.8 3.5 2 3.7 4.2 7.3 4.9 11.5 0 .2.3.2.4.1 2.2-2.6 4.6-5.8 4.1-9.6z" fill="#301616"/><path d="m262.8 71.4c-.8.7-1.3 1.8-1.7 2.9-1.2-1.9-4-3.1-5.9-1.5-2.1 1.7-2.1 5.1-1 7.3.9 1.9 3.6 4.2 5.4 2.1 1.1-1.2 1-3.2 1.3-4.7.4-1.9.8-4.3 2.3-5.7.2-.3-.1-.7-.4-.4z" fill="#ffa57a"/><path d="m260.8 79.7c-1.5-1-2-2.3-2.3-4-.2-.9-.5-1.6-1.4-2-.3-.1-.4.4-.1.5.6.2 1 1.1 1.1 1.6 0 .3.1.6.1.8.1.5.2 1 .5 1.4.4.9 1.1 1.5 1.9 2 .2.3.4-.1.2-.3z" fill="#dd6b4b"/><path d="m281.3 302.5c-4-7.9-8.4-15.7-14.7-22-.2-.2-.6.1-.3.4 6.3 6.3 10.7 14.1 14.7 21.9 0 .3.5 0 .3-.3z" fill="#301616"/><path d="m231.2 176.2c.2-.2-.1-.6-.4-.3-1.5 1.5-2 3.5-2.1 5.6-.1 3 .2 5.8-.3 8.8-.8 4.7-2.5 9.3-2.5 14.1 2.1-.4 4.2-.8 6.4-1.2.1 0 .2-.1.2-.2.5-3.4 1.9-6.3 3.5-9.1.1-.1.1-.2.2-.3-.8-5.9-2.9-11.8-5-17.4z" fill="#301616"/><path d="m316.9 109.4c-6.8 3.5-13.7 6.9-20.6 10.1-16.5 7.8-33.3 14.8-50.3 21.5-11.7 4.7-23.5 9.5-34.4 15.9.7-1.6 1.3-3.1 2.1-4.7 4.8-2.9 9.8-5.5 15-7.9 16-7.5 32.8-13.4 49-20.4 11.9-5.1 23.7-10.6 35.4-16.3 1.2.6 2.5 1.2 3.8 1.8z" fill="#ffd761"/><path d="m323.6 112.1c-.1.2-.5.1-.5-.1v-.1c.2.1.3.2.5.2z" fill="#ffd761"/><path d="m344.8 123c-20.4 10.1-58.6 28.9-65.7 32.2-16.5 7.8-33.3 14.8-50.3 21.5-9.9 4-19.9 8-29.3 13 .5-1.5 1.1-3 1.6-4.5 3.4-1.9 6.8-3.6 10.3-5.2 16-7.5 32.8-13.4 49-20.4 12.5-5.4 58.8-27.8 83.4-39.9.3.2.5.4.6.7.5.7.4 1.8.4 2.6z" fill="#ffd761"/><path d="m311.8 170c-15.4 7.6-29.8 14.6-33.8 16.5-12.7 5.9-25.5 11.4-38.4 16.7-.4-1.2-.8-2.5-1.2-3.7 7-2.8 14.1-5.6 21-8.6 8.2-3.5 30.8-14.3 52.4-24.8-.1 1.3-.1 2.6 0 3.9z" fill="#ffd761"/><path d="m317.2 196.7c-.1 1.3-.1 2.6-.1 4-16 7.9-31.3 15.3-35.5 17.3-11.9 5.6-24 10.8-36.1 15.8-.2-1.2-.5-2.5-.9-3.7v-.2c6.2-2.5 12.3-4.9 18.4-7.5 8.4-3.6 32.1-14.9 54.2-25.7z" fill="#ffd761"/><path d="m274.9 197.9c-3.5-16.3-5.5-32.8-6.9-49.4-.8-9.3-1.4-18.7-2-28l3-4.2c1-1.4 1.9-3.1 3.1-4.2s3-1.8 4.5-2.6l4.5-2.4c.1-.1.1-.2.1-.3l-.8-4.3h-.1-.4c0 .3.1.5.1.8.2.9.9 2.9.4 3.6-.3.4-1.3.6-1.7.9-.5.3-1.1.6-1.7.9-1 .6-2 1.1-3.1 1.7-.8.4-1.7.8-2.3 1.4-.7.6-1.2 1.5-1.8 2.3-.8 1.1-1.6 2.2-2.3 3.3h-.1c-2.3-.5-4.6-.9-6.9-1.2-2.2-.3-4-.6-6 .6-1.1.6-2.3 1.3-3.4 2-.5.3-1.1.8-1.7 1-.4.4-.8.3-1.3-.2-.2-.3-.3-.5-.5-.8-1.3-2.1-2.5-4.3-3.6-6.5-.1-.3-.6 0-.4.2 1.2 2.3 2.4 4.5 3.7 6.7.3.5.6 1.5 1.4 1.4.9-.1 2-1.1 2.8-1.6 1.1-.7 2.2-1.3 3.4-2 1.4-.8 2.6-.7 4.2-.5 2.7.3 5.4.8 8.1 1.4-.6.8-1.2 1.6-1.7 2.4l-.1.1v.2c1.1 16.5 2.2 33 4.3 49.5 1 8 2.3 16.1 3.9 24 1.6 8 3.8 16 5.7 23.9 2 8.3 3.5 16.8 3 25.3.2-.1.3-.1.5-.2 1-15.4-4.7-30.4-7.9-45.2z" fill="#301616"/><path d="m236.5 193.3c-.1.2-.3.5-.4.7 0-.2 0-.4-.1-.5-2.7-17.3-12.2-32.1-18.8-48.1l.3-.6c1.5 3.8 3.2 7.5 5 11.1 5.6 11.8 11.9 24.3 14 37.4z" fill="#301616"/><path d="m311.5 147.2h-.5c-.4-1.5-.7-3.1-.9-4.7-.4-4.2-.1-8.5-.1-12.7 0-8-.3-16-1-23.9.2.1.3.1.5.2.3 4 .6 8.1.8 12.1.2 4.4.2 8.9.2 13.3 0 4.3-.3 8.7.4 13 .2 1 .4 1.9.6 2.7z" fill="#301616"/><path d="m137.6 172.3c-6 2.8-11.7 6.1-17.4 9.5-.1-.6-.2-1.3-.3-2-1.5-10.7-2.7-21.7-5.4-32.3-1.3-5-2.9-9.9-5-14.7-.6-1.4-1.6-3.4-3-5.8-6.4-11.5-19.6-32.5-23.2-38.8-.1-.1 0-.3.1-.3 2.6-1.8 4.1-2.9 6.3-5.3 0-.2.3-.3.5-.1 4.1 7 9.6 13.1 15.1 19 4.7 5.1 9.4 10.1 13.5 15.7 4.5 6.2 7.6 12.9 9.8 20.2.3 1 .6 2.1 1 3.1 2.1 6.9 3.9 13.8 5.5 20.8.9 3.7 1.7 7.3 2.5 11z" fill="#ffa57a"/><path d="m129.6 140.6c-.4-.1-.8-.2-1.2-.4-2.9-.9-5.4-2.2-7.6-4.3-2.5-2.4-4.7-5.2-7.7-6.9-2-1.2-4.2-1.9-6.5-2 1.4 2.4 2.4 4.5 3 5.8 2.1 4.8 3.7 9.7 5 14.7 1.9 2.2 3.7 4.5 5.3 6.9 1 1.5 1.9 3.2 3.4 4.4 1.4 1.2 3.2 2 5 2.5 2.3.5 4.6.5 6.9.1-1.7-7-3.5-13.9-5.6-20.8z" fill="#dd6b4b"/><path d="m155.6 278.3c-.5-3.7-4.2-6.6-7.5-7.8-.8-2.8-6.8-1.8-8.8-1.6-4.7.6-9.3 2.1-13.7 3.8-4.1 1.5-8.5 2.9-11.9 5.6-2.7 2.2-4.6 5.3-5.5 8.7-.8 3.2-.7 7 .9 10 2.1 4 6.9 1.5 10.1.5 9.3-3 18.7-6.3 27.6-10.4 2.2-1 4.3-2.1 6.1-3.6 1.5-1.2 2.8-2.6 2.7-4.6z" fill="#301616"/><path d="m111.1 443.1c.3.3.4 12.4.6 12.7 4.6 5 10.4 9.1 15.7 13.3 1.5 1.2 4.4 3.2 2.1 5-2.2 1.7-5.3 2-8 1.5-3.4-.7-6.5-2.7-9.4-4.5l-9.9-6.3c-1.3-.8-2.7-1.7-3.3-3.2-.3-.7-.9-3.3-.6-6.8.4-4.7 1.8-10.5 1.8-10.6 4.3-.3 6.7-.6 11-1.1z" fill="#ffa57a"/><path d="m70.9 445.4c.3.3.4 12.4.6 12.7 4.6 5 10.4 9.1 15.7 13.3 1.5 1.2 4.4 3.2 2.1 5-2.2 1.7-5.3 2-8 1.5-3.4-.7-6.5-2.7-9.4-4.5l-9.9-6.3c-1.3-.8-2.7-1.7-3.3-3.2-.3-.7-.9-3.3-.6-6.8.4-4.7 1.8-10.5 1.8-10.6 4.3-.3 6.7-.6 11-1.1z" fill="#ffa57a"/><path d="m128.1 249.4c-4.7.3-9.3.9-13.9 1.6-9.7 1.4-19.4 3.2-29.2 3.3.3-1.3.5-2.5.8-3.8.1-.3-.4-.4-.5-.1-.3 1.3-.5 2.6-.8 4-1.2 0-2.3 0-3.5-.1-.3 0-.3.5 0 .5 1.1 0 2.3.1 3.4.1-2.8 13.9-5.7 27.7-8.5 41.5 0 .2.1.3.2.3l30.6.3c2.5 0 5.1.1 7.6.1 1.7 0 2.5-.6 3.2-2.2 2-4.7 3.9-9.5 5.8-14.2 1.9-4.6 3.8-9.3 5.7-14 1-2.4 1.9-4.7 2.9-7.1.9-2.2 2.2-4.6 2.8-6.9.9-4-4.4-3.4-6.6-3.3z" fill="#ffa57a"/><path d="m144.4 381.9c-.3 7.3-5.2 12.9-6.5 15.1-3.5 6.2-4.8 13.3-7.3 19.9-1.2 3.1-2.7 6-4.7 8.6-2 2.7-4.4 5.2-5.9 8.3-1.6 3.3-2.3 7-3.6 10.4-1.4 3.4-3 6.8-4.7 10 0 .1-.2.1-.3.1-5.8-1.4-11.2-3.8-16.1-7.2-.1-.1-.2-.2-.1-.4-.1-.1-.1-.2-.1-.3 3.1-6.7 6.2-13.5 7.5-20.8 1.2-6.2 1.5-12.6 4.3-18.3 2.7-5.6 6.8-10 7.7-16.2.7-4.7-2.3-9.8-4-12.9-.3-.5-.5-1-.7-1.4l-.3-.6c.7 4.3 1.6 10.1 1.1 14.4-.4 4-1.9 6.9-4.1 10.2-3 4.5-5.2 9-7.1 14.1-1.8 4.9-3.4 9.8-6 14.3-2.6 4.3-6 8-9.5 11.6-2 2-3.9 4.1-5.9 6.1-1.1 1.1-2.2 2.2-3.2 3.4-.7.8-1.4 1.6-2.2 2.3-.7.6-1.4.6-2.2.5-1.3-.3-2.6-.8-3.9-1.2l-3.7-1.1-.5-.1-3.9-1.2c-.1 0-.2-.1-.2-.2.4-6.6 1.8-13.1 4.4-19.1 1.3-3.1 2.9-6.1 4.7-8.9s3.7-5.4 5.2-8.4c2.8-5.6 3.2-12 3.9-18.1.4-3 .8-6 1.6-8.9.2-.6.4-1.3.6-2 .1-1.2.1-2.3.1-3.5-.1-2.9-.8-5.6-1.8-8.2-2-5.2-5.3-9.9-7.5-15-8.2-18.5-3.9-38.9 4.2-56.8l1.1-3.7.1-.5v-.2l1-3.3c.4-1.2.6-2.5 1.1-3.6.3-.5.6-.6 1.1-.8 1-.2 2.3-.1 3.3-.1l3.9-.1h.5l3.2-.1c10.1-.3 21.6-.6 31.7-.9.1 0-1 5.1-.9 7.5 0 .1.1.3.1.4s.1.3.1.5c5 14.4 10.1 28.7 15.1 43.1 2.4 7.1 4.7 14.2 6.4 21.5 2 7.1 3.2 14.5 2.9 21.8z" fill="#301616"/><path d="m85.3 190.6c-3.8-7.2-8.2-14.1-11.7-21.5-1.7-3.6-3.2-7.3-4.3-11.2-1.2-4.3-1.9-8.8-2.7-13.2-1.5-8.8-3-17.5-4.5-26.3-1.7-9.9-3.4-19.8-5.1-29.7 0-.2-.2-.3-.3-.2l-7.5 2.1v-.6c0-.3-.5-.3-.5 0 .1 17 .2 34.1.4 51.1.1 7.9.5 16 2.9 23.6 2.4 7.7 6.9 14.6 10.9 21.6 4.7 8.3 9.5 16.6 14.2 24.9.2.3.6 0 .4-.3-.5-1-1.1-1.9-1.6-2.9 3-2.9 5.9-6 8.6-9.1.9-1.1 2.5-2.4 2.6-4 0-1.4-1.1-3-1.8-4.3z" fill="#ffa57a"/><path d="m120.4 149c.2-1 .2-2 .1-2.9-.3-1.9-1.2-3.6-2.6-4.9-1.9-1.7-4.5-2.1-6.6-3.5-2-1.4-3.9-2.6-6.4-2.8-4.9-.4-8.2 3.2-11.4 6.4-3.3 3.5-7.7 5.8-9.7 10.4-1.8 4.1-1.9 8.8-1 13.1.4 1.8.7 3.5.5 5.3-.2 1.4-.3 2.7-.1 4.2.4 2.5 1.4 5.5 3 7.5 1.5 1.9 3.8 2.7 6.1 3.3 2.4.7 5.6 1.9 6.2 4.5 3.8-6.8 5-14.6 10.5-20.5.8-.9 2.3-.2 2.3.9 0 .7-.1 1.4-.4 2.1 1.9-2 3.8-3.8 5.4-6 1.4-1.9 2.5-3.9 3-6.2.2-1 .3-2.1.2-3.2-.1-1.4-.7-2.8-.5-4.3.4-1.1 1.1-2.2 1.4-3.4z" fill="#7d443b"/><path d="m155.5 277.5-8.1-23.1c-2.6-7.3-5.5-14.7-6.7-22.4-.2-1.3-.3-2.6-.4-3.9 0-.5-.1-1.1-.1-1.6-.2-6.2.5-12.5.6-18.7.1-8.1-.1-16.2-.7-24.3-.7-8.9-1.8-17.7-3.4-26.5.1-.1 0-.4-.3-.4-3.4.5-6.7 1.2-10 2.3-1.7.5-3.3 1.1-4.9 1.8-.9.4-2.5.7-3.1 1.5-.3.4-.2 1.1-.2 1.5v2.7c0 1.8.1 3.6.1 5.4 0 1.1.1 2.3.1 3.4-1.4 3.2-2.1 6.7-3.1 10.1-.9 3.4-2.1 6.7-4.2 9.6-.6.2-1.2.3-1.7.4-1.6.3-3.3.6-4.9.9-2.4.4-4.9.8-7.3 1.1-.5-.6-1-1.3-1.5-1.9-.2-.2-.4-.5-.6-.8-6.4-8.3-12.9-16.6-19.3-24.9-.1-.1-.3-.2-.4 0-3.5 3.2-6.9 6.6-10.1 10.2-1.5 1.7-2.9 3.4-4.3 5.2-1 1.3-2.6 2.8-2.1 4.6.3 1 .8 1.9 1.2 2.8.6 1.2 1.1 2.5 1.7 3.7 1 2.2 2.1 4.5 3.2 6.7l6.6 13.8c.6 1.3 1.2 2.5 1.8 3.8.1.2.1.3.2.5 0 .1.1.1.1.2-1 18-4 35.9-4.1 53.9 0 5.7.2 11.4.9 17.1 0 .1.1.2.2.2 10.5.7 19.9-5.1 29.3-8.6 10.1-3.7 20.8-6.1 31.6-6.9 5.2-.4 20.8 1 23.4.8.4.1.5 0 .5-.2z" fill="#ffd4c7"/><path d="m140.2 228.1c-2.2-5.5-4.6-10.8-7.3-16-2-3.8-4.4-7.2-7.7-10-3.2-2.7-6.9-4.6-10.9-5.8-.3-.1-.2-.6.1-.5 8.2 2.3 14.5 7.9 18.5 15.2 2.7 5 5.1 10.2 7.2 15.4.1.6.1 1.1.1 1.7z" fill="#7d443b"/><path d="m104.4 169.1c-.2-.1-.4-.2-.6-.4-.2-.1-.4-.2-.5-.3-.9-.6-1.5-1-1.9-1.4-.1 1.1-.3 2.4-.5 3.8 0 .4-.1.9-.1 1.3-.1 1.1-.3 2.2-.4 3.4v.5c-.1 1.1-.3 2.2-.4 3.3-.2 1.5-.4 3.1-.6 4.7-.5 3.7-.9 7.4-1.3 10.6 0 .4-.1.7-.1 1.1v.2c-.1.6-.1 1.2-.2 1.8 2.8 2.3 6.3 3.7 10 3.8 1.9 0 3.8-.3 5.6-.9.9-.3 1.7-.7 2.5-1.2l.3-2.4c0-.3.1-.5.1-.8v-.2c.1-.7.2-1.4.3-2.2v-.2c.3-2.8.7-5.4 1-7.7 0-.3.1-.5.1-.8.1-1.2.3-2.2.4-3.1.2-1.5.3-2.6.4-3.1v-.1c-.2-1.6-9.2-6.6-14.1-9.7z" fill="#ffa57a"/><path d="m115.3 184.1c-2.2-.4-4.4-.5-6.6-.6v-.1c0-.3-.5-.4-.5 0v.4.1c.1 1.3.6 2.5 1.5 3.4.6.6 1.4.9 2.1 1.3 1.1.7 1.2 1.7 1.4 2.9.2 1.5 1.4 4.5 3 4.8v-.2c.1-.7.2-1.4.3-2.2v-.2c.3-2.8.7-5.4 1-7.7 0-.3.1-.5.1-.8-.7-.6-1.5-.9-2.3-1.1z" fill="#dd6b4b"/><path d="m130.6 167c-2.9-6-12.6-16.9-13.7-17.9-1.9-1.7-3.9-3.4-5.9-5.1.1 0 .2-.1.4-.1.3-.1.2-.6-.1-.5-.2.1-.5.1-.7.2-.2-.2-.5-.4-.7-.6s-.5.2-.3.4c.1.1.3.2.5.4-9.5 2.5-18.8 8.5-21.2 18.8-.9 4-.8 8.3.9 12.1 1.8 4.3 9.4 5.2 13.3 7.5 4.1 2.5 2.4 1.9 6.9 3.5 6.8 2.4 10.3 2.2 15 1.4 3.3-.6 7.2-1.6 7.5-6.5.1-4.9.1-9.4-1.9-13.6z" fill="#ffa57a"/><path d="m123.8 159c1 1.2 1.3 2.8.5 3.4-.7.6-2.2.1-3.2-1.2s-1.3-2.8-.5-3.4c.7-.5 2.2 0 3.2 1.2z" fill="#301616"/><path d="m111.8 165.7c1.1 1.2 1.5 2.6.8 3.3s-2.1.2-3.3-.9-1.5-2.6-.8-3.3 2.2-.3 3.3.9z" fill="#301616"/><path d="m123.4 165.5c-1-.9-2.3-1.5-3.4-2.1-1.5-.9-3-1.7-4.5-2.6-.3-.2-.5.3-.2.5 2.2 1.2 4.4 2.4 6.5 3.7 1.1.7 2.3 1.5 2.5 2.9.2 1.1-.2 2.4-.5 3.5-.1.3.4.4.5.1.6-2.3 1-4.4-.9-6z" fill="#dd6b4b"/><path d="m127.6 172.6c-.6.4-6.6 2.9-8.9 4.3-.1.1-.1.3 0 .3 1.9.7 4 1.2 5.8.2 1.8-.9 2.6-2.8 3.3-4.6.1-.1-.1-.3-.2-.2z" fill="#fff"/><path d="m109.6 159.1c-.8-.6-2.1-.3-2.9.1-.6.2-1 .6-1.5 1-.9.6-1.7 1.4-2.3 2.3s-1.5 2.3-1.2 3.5c.8 2.9 3.9-1 4.8-1.7.8-.9 5.5-3.4 3.1-5.2z" fill="#7d443b"/><path d="m118.3 150.4c-.9.5-1.7 1-2.4 1.8-.8.8-1.9 2.1-1.7 3.3.3 3 4-.4 5-1 .4-.2 1.3-.6 2.2-1.2-1-1-2.1-1.9-3.1-2.9z" fill="#7d443b"/><path d="m95.2 202.7c-1.7 6.2-5.9 11.5-11.5 14.7-3.1 1.8-6.4 3-9.9 3.7-.1-.2-.1-.3-.2-.5 5.1-1 10-3.1 14-6.6 5.4-4.8 8.6-12.1 7.6-19.2.2.2.4.5.6.8.2 2.3 0 4.7-.6 7.1z" fill="#7d443b"/><path d="m115.4 145.7-.1-.1c-1-.9-1.8-1.9-2.5-3.1-.5-.7-1-1.5-1.7-2.1-.8-.6-1.7-.7-2.7-.6-1.4.1-2.9.3-4.3.4-2.3.3-4.7.7-6.8 2-1.9 1.2-3.2 3.1-4.3 5.1-1.2 2.3-2.2 4.7-3.2 7.1l-1.2 3c0 .1-.1.3-.2.5-.6 1.6-1.1 3.3-1.4 5-.9 4.5-.7 9.2 1.2 13.3 1 2.1 2.5 3.8 4.3 5.2l.2.2c1.5 1.1 2.8 2.1 3.7 3.7.8 1.4 1.2 2.9 1.7 4.4 0 .2.3.3.4.1 1.1-1.5 2.2-3 3.2-4.6.8-1.4 1-2.2.1-3.6-2-3-6.6-6.1-4.2-10.1.3-.5.7-1 .7-1.6 0-.8-.4-1.6-.6-2.4-.7-1.9-1.5-3.8-1.9-5.8-.2-1.4-.3-2.8 0-4.1 0-.2.1-.4.1-.5.2-.7.5-1.3.9-1.9 1.2-1.7 2.9-3 4.6-4.3 2.2-1.6 4.5-3 7-4.1 1.7-.8 3.4-1.4 5.2-2h.1c.2.3.5.6.8.8l.4.4c.4.3.8-.1.5-.3z" fill="#7d443b"/><path d="m117.2 140.3c-.9-1.6-2.5-2.7-4.4-3 .2-2.4-2-3.9-4.2-4.2-3.1-.4-6.4.4-9.2 2-1.9-2.8-5.8-2.4-8.3-.6-3.3 2.5-5.5 6.8-6.7 10.7-.6 2.2-.8 4.4-1 6.7 0 .4-.1.9-.1 1.3 0 .3-.1.6-.1.9-.1.5-.2 1.1-.4 1.6-.4 1.3-1.1 2.3-1.8 3.5-2.2 3.8-2.5 10.3-1.2 14.3 1.4 4.4 3.7 6.3 7.2 9.3.1.1 1.5.2 1.5.1h.1c1.3-.2 2.8-.6 3.9-1.5.2-.2.5-.4.6-.7 1.2-1.7.7-4.3.4-6.2-.7-5.2-2.5-10.9-.3-16 0-.1.1-.1.1-.2s.1-.2.2-.3c2.1-4.2 6.5-7.4 10.7-9.4 1.4-.7 2.8-1.2 4.2-1.7 1-.3 1.9-.5 2.9-.8 1-.2 2.1-.4 3.2-.5h.4.2c.7 0 1.4-.1 2-.5 1.5-1 .8-3.6.1-4.8z" fill="#7d443b"/><path d="m103.1 175.5c-1-1.1-3.4-1.6-3.8-3.1.1-.1.1-.4-.1-.4-.1-.1-.3-.1-.4 0-2.1 0-4.4.7-4.6 3.2-.2 2.4 1.8 4.3 4 4.9 1.7.4 5.3.6 5.9-1.6.3-1.1-.3-2.3-1-3z" fill="#ffa57a"/><path d="m103.6 176.5c-1.4.3-2.5.3-3.6-.7-.5-.4-.9-.9-1.4-1.3-.8-.6-1.8-.8-2.7-.3-.3.1 0 .6.2.4 1.8-1 3 1.4 4.3 2.2 1 .6 2.1.4 3.2.2.4-.1.3-.5 0-.5z" fill="#dd6b4b"/><path d="m96.1 157.1c-.1.2-.1.4-.1.5-.8.4-1.7.7-2.5.8-1.6.2-3.3-.1-4.9-.6-.2-.1-.5-.2-.7-.3-2-.8-3.6-1.8-4.5-3.5 0-.3.1-.6.1-.9.3.9.8 1.8 1.5 2.4 1 .8 2.2 1.3 3.4 1.7.1 0 .2.1.4.1 1.6.6 3.4.9 5 .6.8-.1 1.5-.4 2.2-.8z" fill="#301616"/><path d="m35.6 65.6c-1.2 1.6 2 4.4 3.1 5.3 1.9 1.8 4.1 3.2 6.3 4.7-.3.4-.5.8-.8 1.2-3.5-2.1-6.8-4.5-9.9-7.2-.7-.6-5.5-6.1-6.3-3.5-.4 1.2 1.1 2.8 1.7 3.6 1.1 1.4 2.4 2.6 3.8 3.8 2.8 2.3 5.8 4.3 8.9 6.2-.1.1-.2.2-.2.4-3.6-2-7-4.4-10.1-7.2-1.6-1.4-3-3.2-4.8-4.4-.7-.5-2.1-1.2-2.6 0-.6 1.4 1.3 3.1 2.1 4 1.3 1.5 2.8 2.9 4.3 4.2 2.8 2.4 5.9 4.5 9.1 6.4-.1.2-.3.4-.4.7-2.6-1.7-5.3-3.1-7.8-4.9-.8-.6-5.3-5-5.8-2.5-.2 1.2 1.2 2.7 2 3.5 1.2 1.3 2.5 2.3 4 3.3 2.6 1.8 5.2 3.5 8 4.8 4.9 3.1 9.8 6.1 10.4 10.1 0 .2.3.3.5.1 1.2-2.1 4.6-1.6 5.4-4.1v-.1c.4-2 .8-4.1 1.2-6.1.3-1.6.8-3.3.5-4.9-.5-3.1-3.8-5.1-6-6.9-.3-.3-9-6.2-10.8-7.9-1.1-1.1-4.3-4.6-5.8-2.6z" fill="#ffa57a"/><path d="m94.4 84.9c-.4 2-.7 4.1-1.1 6.1v.1c0 .1 0 .1-.1.2-2.4-.3-4.8-.1-7.2.6h-.1c-2-2.4-5.5-4.5-9-6.7-1.2-.5-2.3-1.1-3.4-1.8l-2.4-1.5c-.1-.1-.3-.2-.4-.3l-1.8-1.2c-1.4-1-2.8-1.9-4-3.2-.8-.8-2.2-2.2-2-3.4.4-2.5 5 1.9 5.8 2.4 2.5 1.8 5.2 3.1 7.9 4.8.1-.2.3-.4.4-.7-3.3-1.8-6.4-3.8-9.2-6.2-1.5-1.3-3-2.7-4.4-4.2-.8-.9-2.7-2.6-2.1-3.9.5-1.1 1.9-.5 2.6 0 1.8 1.2 3.2 2.9 4.9 4.4 3.1 2.7 6.5 5 10.2 7 .1-.1.1-.2.2-.4-3.1-1.8-6.2-3.8-9-6.1-1.4-1.1-2.7-2.3-3.8-3.7-.6-.8-2.1-2.4-1.8-3.6.8-2.6 5.7 2.8 6.4 3.4 3.1 2.7 6.4 5.1 10 7.1.3-.4.5-.9.8-1.3-2.2-1.4-4.4-2.9-6.4-4.6-1-.9-4.3-3.6-3.1-5.3 1.4-2 4.7 1.4 5.6 2.3 1.8 1.6 10.6 7.4 11 7.7 2.3 1.8 5.6 3.7 6.1 6.8.1 1.9-.3 3.5-.6 5.2z" fill="#ffa57a"/><path d="m90.9 91.2c-.8-1.3-1.9-2.1-2.9-3.2-1.3-1.4-1.9-3.3-2.2-5.1-.3-1.7-.4-3.4-.7-5-.3-1.4-.6-3.2-1.7-4.2-.2-.2-.6.1-.4.4 1.3 1.3 1.5 3.9 1.8 5.6.2 1.5.4 3.1.7 4.6.3 1.3.9 2.6 1.7 3.7 1 1.3 2.3 2.2 3.1 3.6.3.1.7-.1.6-.4z" fill="#dd6b4b"/><path d="m86.7 92.8c-.2-.3-.5-.6-.8-.9l-.2-.2v-.1c-.5-2.6-1.4-5.2-3.4-6.8-.2-.2-.5-.4-.8-.5-.5-.3-1.1-.5-1.7-.6-1.9-.4-3.9-.1-5.8-.4-.3-.1-.6-.1-.9-.2-.8-.2-1.5-.7-2.2-1-.3-.1-.6-.3-.9-.3-.4-.1-.9-.1-1.2.3-.9 1 .5 2.6 1.2 3.4 1.2 1.4 2.6 2.5 4.2 3.4s3.4 1.4 5.2 1.6c2.4.3 5.3.4 6.8 2.7.3.1.7-.2.5-.4z" fill="#ffa57a"/><path d="m85.9 85.9c-1.1-.7-2.3-.9-3.5-1.1-2-.2-4.1 0-6.1-.4-1-.2-2-.6-2.9-1-.4-.2-.7-.3-1.1-.5-1.1-.5-2.2-.9-3.4-1 .3-.4.7-.4 1.2-.3.3.1.6.2.9.3-.1-.1-.3-.2-.4-.3.3.1.5.2.8.3l2.7 1.2c.6.3 1.2.5 1.9.7 1.9.4 3.8.3 5.6.4 1.6.1 3.1.3 4.5 1.2.3.2.1.7-.2.5z" fill="#dd6b4b"/><path d="m120.4 295.7c-15.2.4-30.4.8-45.5 1.2l.1-.5c15.1-.4 30.1-.8 45.2-1.2 0 .1.1.3.2.5z" fill="#301616"/><path d="m107.5 363.7c1.2 4.8 2.4 9.7 3.3 14.6-.3-.5-.5-1-.7-1.4-.2-1-.4-1.9-.6-2.8-1.9-9.4-5-18.5-6.9-27.9-.9-4.4-.9-8.4 1-12.5 2-4.4 4.5-8.5 6.8-12.7.1-.3.6 0 .4.2l-3.9 7.2c-1.3 2.4-2.7 4.7-3.6 7.3-1.7 4.7-.5 9.6.7 14.2 1.1 4.7 2.3 9.2 3.5 13.8z" fill="#7d443b"/><path d="m92.1 381c-.2-5.6-2-11.1-4.3-16.1-2.5-5.6-5.7-10.8-8.3-16.4-2.8-6-4.6-12.2-4.8-18.9-.5-13.9 4.9-27 10.5-39.5 0 0-.1 0-.1.1-.2.1-.4.2-.5.2-4.6 10.3-9 20.9-10.1 32.3-.6 6.3-.2 12.7 1.7 18.8 1.8 5.7 4.7 11 7.5 16.3 5.4 10.2 11.4 23.2 5.8 34.6-1.3 2.7-3.3 5-5.1 7.4-1.8 2.3-3.3 4.8-4.5 7.4-2.4 5.2-3.8 10.7-5.4 16.1-1.9 6.7-4 13.2-7.3 19.3-1.5 2.8-3.1 5.5-4.9 8.2l.5.1c1.2-2 2.5-3.9 3.6-5.9 3-5.2 5.3-10.6 7-16.4 1.7-5.6 3-11.2 5-16.7 1-2.8 2.2-5.5 3.7-8.1s3.5-4.9 5.2-7.2c3.5-4.7 5-9.9 4.8-15.6z" fill="#7d443b"/><path d="m102 236.1c-.6.1-1.1.1-1.7.2-.4 0-1.1.3-1.5.2-1.1-.3-.9-2.5-1-3.4-.1-1.1-.2-2.3-.4-3.4l-1.2-12c7.6-1.9 15.3-2.2 23-2.9 2.3-.2 4.6-.4 6.9-.5.9 0 1-.1 1.3.7.1.5.1 1 .2 1.5.2 1.2.3 2.4.5 3.6.6 4.6 1.3 8.3 1.9 13-8.4.9-16.7 1.8-25 2.7z" fill="#fff"/><path d="m188.5 295c.5-2-.1-4-1.5-4.4s-2.9 1-3.5 3 .1 4 1.5 4.4 2.9-1 3.5-3z" fill="#99a5cc"/><path d="m187 339.9c-1.4-.4-2.9 1-3.5 3s.1 4 1.5 4.4 2.9-1 3.5-3c.5-2.1-.2-4.1-1.5-4.4z" fill="#99a5cc"/><path d="m188 383.9c-1.4-.4-2.9 1-3.5 3-.5 2 .1 4 1.5 4.4s2.9-1 3.5-3c.5-2.1-.2-4.1-1.5-4.4z" fill="#99a5cc"/><path d="m201.3 240.6c-1.4 3.8-4.1 6.9-6.8 9.9-2.5 2.7-4.9 5.5-6.4 8.9-.6 1.5-1.1 3.1-1.1 4.7 0 .2.1 1.2 0 1.4-.2.3-.9.2-1.2.2l-3.5.1c-5 .1-10 .3-15 .5 3-11.1-7.9-19.7-8.9-30.2h43.9c-.1 1.6-.4 3.1-1 4.5z" fill="#e0b59f"/><path d="m777.3 207.2c-3.8 8.5-5.9 17.7-7.3 26.8-1.9 12.5-2.2 25.3-.4 37.9 1.7-.7 2.3-2.6 2.6-4.2s.6-3.3.9-5c.7-3.4 1.5-6.9 2.4-10.2 1.8-6.8 3.9-13.5 6.4-20.1 2.2-5.9 4.8-11.6 7.6-17.3l1.2-2.4c-4-3.1-8.6-4.8-13.4-5.5zm-12.4 65.3c-.1 0-.2.1-.3.1.3-21.5-.2-43.1-2.7-64.5-3.3.8-6.6 1.9-9.6 3.4 4.6 17.3 8 34.9 8.8 52.9.1 3.1.2 6.3.2 9.4 0 .2.2.3.3.2.9-.2 1.7-.5 2.6-.7v3.5c0 .3.5.3.5 0 0-1.2 0-2.4.1-3.6.2 0 .3-.1.5-.1.1-.2-.1-.7-.4-.6zm-17.6-58.2c-3.7 2.4-7.1 5.4-10 8.8.4.9.7 1.7 1 2.6 2.8 7.2 4.6 14.8 5.8 22.4 1.3 7.6 2.3 15.2 2.9 22.9.2 2.1.3 4.1.2 6.2 0 .1.1.3.3.3 1-.2 1.9 0 2.8.5-.3 2.1-.9 4.2-1.7 6.1-.1.3.3.5.5.2.8-1.9 1.3-4 1.7-6 .1.1.2.1.2.2.2.2.6-.1.4-.3s-.4-.3-.6-.5c.2-1.6.4-3.3.6-4.9.4-3.9.8-7.7 1-11.6.5-7.6.5-15.3-.2-22.9-.7-8.1-2.3-16.3-4.9-24z" fill="#505c36"/><path d="m789 271.3c-2 5.4-5.7 9.6-9.5 13.8-3.4 3.8-6.8 7.7-8.9 12.5-.9 2.1-1.3 5.4-1.4 7.7 0 .3.2 1.7 0 2-.3.5-1.2.3-1.7.3l-4.8.1c-7 .2-14.2-.7-21.2-.5 4.1-15.5-11.1-27.5-12.4-42.3h61.4c-.2 2.3-.7 4.4-1.5 6.4z" fill="#e0b59f"/></g></svg>