<svg height="1649.9" viewBox="0 0 1635.1 1649.9" width="1635.1" xmlns="http://www.w3.org/2000/svg"><g transform="translate(-1984.5 -108.86)"><path d="m3475.6 1549.8c-362.77-31.84-1477.9-128.81-1487.2-128.43-17.62.72 28.36 116.76 33.84 125.28 69.72 108.26 207.94 150.95 327.99 172.52 157.69 28.33 318.1 41.48 478.3 39.38 114.02-1.49 227.34-11.91 340.37-26.46 72.94-9.39 145.72-21.75 216.54-41.84 48.74-13.82 105.95-23.18 144.25-59.04 44.28-41.46-13.79-77.87-54.12-81.41z" fill="#e8bd92"/><path d="m3141 952-238.96 5.51c-4.21.1-7.63-3.24-7.63-7.45v-165c0-4.21 3.41-7.71 7.63-7.8l238.96-5.51c4.21-.1 7.63 3.24 7.63 7.45v165c0 4.21-3.42 7.7-7.63 7.8z" fill="#ffca76"/><path d="m3066.3 774.59v177.95c0 1.64 2.54 1.64 2.54 0v-177.95c0-1.63-2.54-1.64-2.54 0z" fill="#2c1514"/><path d="m2919.3 828.59v-19.16c0-2.81 2.28-5.14 5.08-5.2l41.86-.97c2.81-.06 5.08 2.16 5.08 4.97v19.16c0 2.81-2.28 5.14-5.08 5.2l-41.86.97c-2.81.06-5.08-2.16-5.08-4.97z" fill="#ffead1"/><path d="m2826.6 970.76-238.96 5.51c-4.21.1-7.63-3.24-7.63-7.45v-165c0-4.21 3.41-7.7 7.63-7.8l238.96-5.51c4.21-.1 7.63 3.24 7.63 7.45v165.01c0 4.2-3.42 7.69-7.63 7.79z" fill="#de855b"/><path d="m2751.9 793.35v177.95c0 1.64 2.54 1.64 2.54 0v-177.95c0-1.63-2.54-1.64-2.54 0z" fill="#2c1514"/><path d="m2604.9 847.35v-19.16c0-2.81 2.28-5.14 5.08-5.2l41.86-.97c2.81-.06 5.08 2.16 5.08 4.97v19.16c0 2.81-2.28 5.14-5.08 5.2l-41.86.97c-2.8.06-5.08-2.16-5.08-4.97z" fill="#ffe9d1"/><path d="m2382 909.28-146.18 3.37c-4.21.1-7.63-3.24-7.63-7.45v-99.22c0-4.21 3.41-7.71 7.63-7.8l146.18-3.37c4.21-.1 7.63 3.24 7.63 7.45v99.22c0 4.21-3.42 7.7-7.63 7.8z" fill="#de855b"/><path d="m2350.4 796.49v112.98c0 1.64 2.54 1.64 2.54 0v-112.98c0-1.63-2.54-1.63-2.54 0z" fill="#2c1514"/><path d="m2241.5 836.59v-24.24c0-1.4 1.14-2.57 2.54-2.6l46.94-1.08c1.4-.03 2.54 1.08 2.54 2.48v24.24c0 1.4-1.14 2.57-2.54 2.6l-46.94 1.08c-1.4.03-2.54-1.08-2.54-2.48z" fill="#ffead1"/><path d="m3473.7 491.49-146.18 3.37c-4.21.1-7.63-3.24-7.63-7.45v-99.22c0-4.21 3.41-7.71 7.63-7.8l146.18-3.37c4.21-.1 7.63 3.24 7.63 7.45v99.22c0 4.21-3.42 7.7-7.63 7.8z" fill="#ffca76"/><path d="m3442.1 378.7v112.98c0 1.64 2.54 1.64 2.54 0v-112.98c0-1.63-2.54-1.64-2.54 0z" fill="#2c1514"/><path d="m3333.3 418.79v-24.24c0-1.4 1.14-2.57 2.54-2.6l46.94-1.08c1.4-.03 2.54 1.08 2.54 2.48v24.24c0 1.4-1.14 2.57-2.54 2.6l-46.94 1.08c-1.4.04-2.54-1.07-2.54-2.48z" fill="#ffead1"/><path d="m2685.2 898.42-273.31 6.31c-4.21.1-7.63-3.24-7.63-7.45v-189.37c0-4.21 3.41-7.71 7.63-7.8l273.31-6.31c4.21-.1 7.63 3.24 7.63 7.45v189.36c0 4.22-3.42 7.71-7.63 7.81z" fill="#de855b"/><path d="m2584.4 698.5v200.5c0 1.64 2.54 1.64 2.54 0v-200.5c0-1.64-2.54-1.64-2.54 0z" fill="#2c1514"/><path d="m2431.9 746.74v-19.16c0-2.81 2.28-5.14 5.08-5.2l41.86-.97c2.81-.06 5.08 2.16 5.08 4.97v19.16c0 2.81-2.28 5.14-5.08 5.2l-41.86.97c-2.81.06-5.08-2.16-5.08-4.97z" fill="#ffead1"/><path d="m3259.4 499.25-186.17 4.3c-4.21.1-7.63-3.24-7.63-7.45v-127.58c0-4.21 3.41-7.71 7.63-7.8l186.17-4.3c4.21-.1 7.63 3.24 7.63 7.45v127.57c0 4.22-3.41 7.71-7.63 7.81z" fill="#de855b"/><path d="m3201.5 359.64v131.62c0 1.64 2.54 1.64 2.54 0v-131.62c.01-1.64-2.54-1.64-2.54 0z" fill="#2c1514"/><path d="m3080.8 396.19v-19.3c0-1.4 1.14-2.57 2.54-2.6l38.17-.88c1.4-.03 2.54 1.08 2.54 2.48v19.3c0 1.4-1.14 2.57-2.54 2.6l-38.17.88c-1.4.03-2.54-1.08-2.54-2.48z" fill="#ffead1"/><path d="m2839.9 509.09-97.63 2.25c-4.21.1-7.63-3.24-7.63-7.45v-97.63c0-4.21 3.41-7.71 7.63-7.8l97.63-2.25c4.21-.1 7.63 3.24 7.63 7.45v97.63c-.01 4.21-3.42 7.7-7.63 7.8z" fill="#ffca76"/><path d="m2814.7 397.95v106.15c0 1.64 2.54 1.64 2.54 0v-106.15c0-1.63-2.54-1.64-2.54 0z" fill="#2c1514"/><path d="m2779.1 489.91v-8.37c0-1.4 1.14-2.57 2.54-2.6l18.79-.43c1.4-.03 2.54 1.08 2.54 2.48v8.37c0 1.4-1.14 2.57-2.54 2.6l-18.79.43c-1.4.04-2.54-1.08-2.54-2.48z" fill="#ffead1"/><path d="m2435.3 523.03-186.17 4.3c-4.21.1-7.63-3.24-7.63-7.45v-127.57c0-4.21 3.41-7.71 7.63-7.8l186.17-4.3c4.21-.1 7.63 3.24 7.63 7.45v127.57c-.01 4.21-3.42 7.71-7.63 7.8z" fill="#de855b"/><path d="m2385.8 381.75v137.27c0 1.64 2.54 1.64 2.54 0v-137.27c0-1.63-2.54-1.64-2.54 0z" fill="#2c1514"/><path d="m2256.9 418.87v-16.74c0-1.4 1.14-2.57 2.54-2.6l33.64-.78c1.4-.03 2.54 1.08 2.54 2.48v16.74c0 1.4-1.14 2.57-2.54 2.6l-33.64.78c-1.41.04-2.54-1.07-2.54-2.48z" fill="#ffead1"/><path d="m2700.3 511.34-238.96 5.51c-4.21.1-7.63-3.24-7.63-7.45v-165.01c0-4.21 3.41-7.71 7.63-7.8l238.96-5.51c4.21-.1 7.63 3.24 7.63 7.45v165.01c0 4.21-3.42 7.7-7.63 7.8z" fill="#ffca76"/><path d="m2634.8 334.16v176.04c0 1.64 2.54 1.64 2.54 0v-176.04c0-1.63-2.54-1.64-2.54 0z" fill="#2c1514"/><path d="m2553.6 492.45v-19.16c0-2.81 2.28-5.14 5.08-5.2l41.86-.97c2.81-.06 5.08 2.16 5.08 4.97v19.16c0 2.81-2.28 5.14-5.08 5.2l-41.86.97c-2.81.06-5.08-2.16-5.08-4.97z" fill="#ffead1"/><path d="m3045.3 505.53-97.64 2.25c-4.21.1-7.63-3.24-7.63-7.45v-177.95c0-4.21 3.41-7.71 7.63-7.8l97.64-2.25c4.21-.1 7.63 3.24 7.63 7.45v177.95c-.01 4.21-3.42 7.7-7.63 7.8z" fill="#de855b"/><path d="m2954 343.71v-12.55c0-1.04.84-1.89 1.87-1.92l25.17-.58c1.04-.02 1.88.8 1.88 1.83v12.55c0 1.04-.84 1.89-1.88 1.92l-25.17.58c-1.03.03-1.87-.79-1.87-1.83z" fill="#ffead1"/><path d="m3018.3 314.16v191.21c0 1.64 2.54 1.64 2.54 0v-191.21c0-1.63-2.54-1.64-2.54 0z" fill="#2c1514"/><path d="m2859.5 462.93h9.32v515.77h-9.32z" fill="#855e59"/><path d="m2196.8 485.52h9.32v478.71h-9.32z" fill="#855e59"/><path d="m3522.8 481.34v9.31l-1316.7 43.94v-9.33z" fill="#855e59"/><path d="m2941.6 679.99c-8.57-1.31-21.41-.77-32.09.1 2.09-3.2 3.98-6.24 4.65-7.72 1.78-3.93-.09-8.61-5.43-7.31-6.03 1.46-19.42 11.35-22.85 13.94-22.78 1.03-98.3 4.44-120.22 5.45-.9-3.24-6.37-3.62-7.04-6.2 0 0-84.36 6.75-84.37 6.75 0 0 6.79 32.92 7.48 35.82 11.48 47.53 51.96 59.9 92.35 46.81 35.03-11.35 100.74-35.65 122.86-47.12.02-.01.03-.07.04-.17 7.47-.48 10.63-1.71 25.97-5.43 18.33-4.45 31.47-32.96 18.65-34.92z" fill="#ff8e73"/><path d="m2765.6 684.45s-1.92-18.34-4.1-39.7c-26.62 14.5-53.03 29.38-79.38 44.36-4.26 2.42-8.52 4.88-12.77 7.35 3.09 22.99 14.54 72.86 55.83 77.71 38.12 4.47 51.24-1.26 87.31-8.78 24.6-5.13 59.75-14.84 59.75-14.84l-11.76-70.49z" fill="#9eaed6"/><path d="m3227.5 477.37s-21.58 3.43-22.62 26.24c-1.04 22.8 11.93 24.7-5 39.9-16.94 15.2-63.01 66.18-29.76 97.46 33.25 31.27 117.81-2.66 131.11-30.34 13.3-27.69 6.65-44.79-2.85-57.61-9.5-12.83-16.62-21.85-11.16-49.88 5.45-28.03-59.72-25.77-59.72-25.77z" fill="#2c1514"/><path d="m3012.6 718.08s47.74 58.67 74.34 71.02 59.47 6.68 93.87-43.69c34.39-50.37 6.57-148.64 6.57-148.64l-77.55 123.41-66.81-36.92z" fill="#9eaed6"/><path d="m2962 697.29s-1.42 7.26 7.84 9.75c9 2.42 42.75 11.04 42.75 11.04s9.43-8.34 11.76-11.28c5.82-7.36 7.52-9.51 7.52-9.51z" fill="#ff8e73"/><path d="m3192.2 666.14c-.21.11-.41.24-.62.34-.24.04-.45.15-.62.32-26.93 13.87-36.23 44.98-43.86 72.15-5.07 18-12.1 39.5-24.9 54.47 18.34-3.95 38.22-18.13 58.64-48.01.64-.94 1.24-1.88 1.84-2.84 6.03-24.13 6.82-49.68 10-74.26.21-.11.41-.21.6-.32 1.23-.61.16-2.45-1.08-1.85z" fill="#2c1514"/><path d="m3175.8 658.57c-.18-33.41.89-61.5 23.95-72.71 6.07-2.95 18.95-8.83 30.56-10.56 8.42-20.7 26.22-11.2 26.22-11.2s42.08-17.65 38.76 8.22c-.34 2.64-1.38 4.97-2.95 7.04l56.94 125.42s-25.28 218.87-40.6 227.78c-29.87 17.37-102.01-48.63-102.01-48.63s-21.58-81.53-25.84-141.98c-3.25-46.26-4.96-69.38-5.03-83.38z" fill="#9eaed6"/><path d="m3382.4 891.68-27.55-108.28-32.64-80.26c-5.51.38-23.15 29.19-30.69 74.55-8.38 50.39-53.7 50.83-69.15 87.22-.32 9.45 160.36 17.33 160.03 26.77z" fill="#2c1514"/><path d="m3287.3 568.24-40.77 41.68c-1.34 1.37-3.66.63-3.96-1.26l-5.06-32.09z" fill="#fff"/><path d="m3236.7 558.93.8 17.64s25.08 7.1 49.79-8.33l-7.26-34.31z" fill="#ff8e73"/><path d="m3273.9 466.92c-17.13-8.1-37.63-.51-48.56 12.89-4.72 5.79-8.33 11.12-10.2 21.22-1.26 6.81-.64 16.21-1.81 24.46-1.8 12.69-1.47 22.68 2.11 30.41 6.35 13.72 25.67 7.79 40.25-.15 34.63-18.86 54.64-71.61 18.21-88.83z" fill="#ff8e73"/><path d="m3221 485.7c7.71 16.46 23.06 28.17 41.07 31.26.73 6.62 2.77 13.07 6.2 18.9 3.84 6.52 6.71 10.07 14.6 11.26l-2.79-13.18c16.98-23.38 20.25-54.54-6.16-67.02-17.12-8.1-37.62-.5-48.57 12.9-1.56 1.94-3.01 3.84-4.35 5.88z" fill="#2c1514"/><path d="m3273.4 527.79c-1.94 6.24-7.33 10.11-12.04 8.64-4.71-1.46-6.96-7.71-5.02-13.94s7.33-10.11 12.04-8.64c4.71 1.45 6.96 7.7 5.02 13.94z" fill="#ff8e73"/><g fill="#2c1514"><path d="m3239.9 507.41c-1.89-1.02-4.05-1.63-6.21-1.44-1.82.16-4.32.94-5.17 2.74-.73 1.54-.06 3.67 1.37 4.57.63.4 1.36.51 2.09.53 1.97.05 3.43-.34 5.36.3 1.75.57 3.84 1.6 5.68.79 4.25-1.9-1.08-6.39-3.12-7.49z"/><path d="m3235.1 516.13c3.41.07 2.9 4.96 2.26 6.93-.42 1.28-1.27 2.78-2.81 2.72-2.25-.08-2.35-3.14-2.25-4.77.13-1.82.57-4.92 2.8-4.88z"/><path d="m3212.7 509.33c-.5.98-.57 2.23-.3 3.31.26 1.03.93 1.91 2.01 1.94.79.02 1.49-.29 2.25-.44.97-.19 1.97-.08 2.95-.24.6-.1 1.18-.27 1.68-.68 1.11-.95 1.47-2.94.74-4.28-.85-1.54-2.98-2.01-4.51-2-1.15.02-2.45.25-3.47.91-.56.36-1.03.84-1.35 1.48z"/><path d="m3216.9 516.43c3.2.07 2.72 4.66 2.12 6.5-.39 1.2-1.19 2.61-2.63 2.55-2.11-.08-2.21-2.94-2.11-4.48.11-1.7.52-4.61 2.62-4.57z"/><path d="m3222.7 517.37c-.64 5.14-2.04 10.19-5.26 14.35-.83 1.07.67 2.6 1.51 1.51 3.61-4.66 5.17-10.08 5.89-15.86.16-1.36-1.97-1.35-2.14 0z"/><path d="m3224.7 533.17c-2.15.35-4.13.14-5.73-1.45-.98-.97-2.49.54-1.51 1.51 2.18 2.16 4.9 2.47 7.81 2 1.35-.22.78-2.28-.57-2.06z"/><path d="m3236.9 563.24.16 3.76c23.24-1.19 16.7-13.95 11.11-9.69-4.25 3.22-9.13 5.16-11.27 5.93z"/><path d="m3265.2 519.71c3.86.75 1.76 6.28 0 8.08-.96.98.55 2.5 1.51 1.51 2.88-2.94 4.69-10.55-.94-11.65-1.35-.26-1.92 1.8-.57 2.06z"/></g><path d="m3282.7 840.6s-16.48 3.64-28.89 8.24c-7.26 2.69-17.51 8.43-12.14 15.79h89.16z" fill="#ff8e73"/><path d="m3287.3 568.24s32.5 2.36 51.35 6.4 33.21 19.3 38.59 32.76c5.39 13.46 30.7 113.38 35.03 146.35 2.06 15.66.21 29.92-10.6 47-23.75 37.53-61.58 71.37-61.58 71.37l-57.39-31.53 53.35-76.98-13.81-60.47z" fill="#9eaed6"/><path d="m3294.9 569.68c-2.8 10.62-5.71 21.22-8.72 31.79-.38 1.33 1.68 1.89 2.06.57 3.01-10.57 5.92-21.16 8.72-31.79.36-1.33-1.71-1.9-2.06-.57z" fill="#2c1514"/><path d="m3287.5 600.72c-8.09-2.22-16.12-4.65-24.12-7.17-1.32-.41-1.88 1.65-.57 2.06 8 2.52 16.03 4.95 24.13 7.17 1.32.37 1.88-1.69.56-2.06z" fill="#2c1514"/><path d="m3239.1 593.25c-5.36 1.86-10.72 3.72-16.09 5.59-1.29.45-.74 2.51.57 2.06 5.36-1.86 10.72-3.72 16.09-5.59 1.29-.45.73-2.52-.57-2.06z" fill="#2c1514"/><path d="m3229.3 576.18c-2.35 7.8-4.74 15.58-7.01 23.4-.38 1.32 1.68 1.89 2.06.57 2.27-7.82 4.67-15.6 7.01-23.4.39-1.33-1.67-1.89-2.06-.57z" fill="#2c1514"/><path d="m3271.4 656.23.85 8.81c.12 1.24 1.16 2.19 2.41 2.19l30.75.04c1.43 0 2.55-1.23 2.41-2.66l-.85-8.81c-.12-1.24-1.16-2.19-2.41-2.19l-30.75-.04c-1.43.01-2.55 1.24-2.41 2.66z" fill="#fff"/><path d="m3239.4 624.62c-.3 2 1.08 3.85 3.08 4.15s3.85-1.08 4.15-3.08-1.08-3.85-3.08-4.15-3.86 1.08-4.15 3.08z" fill="#2c1514"/><path d="m3239.4 640.43c-.3 2 1.08 3.85 3.08 4.15s3.85-1.08 4.15-3.08-1.08-3.85-3.08-4.15c-2-.29-3.86 1.09-4.15 3.08z" fill="#2c1514"/><path d="m3215.2 539.71h16.11s-3.71 5.46-8.99 5.46-7.12-5.46-7.12-5.46z" fill="#fff"/><path d="m3265.9 531.07c.42 1.75.94 3.47 2.31 4.73 1.01.93 2.53-.58 1.51-1.51-1.09-1-1.43-2.39-1.76-3.78-.32-1.34-2.38-.78-2.06.56z" fill="#fff"/><path d="m3262.8 532.58c.26 2 1.08 3.73 2.61 5.07 1.03.9 2.55-.6 1.51-1.51-1.07-.94-1.8-2.13-1.99-3.56-.17-1.34-2.31-1.36-2.13 0z" fill="#fff"/><path d="m1989 1425.3v-537.49l1534.8-27.46v716.05z" fill="#ffead1"/><path d="m3282.6 1444.4c-101.81-67.82-211.84-127.79-331.8-169.84-59.89-20.97-122.07-37.37-185.75-47.61-61.9-9.99-124.87-13.98-187.61-17.95-124.77-7.88-255.38-15.56-365.58-71.03-79.21-39.84-141.47-98.41-212.55-147.29l-10.32.15v434.4l1464.9 144.21c-55.4-43.36-112.04-85.54-171.32-125.04z" fill="#fae0c0"/><path d="m1989 918.4c96.01-1.44 192.03-2.88 288.04-4.32 101.75-1.53 203.5-3.05 305.25-4.58l309.6-4.65c102.17-1.53 204.35-3.07 306.52-4.6 96.86-1.45 193.72-2.91 290.58-4.36 11.6-.17 23.2-.35 34.79-.52 1.63-.02 1.64-2.57 0-2.54-96.01 1.44-192.03 2.88-288.04 4.32-101.75 1.53-203.5 3.05-305.25 4.58l-309.6 4.65c-102.17 1.53-204.35 3.07-306.52 4.6-96.86 1.45-193.72 2.91-290.57 4.36-11.6.17-23.2.35-34.79.52-1.65.02-1.65 2.56-.01 2.54z" fill="#2c1514"/><path d="m3044.1 697.29h-134.61c-2.94 0-5.33-2.39-5.33-5.33v-92.35c0-2.94 2.39-5.33 5.33-5.33h134.61c2.94 0 5.33 2.39 5.33 5.33v92.35c0 2.94-2.39 5.33-5.33 5.33z" fill="#de855b"/><path d="m2989.4 594.47v102.7c0 1.38 2.14 1.38 2.14 0v-102.7c0-1.37-2.14-1.38-2.14 0z" fill="#2c1514"/><path d="m2947.1 685.98v-13.21c0-.98.8-1.78 1.78-1.78h26.18c.98 0 1.78.8 1.78 1.78v13.21c0 .98-.8 1.78-1.78 1.78h-26.18c-.98 0-1.78-.8-1.78-1.78z" fill="#ffead1"/><path d="m2739.1 545.08-.6-36.8-36.1-9.85-12.3 38.85z" fill="#ff8e73"/><path d="m2626.5 1493.8c.24.03.48.05.72.08-.17 7.67-2.14 37.3-2.3 44.97-.01.4 15.38 7.65 21.61 10.4 11.8 5.2 26.11 7.71 39.64 2.57.3.7 1.65.34 1.64-.62v-.37c.05-.17.05-.35-.01-.51-.22-17.69-.45-35.39-.67-53.08.85-.27 1.04-1.64.05-1.63-19.63.18-39.06-.92-58.22-3.25.02-.88-1.1-.81-1.53-.18-.2-.02-.39-.04-.59-.07-1.07-.13-1.4 1.56-.34 1.69z" fill="#fff"/><path d="m2619.2 1576.4h124.66s2.46-9.46-3.72-16.03c-4.45-4.73-41.15-32.02-44.68-33.41s-7.5-4.88-18.13 4.03c-8.71 7.3-10.55 11.32-16.36 9.29-5.81-2.04-23.85-19.2-37.64-17.08-6.94 1.07-4.13 53.2-4.13 53.2z" fill="#2c1514"/><path d="m2619.9 1567.5h122.74c1.64 0 1.64-2.54 0-2.54h-122.74c-1.64 0-1.64 2.54 0 2.54z" fill="#8f5957"/><path d="m2619.6 1542c15.86 2.23 27.62 10.52 35 24.77.75 1.45 2.95.17 2.2-1.28-7.65-14.77-20.03-23.62-36.52-25.94-1.6-.23-2.29 2.22-.68 2.45z" fill="#8f5957"/><path d="m2702.3 1496.6c.24.03.49.05.73.08 1.24 7.67 4.7 37.3 5.94 44.97.06.4 16.78 7.65 23.52 10.4 12.76 5.2 27.52 7.71 40.11 2.57.43.7 1.71.34 1.52-.62-.02-.12-.05-.24-.07-.37.02-.17-.01-.35-.1-.51-3.47-17.69-6.94-35.39-10.41-53.08.8-.27.74-1.64-.25-1.63-19.59.18-39.22-.92-58.81-3.25-.14-.88-1.25-.81-1.56-.18-.2-.02-.4-.04-.6-.07-1.09-.14-1.11 1.55-.02 1.69z" fill="#fff"/><path d="m2701.8 1579.2h124.66s4.73-9.46-1.94-16.03c-4.8-4.73-43.56-32.02-47.2-33.41s-6.79-4.88-16.74 4.03c-8.16 7.3-9.7 11.32-15.66 9.29-5.96-2.04-26.38-19.2-40.01-17.08-6.88 1.06-3.11 53.2-3.11 53.2z" fill="#2c1514"/><path d="m2618.6 1507.2h89.2l22.1-354-108.3-215.84-5.1 330.44z" fill="#974d38"/><path d="m2621.4 945.58c9.64 20.65 18.47 41.68 26.49 63.1 21.74 58.04 37.64 118.6 47.43 180.54.81 5.13 1.6 10.26 2.31 15.41l-11.43 302.56c-6.71-13.72-45.13-318.5-50.99-349.03-4.66-24.43-9.58-48.87-15.95-72.79z" fill="#2c1514"/><path d="m2763.4 816.76s13.68 203.77 17.03 299.56c3.22 92.03 1.15 393.66 1.15 393.66h-94.99s-19.49-176.01-28.85-297.7c-3.8-49.41-29.86-229.49-32.06-239.69-4.78-22.19-30.59-101.3 4.66-167.11z" fill="#974d38"/><path d="m2764 816.21s-79.15 6.46-109.09 8.83c-7.46.6-14.9 1.45-22.27 2.59-3.57.56-9.65.31-13.18 1.29-2.67 10.8-5.71 22.1-6.11 32.85 21.03.41 56.07-1.17 76.87-4.68 22.59-3.78 56.47-15.36 73.76-31.48.11-2.57.02-9.4.02-9.4z" fill="#2c1514"/><path d="m2655.2 835.07c36.78-1 75.92-3.22 111.03-13.62-4.09-36.45-9.37-58.07-9.37-58.07l-22.58-196.2-53.19-33.3c-56.94 15.74-58.47 126.74-69.27 203.47-5.75 40.9-8.1 56.98-10.3 93.92 12.07 1.42 41.49 4.13 53.68 3.8z" fill="#9eaed6"/><path d="m2677.6 644.4 8.71 77.49 5.96-.25 13.59-1.8 57.72 77.47 1.81 16.74s-41.14 1.86-67.27-19.26c-24.3-19.64-23.98-76.63-24.78-96.61s-12.26-33.38-14.18-58.72c-1.76-23.29 8.42-24.78 11.63-18.77 3.2 5.99 6.81 23.71 6.81 23.71z" fill="#2c1514"/><path d="m2924 704s-114.74 9.79-140.57 12.33c-1.07-3.18-6.55-3.28-7.35-5.83l-83.9 11.13s8.49 32.53 9.34 35.38c13.94 46.87 50.55 41.48 90.21 26.31 34.39-13.16 116.55-27.36 138.05-39.96.54-.32-5.78-39.36-5.78-39.36z" fill="#ff8e73"/><path d="m2916 702.82s17.53-5.96 33.14-10.63c6.15-1.84 14.99-3.17 20.46-2.55 10.66 1.22 19.89 28.67.72 38.46-22.66 11.57-44.03 17.05-44.03 17.05z" fill="#ff8e73"/><path d="m2911.8 704.46s9.64-18.16 15.47-22.3c5.65-4 9.3.72 9.05 5.02-.24 4.31-4.52 21.87-4.52 21.87z" fill="#ff8e73"/><path d="m2951 705.97c8.76-2.75 17.58-5.28 26.47-7.57 1.58-.41.91-2.86-.68-2.45-8.89 2.3-17.71 4.82-26.47 7.57-1.55.48-.89 2.94.68 2.45z" fill="#2c1514"/><path d="m2952.7 717.89c9.19-2.89 18.44-5.53 27.76-7.94 1.58-.41.91-2.86-.68-2.45-9.32 2.41-18.57 5.06-27.76 7.94-1.55.48-.89 2.94.68 2.45z" fill="#2c1514"/><path d="m2886.7 706.16-103.27 10.18s-11.12-70.63-14.72-95.73c-3.04-21.16-9.18-58.26-26.28-76.25-.18-3.96-.42-9.49-.47-9.51l-52.93-19-7.98 18.03 5.18 188.02s7.42 82.64 61.52 86.15c38.3 2.48 51.11-3.93 86.74-13.31 24.3-6.4 58.89-17.93 58.89-17.93z" fill="#9eaed6"/><path d="m2783.5 716.28c-4.47 5.6-15.8 13.36-18.79 14.75-5.07 2.33-17.08 4.45-11.14-4.1 1.15-1.65 2.86-2.99 4.57-4.23 5.45-4.02 17.87-12.89 24.43-12.18.52 3.3.86 5.37.93 5.76z" fill="#2c1514"/><path d="m2765.6 701.8c-5.96-1.34-14.13-1.5-14.9 1.98-.87 3.98 11.05 5.05 14.83 5.39 6.49.59 10.08-1.38 5.85-5.13-.93-.83-3.14-1.65-5.78-2.24z" fill="#2c1514"/><path d="m2777.3 684.83c1.48 10.36 3.22 20.68 4.85 31.01.25 1.61 2.7.93 2.45-.68-1.63-10.34-3.37-20.65-4.85-31.01-.23-1.6-2.68-.92-2.45.68z" fill="#2c1514"/><path d="m2783.3 716.78c42.72-4.59 85.62-7.39 128.43-11.05 1.62-.14 1.63-2.68 0-2.54-42.81 3.65-85.71 6.46-128.43 11.05-1.61.17-1.63 2.71 0 2.54z" fill="#2c1514"/><path d="m2681.4 535.1c18.18-3.8 35.64-1.47 52.56 6.02 1.48.66 2.78-1.53 1.28-2.2-17.61-7.8-35.61-10.23-54.51-6.28-1.61.34-.93 2.79.67 2.46z" fill="#2c1514"/><path d="m2729.4 519.71c13.22 10.52 28.34 20.74 35.87 7.33 4.25-7.55 5.38-17.65 4.58-30.66-.52-8.47.86-17.95.13-24.95-1.09-10.39-4.32-16.09-8.64-22.33-10.01-14.47-30.19-23.81-48.21-16.97-38.31 14.54-5.07 70.59 16.27 87.58z" fill="#ff8e73"/><path d="m2766.3 477.83c4.35 7.24 8.72 14.52 12.02 22.3.23.56.46 1.2.19 1.74-.24.48-.8.7-1.32.85-3.19.91-9.59.99-12.5-.6z" fill="#ff8e73"/><path d="m2726.9 496c.37-6.87-3.83-5.53.8-10.92 2.28-2.66 5.08-2.32 7.82-4.45 8.57 0-.53-16.2 2.46-18.97 3.93-3.64 10.27-3.93 15.3-4.68 3.96-.59 7.93-1.13 11.91-1.6-1.17-2.16-2.5-4.19-3.95-6.28-10.01-14.47-30.18-23.8-48.19-16.97-24.27 9.21-21.82 36.66-11.33 59.86l-2.35 15.98c7.87 1.53 25.64-4.06 30.43-10.19.06-.08-2.98-1.73-2.9-1.78z" fill="#2c1514"/><path d="m2762.2 507.96s.27 2.84 1.13 4.14c1.24 1.83 3.35 3.03 5.77 3.49.35-2.02.6-4.15.74-6.39-3.29-.42-7.64-1.24-7.64-1.24z" fill="#fff"/><path d="m2760.2 480.63c2.63-.06 5.69.2 8.1-1.06 2.23-1.17 2.86-4.52.48-5.98-2.74-1.67-8.52-.69-10.58 1.71-1.95 2.28-1.85 5.41 2 5.33z" fill="#2c1514"/><path d="m2765 483c2.75.44 1.79 4.33 1.06 5.85-.48.99-1.33 2.1-2.57 1.89-1.81-.31-1.55-2.8-1.28-4.11.29-1.46.99-3.91 2.79-3.63z" fill="#2c1514"/><path d="m2714.5 431.64s14.65-7.35 28.03-5.26c11.49 1.8 11.6 9.66 11.6 9.66s7.57 8.88 13.89 14.76c5.23 4.87 5.48 10.18.09 11.41-32.32 7.34-53.61-30.57-53.61-30.57z" fill="#2c1514"/><path d="m2746.8 545.61c-.32-2.88-3-5.35-6.11-5.62-27.26-2.41-51.73 5.06-68.9 21.03-7.67 7.14-13.46 15.6-17.26 25.01-7.64-5.52-18.61-6.53-30.12-6.63-18.54-.48-51.48-1.79-68.76-2.16-26.92-.59-51.54 4.47-53.38 34.13-2.66 42.79-2.96 85.86-4.67 128.42-.62 15.46-2.63 31.81.09 47.15 5.44 30.67 35.86 38.89 62.97 39.95 17.74.69 19.05.5 36.78-.3 14.19-.64 31.13.16 44.06-6.69 19.15-10.14 20.76-30.95 20.89-51.73.23-1.54.42-3.1.54-4.67.85-10.28 1.37-20.58 1.69-30.88.06-.23.11-.46.17-.69.09-.34.03-.62-.12-.84.49-17.05.45-34.12.43-51.17-.02-10.2.74-21.01 1.27-31.91.78-16.22 1.04-32.63-2.56-47.47-.23-.96-.53-1.84-.82-2.71 3.09-11.05 9.04-20.89 17.62-28.87 15.23-14.17 36.96-20.79 61.18-18.65 3.12.27 5.33-1.79 5.01-4.7z" fill="#ffb0b0"/><path d="m2608.9 780.22h-25.53c-4.27 0-7.68-3.58-7.46-7.85l1.27-25.16c.2-3.98 3.48-7.1 7.46-7.1h25.53c4.27 0 7.68 3.58 7.46 7.85l-1.27 25.16c-.2 3.98-3.48 7.1-7.46 7.1z" fill="#fff"/><path d="m2640 759.2h-15.83c-1.39 0-1.39 2.16 0 2.16h15.83c1.39 0 1.39-2.16 0-2.16z" fill="#fff"/><path d="m2647.2 746.16h-23.03c-1.39 0-1.39 2.16 0 2.16h23.03c1.39 0 1.39-2.16 0-2.16z" fill="#fff"/><path d="m2554.1 717h108.32c1.64 0 1.64-2.54 0-2.54h-108.32c-1.64 0-1.64 2.54 0 2.54z" fill="#2c1514"/><path d="m2529.2 694.77c-.95-.37-1.74-1.02-2.17-2.08-.41-1.02-.45-2.16-.47-3.26-.1-5.72.07-11.13.7-18.06 0 0 5.73-.41 9.27-1.91 3.53-1.51 6.87-2.96 6.87-2.96-.18 3.99-.87 13.03-1.05 17.01-.13 2.97-.3 6.07-1.64 8.51-.95 1.74-3.46 2.32-5.08 2.7-1.58.37-4.38.85-6.43.05z" fill="#2c1514"/><path d="m2510.5 673c-.25 4.02-.53 8.44-.66 10.78-.13 2.95-.3 6.02-1.68 8.29-.97 1.6-3.56 1.83-5.24 1.98-.99.08-2.42.15-3.86-.08.18-6.94.36-13.88.58-20.82 2.29.18 4.55-.08 6.91-.36 1.33.1 2.66.18 3.95.21z" fill="#2c1514"/><path d="m2569.8 825.21c-12.9-2.95-14.23-18.73-14.53-29.64-.56-20.03-.91-40.03-.67-60.07.47-39.58 1.11-79.62 4.24-119.11.67-8.45 1.04-18.61 5.53-26.07 4.56-7.59 13.75-8.54 21.66-10.2 1.6-.34.92-2.79-.68-2.45-6.44 1.35-13.83 2.18-19.09 6.51-5.02 4.13-6.94 10.7-8.09 16.85-3.18 16.89-2.78 34.42-3.51 51.53-2.06 48.2-3.51 96.37-1.9 144.61.39 11.74 2.86 27.4 16.36 30.49 1.6.37 2.28-2.08.68-2.45z" fill="#2c1514"/><path d="m2654.3 587.29c3.54 2.87 6.2 6.5 7.74 10.8.55 1.53 3.01.87 2.45-.68-1.69-4.7-4.5-8.77-8.39-11.92-1.27-1.02-3.08.77-1.8 1.8z" fill="#2c1514"/><path d="m2702.1 1570.3h124.83c1.64 0 1.64-2.54 0-2.54h-124.83c-1.63-.01-1.64 2.54 0 2.54z" fill="#8f5957"/><path d="m2701.5 1544.7c16.31 2.28 28.44 9.45 35.27 24.79.66 1.49 2.86.2 2.2-1.28-7.09-15.92-19.8-23.58-36.79-25.96-1.61-.23-2.3 2.22-.68 2.45z" fill="#8f5957"/><path d="m2724.2 490.1c.63 6.29 4.99 11 9.73 10.53 4.75-.47 8.09-5.96 7.46-12.24-.63-6.29-4.99-11-9.73-10.53s-8.08 5.95-7.46 12.24z" fill="#ff8e73"/><path d="m2733.4 481.73c-5.73-.05-5.76 7.61-3.45 11.17.89 1.37 3.09.1 2.2-1.28-1.19-1.83-2.31-7.38 1.26-7.35 1.63.01 1.63-2.53-.01-2.54z" fill="#2c1514"/><path d="m2700.6 1530.1c-2.09 15.63-2.43 31.3-1 47 .15 1.62 2.69 1.63 2.54 0-1.43-15.7-1.1-31.38 1-47 .22-1.61-2.33-1.6-2.54 0z" fill="#8f5957"/><path d="m2500.3 675.05c21.13-.8 49.84 1.61 56.4-24.24.4-1.59-2.05-2.26-2.45-.68-6.2 24.43-34.11 21.63-53.95 22.38-1.63.06-1.64 2.6 0 2.54z" fill="#2c1514"/><path d="m2695.5 474.26s31.66-6.42 72.48-23.46c0 0-9.87-37.94-46.1-26.61-40.74 12.75-26.38 50.07-26.38 50.07z" fill="#9eaed6"/><path d="m2693.9 468.1c-.64-3.38-1.12-7.91-.61-12.84 2.87-.23 6.97.38 9.38 4.83 2.42 4.53-3.71 6.87-8.77 8.01z" fill="#2c1514"/><path d="m2768 450.81s31.21-11.39 34.07-12.49c3.19-1.23 2-6.55-7.16-4.74-15.99 3.15-48.2 15.87-48.2 15.87z" fill="#9eaed6"/><path d="m3602.6 1019c-1.19-21.41-16.08-42.7-40.27-33.6-7.43 2.79-13.69 7.99-19.46 13.45-55.33 52.37-89.3 135.88-87.2 211.77.24 8.58 1.18 17.74 6.62 24.37 7.61 9.27 22.02 10.42 33.04 5.69s19.34-14.03 26.87-23.37c29.35-36.43 52.37-78.13 66.66-122.72 4.66-14.57 15.21-48.96 13.74-75.59z" fill="#557d62"/><path d="m3444.2 967.27c-.84-2.62-1.71-5.23-2.62-7.82-5.02-14.35-11.28-28.63-21.57-39.83-5.53-6.02-12.73-11.25-20.91-11.55-13.03-.46-23.29 11.78-26.97 24.28-18.16 61.6-2.64 135.02 18.02 193.85 3.75 10.69 8.06 21.47 15.5 30.02 3.15 3.62 6.96 6.86 11.54 8.29 8.76 2.73 18.51-1.96 24.25-9.12s8.27-16.32 10.25-25.28c11.91-53.67 9.26-110.49-7.49-162.84z" fill="#557d62"/><path d="m3393.5 909.65c22.19 108.5 37.62 218.39 45.37 328.87 2.18 31.03 3.74 62.1 4.7 93.19.05 1.63 2.59 1.64 2.54 0-3.43-110.51-14.62-220.73-32.86-329.77-5.2-31.09-10.99-62.08-17.3-92.97-.33-1.6-2.78-.92-2.45.68z" fill="#2c1514"/><path d="m3408.7 1260.3c-11.9-37.21-30.18-72.38-53.47-103.77-8.07-10.88-16.97-21.52-28.54-28.57-26.7-16.28-63.91-2.49-71.6 28.33-6.52 26.13 6.02 55.27 16.86 78.51 12.01 25.78 27.99 49.72 47.17 70.72 16.92 18.52 39.66 44.21 66.04 45.75 15.67.91 29.29-9.6 33.26-24.65 3.02-11.44 1.14-23.57-1.36-35.13-2.29-10.53-5.08-20.93-8.36-31.19z" fill="#557d62"/><path d="m3415.2 1519.7c12.63-145.77 51.04-289.24 114.01-421.37 17.78-37.32 37.53-73.67 59.09-108.94.86-1.4-1.34-2.68-2.19-1.28-76.91 125.8-130.01 265.72-157.02 410.63-7.46 40.02-12.91 80.4-16.42 120.96-.16 1.63 2.39 1.62 2.53 0z" fill="#2c1514"/><path d="m3278.3 1127.5c54.88 61.62 98.55 133.05 128.21 210.07 8.27 21.48 15.43 43.37 21.51 65.56.43 1.58 2.89.91 2.45-.68-21.92-79.91-58.23-155.68-106.88-222.76-13.58-18.72-28.12-36.72-43.49-53.99-1.09-1.22-2.88.58-1.8 1.8z" fill="#2c1514"/><path d="m3619.2 1288.6c-2.96-23.01-23.27-29.4-43.87-25.66-38.7 7.03-104.22 50.46-88.71 98.02 10.07 30.89 55.7 7.13 73.01-2.33 14.61-7.98 28.41-17.82 40.47-29.31 11.06-10.53 21.17-24.6 19.1-40.72z" fill="#557d62"/><path d="m3424.4 1441.4c45.03-72 112.32-126.25 190.86-157.96 1.5-.6.84-3.06-.68-2.45-61.32 24.76-116.74 63.02-159.44 113.74-12.06 14.32-23.02 29.51-32.94 45.38-.87 1.4 1.33 2.68 2.2 1.29z" fill="#2c1514"/><path d="m3485 1457.5h-131.96c-4.12 0-7.43 3.21-7.27 7.07.74 16.44 2.13 32.86 4.68 49.18 4.59 29.19 12.06 61.48 30.38 86.05 4.61 6.18 10.29 12.1 17 16.43 1.2.78 2.62 1.15 4.05 1.15h40.69c1.45 0 2.89-.38 4.1-1.18 30.39-20.15 37.73-77.84 41.68-106.16.31-2.04.56-3.93.8-5.69.36-2.7 1.9-23.05 3.11-39.56.26-3.96-3.05-7.29-7.26-7.29z" fill="#f77c48"/><path d="m3490.2 1459.6c-3.33 10.58-6.41 21.23-9.61 31.78-6.58 21.58-13.85 43.17-24.84 62.97-10.83 19.47-24.91 37.12-41.41 52.09-4.22 3.81-8.57 7.47-13.09 10.91h41.25c1.45 0 2.89-.38 4.1-1.18 30.4-20.14 37.73-77.85 41.67-106.17.33-2.03.58-3.91.81-5.69.36-2.69 1.88-23.06 3.1-39.56.16-1.99-.63-3.82-1.98-5.15z" fill="#2c1514"/><path d="m3234.8 289.21 288.97-23v-157.35l-291.35 28.91c-6.83.68-12.04 6.43-12.04 13.29v124.82c0 7.8 6.65 13.94 14.42 13.33z" fill="#9eaed6"/><path d="m3256.8 196.39c0-3.28.31-6.27.94-8.98s1.58-5.06 2.85-7.06c1.28-2 2.9-3.59 4.87-4.76 1.97-1.18 4.3-1.87 6.99-2.09 1.58-.13 3.1-.05 4.59.23 1.48.28 2.79.7 3.93 1.26 1.13.56 2.05 1.25 2.75 2.07.69.82 1.04 1.74 1.04 2.76 0 .79-.23 1.5-.69 2.13-.47.63-1.07.98-1.81 1.04-.51.04-.92-.05-1.22-.28s-.73-.55-1.29-.96c-2.04-1.59-4.36-2.28-6.96-2.07-1.95.16-3.59.64-4.93 1.46-1.35.82-2.42 1.93-3.23 3.36-.82 1.42-1.39 3.1-1.74 5.02s-.52 4.07-.52 6.45v18.16c0 2.37.17 4.5.52 6.36.35 1.87.92 3.45 1.74 4.74.81 1.29 1.89 2.24 3.23 2.84s2.99.82 4.93.67c2.6-.21 4.92-1.27 6.96-3.19.6-.5 1.04-.89 1.32-1.17s.67-.44 1.18-.47c.74-.06 1.34.19 1.81.75.46.56.69 1.23.69 2.02 0 1.02-.35 1.99-1.04 2.92-.69.94-1.61 1.77-2.75 2.51s-2.45 1.37-3.93 1.88c-1.49.51-3.01.84-4.59.96-2.69.22-5.02-.11-6.99-.97s-3.59-2.18-4.87-3.98c-1.27-1.79-2.22-3.99-2.85-6.6-.63-2.6-.94-5.55-.94-8.83v-18.18z" fill="#fff"/><path d="m3303.1 232.39c-2.13.17-4.01-.06-5.63-.7-1.62-.63-2.98-1.59-4.07-2.86s-1.91-2.8-2.47-4.6c-.56-1.79-.83-3.76-.83-5.91v-14.17c0-2.09.28-4.08.83-5.96.56-1.88 1.38-3.55 2.47-4.99 1.09-1.45 2.45-2.63 4.07-3.55 1.63-.92 3.5-1.47 5.63-1.64 2.14-.17 4.01.08 5.64.74 1.62.66 2.97 1.63 4.07 2.9 1.09 1.27 1.91 2.8 2.47 4.59.56 1.8.83 3.74.83 5.83v14.17c0 2.15-.28 4.17-.83 6.05-.56 1.88-1.38 3.55-2.47 4.99s-2.45 2.61-4.07 3.51c-1.63.89-3.51 1.43-5.64 1.6zm0-6.11c2.51-.2 4.39-1.15 5.67-2.83 1.27-1.68 1.91-3.94 1.91-6.77v-14.25c0-2.77-.64-4.9-1.91-6.38-1.28-1.48-3.17-2.12-5.67-1.92s-4.39 1.14-5.67 2.83c-1.27 1.69-1.91 3.92-1.91 6.69v14.25c0 2.83.64 4.99 1.91 6.46 1.28 1.48 3.17 2.12 5.67 1.92z" fill="#fff"/><path d="m3343.7 188.32c0-.9.22-1.68.66-2.34s1.13-1.02 2.05-1.1c.93-.07 1.61.18 2.05.77s.66 1.33.66 2.24v29.69c0 1.19.03 2.09.1 2.71s.17 1.12.31 1.5.28.67.42.86.28.44.42.77c.09.16.2.38.31.65.11.28.17.61.17 1 0 .79-.24 1.51-.73 2.14s-1.1.98-1.85 1.04c-.65.05-1.22-.13-1.7-.54s-.92-1-1.29-1.76c-1.53 1.2-3.15 2.1-4.87 2.72s-3.38.99-5.01 1.12c-3.71.3-6.48-.95-8.31-3.75-1.83-2.79-2.75-6.59-2.75-11.4v-24.78c0-.9.23-1.69.7-2.35.46-.66 1.13-1.02 2.02-1.09.88-.07 1.55.18 2.02.77.46.59.69 1.33.69 2.23v24.78c0 3.22.54 5.67 1.63 7.33 1.09 1.67 2.68 2.42 4.77 2.25 1.34-.11 2.66-.45 3.96-1.04 1.3-.58 2.53-1.38 3.69-2.37-.05-.45-.08-.87-.1-1.27-.03-.39-.04-.76-.04-1.1v-29.68z" fill="#fff"/><path d="m3365.4 224.08c0 .96-.26 1.78-.76 2.44-.52.66-1.16 1.03-1.95 1.09s-1.44-.2-1.95-.78-.76-1.35-.76-2.31v-28.68c0-1.41-.08-2.55-.24-3.42-.16-.86-.45-1.68-.87-2.43-.14-.27-.26-.52-.34-.74-.09-.22-.14-.53-.14-.92 0-.9.25-1.65.76-2.23s1.09-.89 1.74-.94c.55-.04 1.07.13 1.53.51.46.39.88.9 1.25 1.55 1.48-1.25 3.11-2.27 4.87-3.06s3.32-1.24 4.66-1.35c1.39-.11 2.34.13 2.85.71s.76 1.32.76 2.23c0 1.07-.27 1.95-.8 2.61-.54.67-1.17 1-1.91 1-1.44.06-2.84.27-4.21.63s-2.91 1.41-4.63 3.13c.05.45.08.86.11 1.22.02.37.03.72.03 1.06z" fill="#fff"/><path d="m3389.4 168.11c0 1.13-.32 2.12-.97 2.96-.65.85-1.44 1.3-2.37 1.38s-1.71-.26-2.36-1-.98-1.67-.98-2.81c0-1.13.33-2.12.98-2.96s1.44-1.3 2.36-1.38c.93-.07 1.71.26 2.37 1 .64.74.97 1.68.97 2.81zm-.63 54.09c0 .96-.25 1.78-.76 2.44s-1.16 1.03-1.95 1.09-1.44-.2-1.95-.78-.77-1.35-.77-2.31v-37.42c0-.9.26-1.7.77-2.39s1.16-1.07 1.95-1.13 1.44.21 1.95.82.76 1.36.76 2.27z" fill="#fff"/><path d="m3410.8 217.9c1.49-.12 2.76-.44 3.83-.99 1.07-.54 2.2-1.19 3.41-1.97.09-.06.22-.13.38-.2s.36-.11.59-.13c.7-.06 1.28.2 1.74.75.46.56.69 1.23.69 2.02 0 1.02-.4 1.92-1.21 2.69s-1.81 1.42-2.99 1.94-2.42.93-3.72 1.23-2.41.49-3.34.57c-1.95.16-3.7-.06-5.25-.64-1.56-.58-2.85-1.47-3.9-2.66-1.04-1.19-1.84-2.63-2.4-4.31-.55-1.68-.83-3.51-.83-5.49v-15.87c0-2.04.28-3.95.83-5.75.56-1.8 1.37-3.37 2.43-4.73 1.07-1.36 2.39-2.47 3.96-3.33 1.58-.86 3.41-1.38 5.49-1.54 3.89-.31 6.79.7 8.69 3.04s2.85 5.62 2.85 9.87c0 3.9-.92 7.05-2.75 9.43s-4.83 3.74-9.01 4.07c-1.07.09-2.21.12-3.44.11-1.23-.02-2.44-.12-3.65-.3v5c0 2.38.64 4.22 1.91 5.53 1.3 1.31 3.18 1.86 5.69 1.66zm5.91-25.08c0-2.77-.55-4.72-1.64-5.85s-2.65-1.61-4.7-1.45c-2.27.18-4.04 1.02-5.28 2.5-1.25 1.49-1.88 3.42-1.88 5.79v6.45c1.3.12 2.67.17 4.1.14 1.44-.03 2.51-.07 3.2-.13 1.3-.11 2.35-.39 3.17-.85.81-.46 1.45-1.03 1.91-1.72s.77-1.46.9-2.32c.15-.86.22-1.71.22-2.56z" fill="#fff"/><path d="m3435.7 218.45c0 .96-.25 1.77-.76 2.44-.51.66-1.16 1.03-1.95 1.09s-1.44-.2-1.95-.78-.77-1.35-.77-2.31v-28.68c0-1.41-.08-2.55-.24-3.42-.16-.86-.45-1.68-.87-2.43-.14-.27-.26-.52-.35-.74s-.14-.53-.14-.92c0-.9.25-1.65.76-2.23s1.09-.89 1.74-.94c.56-.05 1.07.13 1.53.51.46.39.88.91 1.25 1.55 1.48-1.25 3.11-2.27 4.87-3.06s3.32-1.24 4.66-1.35c1.39-.11 2.34.13 2.85.71s.76 1.32.76 2.23c0 1.08-.27 1.95-.8 2.61-.53.67-1.17 1-1.91 1-1.44.06-2.84.27-4.21.63s-2.91 1.41-4.62 3.13c.05.45.08.85.1 1.22s.03.72.03 1.06v28.68z" fill="#fff"/><path d="m3452 188.38c0-3.67.95-6.71 2.85-9.09 1.9-2.39 4.7-3.73 8.41-4.03.88-.07 1.87-.06 2.96.02s2.1.27 3.03.56c.92.3 1.7.71 2.33 1.25s.94 1.27.94 2.18c0 .79-.23 1.52-.69 2.18-.47.66-1.07 1.02-1.81 1.08-.37.03-.79-.08-1.25-.32-.74-.39-1.49-.7-2.26-.92s-1.77-.28-3.03-.18c-4.13.33-6.19 2.48-6.19 6.43 0 1.3.24 2.33.73 3.08s1.33 1.45 2.54 2.09 2.55 1.18 4.04 1.63c1.48.45 2.89 1.11 4.21 2 1.32.88 2.43 2.08 3.34 3.59.9 1.51 1.36 3.65 1.36 6.42 0 3.85-.98 6.95-2.92 9.31-1.95 2.36-4.87 3.7-8.76 4.01-.88.07-1.91.08-3.09.04-1.18-.05-2.29-.21-3.34-.49-1.04-.29-1.94-.72-2.68-1.31s-1.11-1.37-1.11-2.33c0-.73.22-1.44.66-2.13.44-.68 1.08-1.06 1.91-1.13.23-.02.38-.02.45.01.07.02.15.06.24.11.97.37 2.02.73 3.16 1.06 1.14.34 2.4.44 3.79.33 1.95-.16 3.5-.78 4.66-1.86s1.74-2.73 1.74-4.93c0-1.53-.26-2.65-.77-3.37s-1.11-1.28-1.81-1.68c-1.11-.65-2.45-1.19-4-1.63s-3.03-1.08-4.45-1.93c-1.41-.85-2.63-2.02-3.65-3.53-1.04-1.52-1.54-3.69-1.54-6.52z" fill="#fff"/><path d="m3523.8 860.35h-9.32v-743.34c0-2.57 2.09-4.66 4.66-4.66s4.66 2.09 4.66 4.66z" fill="#ffead1"/><path d="m3500.1 147.27 17.96-1.43c3.21-.26 5.69-2.94 5.69-6.16v-5.03c0-3.65-3.14-6.5-6.77-6.15l-17.96 1.73c-3.17.31-5.59 2.97-5.59 6.15v4.72c-.01 3.61 3.07 6.45 6.67 6.17z" fill="#fff"/><path d="m3500.1 235.45 17.96-1.43c3.21-.26 5.69-2.94 5.69-6.16v-5.03c0-3.65-3.14-6.5-6.77-6.15l-17.96 1.73c-3.17.31-5.59 2.97-5.59 6.15v4.72c-.01 3.62 3.07 6.46 6.67 6.17z" fill="#fff"/></g></svg>