<svg height="511.53mm" viewBox="0 0 888.96 511.53" width="888.96mm" xmlns="http://www.w3.org/2000/svg"><g transform="matrix(.035278 0 0 -.035278 -83.275 595.99)"><path d="m9008.5 15850c-86.26-131.1-173.91-261.2-262.98-390.2-14.37-21.1-28.75-42.1-43.47-62.8-170.41-245.8-346.07-487.4-526.66-725.5-16.82-22.4-33.66-44.8-51.19-66.9-193.55-253.2-393.06-502.5-597.83-746.9 93.97 222.7 192.85 443.6 298.39 663.8 13.68 28.7 27.7 57.8 41.38 86.6 10.86 22.8 21.74 45.2 32.61 68 139.55 291 279.1 582.4 418.65 873.4 9.82 20 19.29 40.3 29.11 60.3 136.74 285.4 273.49 570.9 410.23 856.3 14.38 29.4-16.12 68.3-48.03 48-377.99-239.8-731.42-516.1-1054-824.3-17.88-17.2-35.77-34.4-53.3-51.9-286.47-279.8-548.04-585.2-780.15-912.4-15.79-22.1-31.57-44.5-47.34-67.3-64.17-92.9-125.88-187.2-185.14-283.6-152.87-247.9-289.97-506.4-411.64-772.5-13.67-29.8-27-59.6-39.97-89.4-73.63-166.2-141.65-335.2-203.72-506.7 19.64 157.1 38.23 314.5 55.75 471.6 2.81 26.7 5.96 53 8.77 79.3 45.23 416.5 82.74 833.4 107.99 1251 1.76 23.9 3.16 47.4 4.21 70.9 20.69 353.4 32.26 706.8 32.96 1060.6.35 23.5.35 47 .35 70.2-.35 282.6-8.06 565.5-23.84 848.5-1.75 31.5-49.79 51.9-65.57 17.9-124.47-272.1-234.57-550.5-329.59-833.5-8.07-22.8-15.43-45.6-22.79-68.4-126.93-387.8-226.16-784.3-295.94-1186.5-4.21-23.8-8.42-47.7-12.27-71.5-42.42-256.3-73.28-514.8-91.87-774.6-.35-1.7-.35-3.5-.35-5.2-93.61 240.8-209.33 473-346.42 692.8-12.63 20.7-25.6 41.4-39.62 61.7-168.66 261.6-368.52 504.9-596.43 722.3-24.55 23.2-69.78.4-58.55-34.3 80.29-250 157.43-501.1 230.71-753.2 6.31-21.4 12.62-42.8 18.58-64.2 103.44-356.2 199.52-714.2 288.58-1073.6 5.6-23.1 11.56-46.6 17.17-69.8 70.83-287.8 137.1-576.8 198.47-866.7 5.25-23.5 10.16-46.7 14.72-70.2 31.21-146.2 60.66-292.7 89.41-439.7 5.26-27.3 10.52-54.7 15.78-82.4 51.89-271 99.93-543.1 144.11-815.9 3.86-23.1 7.36-46.6 11.22-70.1 37.51-236 72.23-473 104.14-710-1.41-22.8-2.46-45.6-3.86-68.4-95.72 250-216.69 490.5-363.95 714.2-8.42 13-17.19 26-26.3 39-16.13 24.1-32.96 48-50.49 71.8-144.46 202-311.01 386.4-497.9 547-19.29 16.8-38.57 33-58.21 48.8-186.18 152.1-392 281.2-615.01 380.7-32.95 14.8-62.41-15-48.03-48 88.01-201.6 180.23-401.5 276.65-598.9 10.87-22.1 21.38-43.8 32.25-65.6 82.76-167.5 168.31-333.4 257.02-497.5 11.92-21.7 23.49-43.5 35.77-65.2 81.69-149.7 165.84-297.7 253.15-444.3 60.66-102.3 122.72-205.8 188.29-307.1 14.02-22.1 28.4-44.2 43.48-66.3 158.48-238.1 338-461.4 566.27-630.4 4.21-100 9.46-200.2 16.48-300.2 2.45-33.6 42.42-42.4 61.01-25.2 30.16-17.2 60.3-34.7 90.47-51.9 16.12-15.1 43.82-13 55.04 7.4 234.57 416.2 437.24 846.7 619.92 1286.1 8.77 21 17.53 42.4 26.3 63.4 137.09 333.9 262.97 672.2 383.24 1013 8.06 22.1 15.77 44.2 23.49 66.6 89.76 255.7 176.37 512.7 262.63 769.7 8.06 25.2 16.48 50.1 24.89 75.4 9.81 29.4 19.63 58.5 29.45 88 91.52 82.7 181.98 166.9 270.69 252.1 32.26 31.5 64.52 62.7 96.42 94 299.09 295.9 579.95 610.1 825.04 946.3 20.34 26.7 39.62 53.7 58.21 80.7 183.73 258.7 345.72 530.5 478.96 816.2 10.17 21.8 19.99 43.5 29.8 65.2 92.22 205.2 169.01 418 228.62 638.2 7.01 26.6 14.02 53.3 20.68 80.3 39.97 160.6 70.48 325.4 90.47 494.4 4.2 37.2-48.39 43.8-65.57 17.5" fill="#558567"/><g fill="#3d6655"><path d="m6143.4 16010c0-23.2 0-46.7-.35-70.2-106.6 8.4-212.83 16.9-319.42 24.9-40.68 3.2-81.35 6.7-122.02 9.8 7.36 22.8 14.72 45.6 22.79 68.4 32.96-2.8 66.26-5.6 99.23-8.1 106.59-8.4 213.18-16.4 319.77-24.8"/><path d="m8346.5 15610c-9.82-20-19.29-40.3-29.11-60.3-200.91 42.1-408.48-22.1-605.9 43.5-37.86 12.6-74.32 28.1-110.09 44.9 17.53 17.5 35.42 34.7 53.3 51.9 65.21-28.1 132.53-49.8 204.07-57.2 172.16-17.9 325.38 8.4 487.73-22.8"/><path d="m8983.6 15339c-6.66-27-13.67-53.7-20.68-80.3-16.49 9.5-32.97 18.2-49.79 27-68.37 36.1-138.85 75-211.08 112.2 14.72 20.7 29.1 41.7 43.47 62.8 80.3-37.6 159.89-78.2 238.08-121.7"/><path d="m4954.8 14630c-148.32-22.4-296.64-45.2-445.31-67.7-5.96 21.4-12.27 42.8-18.58 64.2 141.66 21 282.96 42.8 424.27 65.2 14.02-20.3 26.99-41 39.62-61.7"/><path d="m6110.1 14879c-1.05-23.5-2.45-47-4.21-70.9-124.12 19.7-249.29 23.9-375.88-4.9-114.3-25.9-224.75-57.8-336.6-86.9 3.85 23.8 8.06 47.7 12.27 71.5 132.89 37.9 264.03 82 400.42 99.6 102.39 13.3 203.72 7.3 304-8.4"/><path d="m7898.7 14677c-10.87-22.8-21.75-45.2-32.61-68-363.61 5.6-732.83-4.6-1092.2 50.1 15.77 22.8 31.55 45.2 47.34 67.3 354.83-49.8 718.09-46.2 1077.5-49.4"/><path d="m8734.3 14620c-9.81-21.7-19.63-43.4-29.8-65.2-4.91 1.4-9.47 2.5-14.38 3.5-183.73 41.4-375.88 45.3-565.92 46.7 17.53 22.1 34.37 44.5 51.19 66.9 187.24-3.1 376.93-7 558.91-51.9"/><path d="m5997.9 13557c-2.81-26.3-5.96-52.6-8.77-79.3-20.33-4.2-41.03-8-62.06-11.5-199.16-31.9-407.09 4.5-608-4.2-167.95-7.8-335.9-23.9-503.86-43.9-5.61 23.2-11.57 46.7-17.17 69.8 208.27 25.6 416.9 44.5 625.17 47.3 199.16 2.8 382.19-17.5 574.69 21.8"/><path d="m8225.5 13739c-18.59-27-37.87-54-58.21-80.7-165.84-39.3-331-87.6-489.13-108.7-395.16-52.2-778.76 37.5-1172.5 28.8-129.74-2.8-248.25-34.4-368.52-64.9 12.97 29.8 26.3 59.6 39.97 89.4 150.42 35.1 299.09 49.8 457.58 44.2 227.91-8.4 454.06-45.2 682.33-48.4 235.27-3.2 464.58 31.6 692.15 88.7 71.17 17.9 143.75 35.8 216.34 51.6"/><path d="m7342.3 12712c-31.9-31.3-64.16-62.5-96.42-94-89.76-21.1-179.17-41.4-270.34-54.4-197.75-28-380.08 1.8-575.38 26.3-217.05 27-442.85 37.2-661.3 29.8-214.24-7.3-412.7-69.4-619.57-117.8-30.15-7-60.66-13.7-90.81-20-4.56 23.5-9.47 46.7-14.72 70.2 58.55 11.2 116.76 24.5 174.96 39.2 337.66 85.9 644.81 107 992.99 88 195.3-10.8 389.9-58.9 584.86-61 188.64-2.1 371.67 47.7 554 89.1 7.36 1.7 14.37 3.1 21.73 4.6"/><path d="m4450.6 11667c-96.43-38.6-184.44-118.5-266.13-177.4-48.74-35.1-97.47-70.5-146.22-105.6-10.87 21.8-21.38 43.5-32.25 65.6 122.37 95.4 249.64 203 386.39 266.2 19.64-15.8 38.92-32 58.21-48.8"/><path d="m6945.7 12278c-8.41-25.3-16.83-50.2-24.89-75.4-140.96 41-282.27 52.9-446.72 24.2-190.39-33.3-374.47-96.8-566.26-124.8-186.89-27.4-378.34-11.6-564.17-47.7-87.31-17.2-152.52-51.6-210.03-94.4-5.26 27.7-10.52 55.1-15.78 82.4 62.06 37.6 129.73 63.9 207.23 79.6 171.45 34.8 347.47 22.1 520.68 42.1 227.92 26.3 444.61 107.7 671.12 140.6 146.91 21.1 289.62 16.1 428.82-26.6"/><path d="m4999 11048c-235.63-24.6-461.79-70.5-666.55-225.9-.35-.3-1.06-.7-1.4-1-12.28 21.7-23.85 43.5-35.77 65.2 32.61 23.2 65.56 45.9 98.88 68.4 164.09 110.4 357.29 147.3 554.35 165.1 17.53-23.8 34.36-47.7 50.49-71.8"/><path d="m6658.2 11432c-7.72-22.4-15.43-44.5-23.49-66.6-94.67 8.4-187.59 6.3-277.35-10.8-313.12-60.7-589.42-221.7-910.25-264.1-52.94-7-105.53-12.6-158.13-17.5-3.86 23.5-7.36 47-11.22 70.1 35.06 2.8 69.77 6 104.14 9.8 213.88 24.6 407.43 80 607.65 156.1 154.63 58.9 311.35 119.5 477.55 131.8 64.87 4.9 128.34.7 191.1-8.8"/><path d="m6251.4 10353c-8.77-21-17.53-42.4-26.3-63.4-242.64 11.6-483.88 1-720.55-74.3-232.12-74-454.77-151.2-688.64-211.5-15.08 22.1-29.46 44.2-43.48 66.3 219.84 58.2 436.19 117.1 654.28 192.8 272.44 94.7 547.68 104.9 824.69 90.1"/></g><path d="m8040 9571-4.56-23.1-15.07-75-561.37-2823.7h-2822.6l133.24 2469.5 3.85 67.7 10.17 189 1.75 35 8.76 160.6h3245.8" fill="#946355"/><path d="m5740.9 9372.2c-319.08 8.8-638.15 9.8-957.23 3.2l1.75 35c318.38 6.7 637.1 5.7 955.48-3.1 22.43-.7 22.43-35.8 0-35.1" fill="#fff"/><path d="m27560 2555.6h-25199l643.41 827.9 26.65 34.3 593.62 764.1 27 35 671.46 864 27 34.7 564.87 726.9 26.3 33.6 411.99 530.5h19027l351.7-426 29.1-35.4 548.3-664.1 28.4-34.4 734.3-889.2 30.5-37.1 951.6-1152.9 29.1-35.1 476.2-576.8" fill="#fad3b1"/><g fill="#fff"><path d="m24761 5945.2c-774.9.3-1549.8 16.8-2324.4 39.3-1551.9 44.8-3103.4 112.2-4656 112.9-1561.1.7-3121.4-65.6-4680.6-138.5-2725.5-127.3-5459.7-273.2-8185.5-116.4l26.3 33.6c1362.9-77.5 2729.7-80.3 4094.7-46.6 3105.9 76.4 6206.6 331.3 9315.3 299.8 2126.2-21.4 4254.2-146.6 6381.2-148.7l29.1-35.4"/><path d="m25338 5246.7c-1070.4-28.4-2141.3-54-3212.1-76.4-3241.6-67.7-6483.9-107.3-9726.2-118.9-2692.5-9.8-5384.7 0-8076.8 29.5l27 34.7c1253.2-13.7 2506.7-23.1 3759.8-28.1 3242.3-13.3 6484.6 1.4 9726.9 44.6 2491.6 32.9 4982.5 82.7 7473 149z"/><path d="m26103 4320.4c-1214.3 71.5-2430.3 115.7-3646.3 139.9-3386.4 66.9-6773.5-21.4-10159-116.1-2890.3-80.6-5781.6-165.5-8673.3-162.3l27 35c1395.2-1.4 2790.3 17.6 4184.8 47 3388.9 71.2 6776 201.6 10166 242.3 2690.4 32.6 5383.9 7 8070.5-148.7l30.5-37.1"/><path d="m27083 3132.4c-1686.2-11.2-3372.4-16.5-5058.6-15.1-3385 1.8-6770 28.1-10155 78.6-2955.8 44.2-5911.3 106.9-8866 187.6l26.65 34.3c1453.7-39.6 2907.4-75 4361.5-105.9 3384-71.8 6769-119.5 10154-143 3169.4-21.8 6338.7-22.1 9508.1-1.4l29.1-35.1"/></g><path d="m7774.8 4811.5 695.18 525.5-530.44 149.5-358.55-195z" fill="#de684e"/><path d="m8422.7 5532.6-30.81-219.7-638.07-461.2-13.89 174.9-3.04 272.3z" fill="#fff"/><path d="m8473.4 5576.3-1784.8 471.1-888.32-470.9 1939.7-549.9z" fill="#de684e"/><path d="m5800.2 5576.5 33.24-216.9 1941.3-548.1-36.55 369.4-1938 395.6" fill="#de684e"/><path d="m6466.3 5813.9 267.36 147.8 129.3-29.4-247.63-144.7z" fill="#fff"/><path d="m7707.4 5037.5c-1.41 0-2.83.2-4.26.6l-1855.8 512.5c-8.47 2.4-13.45 11.2-11.1 19.6 2.33 8.5 11.1 13.3 19.59 11.2l1855.8-512.6c8.48-2.3 13.46-11.1 11.11-19.6-1.94-7-8.36-11.7-15.34-11.7" fill="#bf4c33"/><path d="m6179 7876.5s-241.22-1796.3-241.97-1802.8c-4.53-39.1-15.62-96.9-57.33-108.1-33.86-9.1-81.63-3.8-107.99 33.4-36.52 51.6-14.12 144.8-9.12 203.5 7.09 83.2 14.18 166.4 21.26 249.5 20.67 242.6 82.92 1343.3 82.92 1343.3z" fill="#6b3939"/><path d="m22331 7876.5s-241.2-1796.3-242-1802.8c-4.5-39.1-15.6-96.9-57.3-108.1-33.8-9.1-81.6-3.8-108 33.4-36.5 51.6-14.1 144.8-9.1 203.5 7.1 83.2 14.2 166.4 21.3 249.5 20.6 242.6 82.9 1343.3 82.9 1343.3z" fill="#6b3939"/><g fill="#e6d6cf"><path d="m6631.7 11453s275.15 2127.1 588.06 2220.6c312.92 93.5 15038 282.1 15308 0 269.7-282-79.5-2817.5-79.5-2817.5l-40-2035.4-16317-215.4 541.16 2847.7"/><path d="m5601.5 9379.6h17382l-222.3-1883c-6.2-53-51.1-92.9-104.4-92.9h-17104c-61.49 0-109.88 52.5-104.83 113.8l153.2 1862.1"/><path d="m5601.5 9379.6s234.53 2704.5 818.53 2681.1c584-23.3 0-3062.2 0-3062.2z"/><path d="m22117 9379.6s238.7 2754.3 818.6 2681.1c463.1-58.4 0-3062.2 0-3062.2z"/></g><g fill="#4a4747"><path d="m6510.3 9363.7c-8.74 0-15.87 7-15.93 15.8s7.02 16 15.82 16l15653 107h.1c8.8 0 15.9-7.1 15.9-15.9.1-8.7-7-15.9-15.8-16l-15653-106.9h-.11"/><path d="m6340.9 7509.7c-.44 0-.89.1-1.34.1-8.77.7-15.29 8.4-14.54 17.2l338.68 4050c.72 8.7 8.09 15.4 17.19 14.5 8.77-.7 15.29-8.4 14.54-17.2l-338.68-4050c-.69-8.3-7.65-14.6-15.85-14.6"/><path d="m21971 7415.7c-.7 0-1.4.1-2.1.1-8.7 1.2-14.9 9.2-13.8 17.9l518.8 4041c1.2 8.8 9.4 15.1 17.9 13.8 8.7-1.1 14.9-9.1 13.7-17.8l-518.8-4041.1c-1-8-7.9-13.9-15.7-13.9"/><path d="m22839 11073c-13.3 0-29.6-12.9-44.6-35.4-19.1-28.9-33.8-69.5-41.4-114.3-7.7-44.8-7.2-88 1.3-121.5 7.2-28.4 19.7-46.7 33.5-49 14-2.3 31.6 10.8 47.8 35.2 19.1 28.8 33.9 69.4 41.5 114.2s7.1 88-1.4 121.5c-7.2 28.4-19.7 46.7-33.5 49.1-1 .1-2.1.2-3.2.2zm-47.8-352.4c-2.9 0-5.8.2-8.7.7-27.4 4.7-48.4 30.5-59.1 72.6-9.5 37.8-10.2 85.7-1.9 134.8 8.4 49 24.8 94 46.4 126.5 24 36.2 52.3 53.6 79.7 49 27.3-4.7 48.3-30.5 59-72.6 9.6-37.8 10.2-85.7 1.9-134.8-8.4-49-24.8-93.9-46.3-126.5-21.5-32.4-46.4-49.7-71-49.7"/><path d="m6289 11073c-13.28 0-29.66-12.9-44.58-35.4-19.14-28.9-33.87-69.5-41.49-114.3-7.63-44.8-7.13-88 1.38-121.5 7.19-28.4 19.69-46.7 33.47-49 13.71-2.4 31.64 10.7 47.79 35.2 19.15 28.8 33.88 69.4 41.5 114.2s7.13 88-1.39 121.5c-7.18 28.4-19.69 46.7-33.47 49.1-1.04.1-2.13.2-3.21.2zm-47.81-352.4c-2.92 0-5.85.2-8.76.7-27.36 4.7-48.33 30.5-59.02 72.6-9.56 37.8-10.24 85.7-1.88 134.8 8.34 49 24.8 94 46.33 126.5 24.05 36.2 52.33 53.8 79.7 49 27.36-4.7 48.33-30.5 59.02-72.6 9.56-37.8 10.25-85.7 1.88-134.8h.02c-8.36-49-24.81-93.9-46.34-126.5-21.48-32.4-46.37-49.7-70.95-49.7"/><path d="m22030 7939.4h-15653c-8.8 0-15.93 7.2-15.93 16s7.13 15.9 15.93 15.9h15653c8.8 0 16-7.1 16-15.9s-7.2-16-16-16"/><path d="m17364 9470.6c-.6 0-1.3 0-1.8.1-8.8 1-15.1 8.9-14.1 17.6l452.7 4030.2c1 8.7 8.9 14.8 17.6 14 8.8-1 15-8.8 14.1-17.6l-452.7-4030.1c-1-8.2-7.8-14.2-15.8-14.2"/><path d="m11720 9470.6c-.6 0-1.2 0-1.8.1-8.7 1-15 8.9-14 17.6l452.7 4030.2c1 8.7 9 14.8 17.6 14 8.7-1 15-8.8 14.1-17.6l-452.8-4030.1c-.9-8.2-7.8-14.2-15.8-14.2"/></g><path d="m20588 10804c-176 157.1-375.2 280.9-593.6 369.2-231.8 93.6-475.8 156.7-715 227.6-119.5 35.8-239.1 71.2-358.7 106.9-109 32.3-226.8 84.9-339.4 100.3-172.1 23.2-240.5-186.5-285.7-345.4-11.6-41-21.8-78.2-31.9-107.6-104.5-307.5-313.5-564.2-472.3-844.3-87.7-155.4-251.1-355.6-288.3-533.3-11.2-55.1 39.3-101.7 83.5-128.4 142.7-85.5 320.1-138.1 489.1-190 67.3-20.4 133.3-40.7 195-63.1 14.3-5.3 29.1-10.6 43.5-15.8 201.6-72.9 402.5-145.2 602-222.3 46.6-17.9 93.3-36.1 139.5-55.1 160.6-64.1 320.2-132.5 476.9-207.2 52.6-25.2 104.8-50.8 157.8-75.4 28.4-12.9 65.9-37.5 99.6-25.9 57.8 20 85.9 120.9 111.1 169 55.8 107.6 109.4 216.7 160.6 326.4 14 30.2 28.1 60.3 41.4 90.5 14 31.2 28 62.1 41.4 93.3 184.7 423.5 334.5 862.2 449.1 1309.9 2.1 8.4.7 14.7-5.6 20.7" fill="#946355"/><g fill="#fff"><path d="m18823 11351c-87.3-53.2-170.4-112.9-250-177.7-6.7-5.6-7-12.7-3.9-18.6.7-4.6 3.2-8.8 8.1-11.6 41-24.2 74.7-53.3 104.5-90.1 7-8.1 23.1-5.9 27.7 3.5 42.7 91.9 88.7 182 137.8 270.7 8 14.7-8.8 33.3-24.2 23.8"/><path d="m18682 10681c-87.3-53.7-170.7-112.9-250-178.1-6.6-5.6-7-12.7-3.8-18.3.7-4.5 3.1-8.7 8-11.9 41-24.2 74.7-53.3 104.5-89.7 7-8.5 23.1-6.4 27.7 3.5 42.8 91.8 88.7 181.9 137.8 270.3 8.1 15.1-8.8 33.3-24.2 24.2"/><path d="m18518 9874c-87.3-53.3-170.8-112.9-250-177.8-6.7-5.6-7-12.6-3.9-18.6.7-4.5 3.2-8.7 8.1-11.5 41-24.2 74.7-53.3 104.5-90.2 7-8 23.1-5.9 27.7 3.6 42.7 91.8 88.7 181.9 137.8 270.6 8 14.8-8.8 33.3-24.2 23.9"/><path d="m17790 10008c-87.7-53.3-170.8-112.6-250-177.8-6.7-5.6-7.1-12.6-3.9-18.6.7-4.2 2.8-8.4 8.1-11.6 41-24.1 74.3-53.2 104.5-89.7 6.6-8.4 23.1-6.3 27.7 3.5 42.7 91.9 88.3 182 137.4 270.3 8.4 15.1-8.4 33.3-23.8 23.9"/><path d="m19476 10218c-87.3-53.3-170.4-112.6-250-177.8-6.7-5.6-7-12.6-3.9-18.5.7-4.3 3.2-8.5 8.1-11.6 41-24.2 74.7-53.3 104.5-89.8 7-8.4 23.1-6.3 27.7 3.5 42.8 91.5 88.7 181.6 137.8 270.4 8.1 15-8.8 33.3-24.2 23.8"/><path d="m19826 9583.3c-57.5-35.1-113.6-73.3-167.6-113.9-28-20.4-55.4-41.8-82.4-63.9-6.6-5.6-7-12.6-3.8-18.5.3-2.8 1.4-5.3 3.5-7.4 1-1.8 2.4-3.2 4.5-4.2 41.1-24.2 74.7-53.3 104.5-90.1 7-8.1 23.2-6 27.7 3.5 14.1 30.5 28.8 60.6 43.9 90.8 14.7 30.5 30.1 60.6 46.2 90.8 15.5 29.8 31.2 59.6 47.7 89.1 8.1 14.7-8.7 33.3-24.2 23.8"/><path d="m19476 11038c-87.3-53.7-170.4-112.9-250-177.8-6.7-5.6-7-13-3.9-18.6.7-4.5 3.2-8.7 8.1-11.9 41-23.8 74.7-52.9 104.5-89.8 7-8.4 23.1-5.9 27.7 3.6 42.8 91.8 88.7 181.9 137.8 270.6 8.1 14.8-8.8 33.4-24.2 23.9"/><path d="m19124 9301.7c-72.3-44.1-141.3-92.2-207.6-144.4 46.6-17.9 93.3-36.1 139.5-55.1 29.2 59.3 60 117.5 91.9 175.4 8.4 15-8.4 33.3-23.8 24.1"/></g><path d="m22215 11135c-74.2 137.6-176.6 266.9-285.9 391.4-102.1 116.3-216.5 229.5-357.8 296.9-179.8 85.8-361.6 69.3-535.3 9.1-172.5 9.2-344 9.7-510.1-48.4-245.9-85.9-528.2-265.2-669-489.8-75.7-120.7-97.1-260.4-112.1-399.6-19.3-179.6-39.5-359.4-55-539.3-12.4-144.3-11.1-289.9 51.3-423.5 52.9-113.2 140.2-205.8 238.9-280.6 107.3-81.4 231.2-148.1 358.2-193.4 156.1-55.7 306.4 0 465.8.7 162.9.7 313.9-41.1 475.8-4.7 166.7 37.5 320.7 125.3 449.9 235.6 221.4 189 448.4 467.1 549.8 742.7 96.4 261.9 49.1 492.1-64.5 702.9" fill="#de684e"/><g fill="#bf4c33"><path d="m20838 10742c-30.1-18.3-70.3-26-102.7-14.3-3.5 1.2 83.5 63.4 94.2 63 15.6-.6 19.5-.4 25.9-16.1 7.1-17.9-1-22.6-17.4-32.6zm29.1 76.3c-92.1 41.2-208-112.6-147.2-126.3 59.1-13.3 154.2-2.8 176.9 64.3 9 26.6-5.3 51.1-29.7 62"/><path d="m21826 11568c-14.5 17.2-39.2-7.7-24.8-24.8 212.8-253.3 411.5-605 198.6-920.8-36.8-54.7-77.8-105.5-100.5-168.3-21.6-59.8-27.5-123.7-45.3-184.5-43.5-148.9-192.4-227.1-285.9-343.9-111.4-139.2-209.8-235-397.8-251.9-155.3-13.8-314.5-9.7-469.4 5.9-117.1 11.8-230.7 21-341.7 47 7.8 2.7 13.8 10 10.5 20.2-53.5 164.7 13.7 329.1 87.7 475.9 67.3 133.8 150.3 258.1 246 373.1 14.3 17.3-10.4 42.2-24.8 24.8-110.4-132.8-205-277.6-277.8-434.5-65.6-141.5-114.9-294.7-64.9-448.6.8-2.4 2-4.3 3.4-6-49.7 12.6-98.8 28.5-147.5 50.3-137.4 61.6-289.5 136.6-339.3 289.9-7 21.4-40.8 12.2-33.8-9.3 33.2-102.2 106.1-173.6 195.9-229.3 105.7-65.5 232.4-126.7 355.1-149.9 137.2-26 281.7-36.9 420.9-46.7 145.2-10.1 301.3-13.7 445.4 9.8 123.3 20.2 213 80.6 292.6 174.6 38.7 45.7 73.7 94.4 113.6 139.1 44.7 50.1 98.6 88 146.9 134 96.5 91.7 97.7 205.1 135.7 325 41.3 130.2 150.5 221.6 184.7 356.3 75.7 298.6-99.8 574-283.5 792.6"/><path d="m20537 10055c-24.3-103.6-36.1-207.8-35.5-314.2.2-22.6 35.2-22.6 35.1 0-.6 103.2 10.7 204.3 34.2 304.9 5.1 22-28.7 31.3-33.8 9.3"/><path d="m21784 10599c-120.6 81.6-275.6 133.1-415.1 171-133.9 36.5-271.4 45.7-404.3.5-21.2-7.2-12.1-41.1 9.4-33.8 138.1 47 278.7 31.9 416.4-9.3 127.4-38.2 265.4-83.9 375.9-158.7 18.7-12.7 36.3 17.7 17.7 30.3"/><path d="m21045 11189c-37.9-97.1-82.3-190.9-133.1-281.9-11-19.7 19.3-37.4 30.3-17.7 52.3 93.7 97.7 190.4 136.6 290.3 8.2 21-25.7 30.2-33.8 9.3"/><path d="m20722 11015c-148 190.6-354.4 321.1-589.9 373.6-21.9 5-31.3-28.8-9.3-33.8 230.2-51.4 429.8-178.4 574.4-364.6 13.9-17.8 38.5 7.2 24.8 24.8"/></g><g fill="#d99f82"><path d="m25908 13827c-526.6-776.9-919.9-1638.5-1162-2545.2-5.8-21.8 28-31.2 33.8-9.3 241.4 904 633.5 1762.3 1158.5 2536.8 12.6 18.7-17.7 36.3-30.3 17.7"/><path d="m25592 14848c-360.4-1105-659-2229.5-894.4-3367.7-4.5-22.1 29.3-31.5 33.8-9.4 235.4 1138.3 534 2262.8 894.5 3367.8 7 21.5-26.9 30.7-33.9 9.3"/><path d="m24735 14005c-170.1-681-237.8-1383.3-200.7-2084.3 1.2-22.4 36.3-22.6 35.1 0-36.9 697.9 30.1 1396.9 199.4 2074.9 5.4 22-28.4 31.3-33.8 9.4"/><path d="m23539 14163c-11.5 19.3-41.8 1.7-30.2-17.7 459.3-769.2 761.7-1624 889-2510.9 3.1-22.2 36.9-12.8 33.8 9.4-127.7 889.6-431.8 1747.6-892.6 2519.2"/></g><g fill="#6b3939"><path d="m26248 14312c-14.2-2.4-27.3-9.9-39.4-18-132.6-89.3-213.5-238.8-297.4-370.5-16-25.2-96.4-183.5-8.5-173.5 20.6 2.4 36.4 18.7 50.4 34 130.6 143.1 263.8 290.4 336.5 470 4.1 10.2 8.1 21.2 5.8 31.9-3.6 16.9-22.1 27.3-39.4 26.9-2.7-.1-5.4-.3-8-.8"/><path d="m25776 15446c-5.3-6.8-9.7-14.5-13.3-21.9-59-120-108.6-244.6-148.2-372.3-10.3-33.1-114.4-336.4-13.2-309.1 21 5.7 32.7 27.6 41.6 47.4 87.3 192.9 152.2 395.9 193 603.7 5.3 27.2 3.5 65.3-23.8 70.5-14.5 2.7-26.6-6.2-36.1-18.3"/><path d="m24821 14570c-16.7-22.1-23.2-52.6-31.6-78.7-21.9-67.5-40.7-136.7-53.4-206.5-12.8-71.2-44-228.4-6.4-297 9.2-16.9 30.2-28.9 47.9-21.6 8.3 3.4 14.5 10.3 19.9 17.4 22.6 29.6 47.5 102.3 53.6 139 31.8 191 53.8 260.9 39.8 412.2-2.3 24.8-13.6 56.7-38.4 54.9-12.7-.9-22.9-8.5-31.4-19.7"/><path d="m23581 14113c-2 9.4-5.8 18.6-9.5 27-65.9 151.6-133.8 306.5-246.3 427.8-15.5 16.8-33.2 33.6-55.6 38.3-138.7 29.3 47.3-311.3 72.1-348.5 22.2-33.2 188.6-254.5 235.3-177.8 6.4 10.4 6.5 21.9 4 33.2"/></g><path d="m25154 6651.3c-186.5-5.6-1040.7-17.5-1098.9 0-22.1 6.7-126.9 447.4-239.5 1014.4-2.8 14-5.6 28-8.4 42.1-5.6 28.7-11.2 58.2-17.2 87.6-2.4 14.1-5.2 28.4-8 42.8-173.6 902.5-347.5 2029.5-253.5 2277.4.3.3.7 1 .7 1.4 5.9 15.7 12.6 31.5 20 47 180.9 398.6 654.9 712.4 654.9 712.4l-125.8 1240.6h1239.1l-23.5-132.9-8.8-49.5-17.9-101.3-8.7-47.7-158.9-897.2s281.3-241.6 464.3-523.5c6.6-10.2 13.3-20.7 19.6-30.9 67.7-109.4 118.5-223.7 131.1-331.3 46.7-397.3-374.1-3345.4-560.6-3351.4" fill="#485a7e"/><g fill="#fff"><path d="m24778 11628c-53.4-66-109.8-129.4-169.2-190.1-15.8-16.1 9-40.9 24.8-24.8 59.4 60.7 115.8 124.1 169.2 190.1 14.1 17.4-10.6 42.4-24.8 24.8"/><path d="m24859 11558c-53.4-66-109.8-129.4-169.2-190.1-15.8-16.1 9-40.9 24.8-24.8 59.4 60.7 115.8 124.1 169.2 190.1 14.1 17.4-10.6 42.4-24.8 24.8"/><path d="m24106 9219.9c-53.4-66.1-109.8-129.4-169.2-190.1-15.8-16.2 9-41 24.8-24.8 59.4 60.7 115.8 124 169.2 190.1 14.1 17.4-10.6 42.3-24.8 24.8"/><path d="m24187 9149.7c-53.4-66-109.8-129.4-169.2-190.1-15.8-16.1 9-40.9 24.8-24.8 59.4 60.7 115.8 124.1 169.2 190.1 14.1 17.4-10.6 42.4-24.8 24.8"/><path d="m25326 10210c-53.4-66-109.8-129.4-169.2-190.1-15.8-16.1 9-40.9 24.8-24.8 59.4 60.7 115.8 124.1 169.2 190.1 14.1 17.4-10.6 42.4-24.8 24.8"/><path d="m25408 10140c-53.4-66.1-109.8-129.4-169.2-190.1-15.8-16.2 8.9-41 24.8-24.8 59.4 60.7 115.8 124.1 169.2 190.1 14 17.4-10.6 42.3-24.8 24.8"/><path d="m23894 7915.7c-33.3-41-67.7-81.4-103.8-120.3-2.4 14.1-5.2 28.4-8 42.8 29.8 33.3 58.9 67.7 87.3 102.4 14 17.5 38.9-7.4 24.5-24.9"/><path d="m23976 7845.6c-50.9-62.4-103.5-122.4-159.6-179.9-2.8 14-5.6 28-8.4 42.1 50.1 52.2 97.8 106.6 143.1 162.7 14.3 17.5 38.9-7.4 24.9-24.9"/><path d="m24167 10570c-53.4-66.1-109.8-129.4-169.2-190.1-15.8-16.2 9-41 24.8-24.8 59.4 60.7 115.8 124 169.2 190.1 14.1 17.4-10.6 42.3-24.8 24.8"/><path d="m24248 10500c-53.4-66-109.8-129.4-169.2-190.1-15.8-16.1 9-40.9 24.8-24.7 59.4 60.7 115.8 124 169.2 190.1 14.1 17.3-10.6 42.3-24.8 24.7"/><path d="m25265 9332.9c-53.4-66-109.8-129.4-169.2-190.1-15.8-16.1 9-40.9 24.8-24.8 59.4 60.7 115.8 124.1 169.2 190.1 14.1 17.4-10.6 42.4-24.8 24.8"/><path d="m25346 9262.8c-53.4-66-109.8-129.4-169.2-190.1-15.8-16.1 8.9-41 24.8-24.8 59.4 60.7 115.8 124.1 169.2 190.1 14 17.4-10.6 42.4-24.8 24.8"/><path d="m24307 7164.5c-53.4-66-109.8-129.4-169.3-190.1-15.7-16.1 9-40.9 24.8-24.8 59.5 60.7 115.8 124.1 169.3 190.1 14 17.4-10.6 42.4-24.8 24.8"/><path d="m24388 7094.4c-53.4-66.1-109.8-129.4-169.2-190.1-15.8-16.1 9-41 24.8-24.8 59.4 60.7 115.8 124.1 169.2 190.1 14.1 17.4-10.6 42.4-24.8 24.8"/><path d="m24651 8018.7c-53.4-66.1-109.8-129.4-169.2-190.1-15.8-16.2 9-41 24.8-24.8 59.4 60.7 115.8 124 169.2 190.1 14 17.4-10.6 42.3-24.8 24.8"/><path d="m24732 7948.5c-53.4-66-109.8-129.4-169.2-190.1-15.8-16.1 8.9-40.9 24.7-24.8 59.5 60.7 115.9 124.1 169.3 190.1 14 17.4-10.6 42.4-24.8 24.8"/><path d="m24450 11838c-51 67.9-98.6 138.2-142.8 210.6-11.8 19.3-41.9 1.4-30.2-17.9 44.3-72.5 91.9-142.7 142.8-210.7 13.4-17.9 43.7-.1 30.2 18"/><path d="m24362 11776c-50.9 67.9-98.5 138.2-142.8 210.6-11.8 19.3-41.9 1.4-30.1-17.9 44.2-72.5 91.8-142.7 142.8-210.7 13.4-17.9 43.6-.1 30.1 18"/><path d="m25294 11984-8.8-49.5c-21.4 31.3-41.7 63.2-61.7 95.8-11.6 19.3 18.6 37.1 30.2 17.9 13.3-21.8 26.6-43.2 40.3-64.2"/><path d="m25268 11833-8.7-47.7c-43.5 59.3-84.5 120.3-122.7 183.4-12 19.3 18.2 37.2 30.1 17.9 31.9-52.6 65.6-103.8 101.3-153.6"/><path d="m24982 10694c-50.9 68-98.5 138.2-142.8 210.7-11.7 19.3-41.9 1.3-30.1-18 44.3-72.5 91.9-142.7 142.8-210.6 13.4-17.9 43.7-.1 30.1 17.9"/><path d="m24894 10632c-51 68-98.5 138.2-142.8 210.7-11.8 19.2-41.9 1.3-30.1-18 44.2-72.5 91.8-142.7 142.8-210.6 13.4-18 43.6-.2 30.1 17.9"/><path d="m24678 8596.1c-50.9 68-98.5 138.2-142.8 210.7-11.7 19.3-41.9 1.3-30.1-18 44.3-72.4 91.9-142.6 142.8-210.6 13.4-17.9 43.7-.1 30.1 17.9"/><path d="m24590 8534.7c-51 68-98.6 138.2-142.8 210.7-11.8 19.3-41.9 1.3-30.1-18 44.2-72.4 91.8-142.7 142.7-210.6 13.5-17.9 43.7-.1 30.2 17.9"/><path d="m25168 7221.6c-50.9 68-98.5 138.2-142.8 210.7-11.7 19.3-41.9 1.3-30.1-18 44.3-72.4 91.9-142.6 142.8-210.6 13.4-17.9 43.7-.1 30.1 17.9"/><path d="m25080 7160.2c-51 68-98.6 138.2-142.8 210.7-11.8 19.3-41.9 1.3-30.1-18 44.2-72.5 91.8-142.7 142.7-210.6 13.5-17.9 43.7-.1 30.2 17.9"/><path d="m23834 9695.3c-51 67.9-98.5 138.1-142.8 210.6-11.8 19.3-41.9 1.4-30.1-17.9 44.2-72.5 91.8-142.7 142.8-210.7 13.4-17.9 43.6-.1 30.1 18"/><path d="m23746 9633.8c-50.9 68-98.5 138.2-142.8 210.7-11.8 19.3-41.9 1.3-30.1-17.9 44.3-72.5 91.9-142.7 142.8-210.7 13.4-17.9 43.6-.1 30.1 17.9"/><path d="m24723 9695.3c-50.9 67.9-98.5 138.1-142.8 210.6-11.8 19.3-41.9 1.4-30.1-17.9 44.3-72.5 91.9-142.7 142.8-210.7 13.4-17.9 43.6-.1 30.1 18"/><path d="m24635 9633.8c-50.9 68-98.5 138.2-142.8 210.7-11.7 19.3-41.9 1.3-30.1-17.9 44.3-72.5 91.9-142.7 142.8-210.7 13.4-17.9 43.7-.1 30.1 17.9"/><path d="m25465 8184c-51 68-98.6 138.2-142.8 210.7-11.8 19.3-41.9 1.3-30.1-18 44.2-72.5 91.8-142.7 142.7-210.6 13.5-17.9 43.7-.2 30.2 17.9"/><path d="m25377 8122.6c-50.9 68-98.5 138.2-142.8 210.7-11.8 19.2-41.9 1.3-30.1-18 44.2-72.5 91.8-142.7 142.8-210.7 13.4-17.9 43.6-.1 30.1 18"/></g><g fill="#ebbd94"><path d="m8013.1 7145.7c-10.51-99.1-16.15-198.4-16.92-298.1-.34-45.2 69.79-45.2 70.13 0 .76 99.7 6.4 199 16.92 298.1 4.76 44.8-65.4 44.5-70.13 0"/><path d="m8195.9 7363.7c-46.78-157.4-65.01-317.2-54.43-481.2 2.89-44.8 73.04-45.1 70.13 0-10.18 157.7 6.88 311 51.92 462.5 12.9 43.4-54.77 61.9-67.62 18.7"/><path d="m8340.6 7360c-29.87-118.4-45.48-238.4-46.87-360.5-.51-45.1 69.62-45.2 70.13 0 1.31 116 16 229.4 44.36 341.9 11.03 43.7-56.58 62.4-67.62 18.6"/><path d="m8509.7 7507.9c-1.09 45-71.21 45.2-70.13 0 3.35-138.8 16.24-276.3 37.93-413.4 7.02-44.5 74.6-25.6 67.61 18.6-20.71 130.9-32.22 262.3-35.41 394.8"/><path d="m8610.3 7484.5v-379.8c0-45.1 70.13-45.2 70.13 0v379.8c0 45.2-70.13 45.2-70.13 0"/><path d="m8858.7 7490.5c-1.53 45-71.66 45.2-70.13 0 3.73-109.1 7.45-218.2 11.17-327.3 1.53-45 71.66-45.2 70.12 0z"/><path d="m9066.8 7618.9c-4.96-134.8-14.87-269.1-29.77-403.2-4.97-44.8 65.19-44.4 70.12 0 14.9 134.1 24.82 268.4 29.77 403.2 1.67 45.2-68.47 45.1-70.12 0"/><path d="m9214.8 7622.1c-24.8-120.7-40.02-242.3-45.57-365.4-2.02-45.1 68.11-45 70.13 0 5.26 116.9 19.51 232.2 43.07 346.8 9.04 44-58.54 62.9-67.63 18.6"/><path d="m9382.9 7724.1-11.12-397.2c-1.27-45.2 68.86-45.1 70.13 0l11.12 397.2c1.27 45.1-68.86 45.1-70.13 0"/><path d="m9527.6 7757c-7.64 44.4-75.23 25.6-67.61-18.6 20.15-117.1 32.82-234.6 38.56-353.2 2.16-44.9 72.3-45.2 70.12 0-6.03 124.8-19.86 248.6-41.07 371.8"/><path d="m11104 8696.7c8.3 44.1-59.3 63-67.6 18.6-18.3-97.9-26.6-196.1-23.9-295.7 1.2-45.1 71.4-45.3 70.1 0-2.5 93.3 4.2 185.3 21.4 277.1"/><path d="m10938 8641.4c4.4 44.9-65.7 44.6-70.1 0-12.5-126.6-7.7-251.4 12.6-377 7.1-44.5 74.7-25.6 67.6 18.6-19.2 119.2-21.9 238.4-10.1 358.4"/><path d="m10694 8571.5c.6-140.7-5.1-280.9-16.9-421.1-3.9-44.9 66.3-44.7 70.1 0 11.9 140.2 17.5 280.4 17 421.1-.2 45.1-70.3 45.2-70.2 0"/><path d="m10529 8442.8c-9.7-133.7-24.4-266.7-44.4-399.2-6.7-44.1 60.9-63.2 67.6-18.6 20.9 138.7 36.7 277.9 47 417.8 3.3 45-66.9 44.8-70.2 0"/><path d="m10429 8311.4c6.3 44.1-61.3 63.2-67.7 18.6-19.4-135.5-25.9-270.6-18-407.3 2.7-44.9 72.8-45.2 70.2 0-7.6 130.1-3.1 259.5 15.5 388.7"/><path d="m10159 8156.6v-350.7c0-45.1 70.1-45.1 70.1 0v350.7c0 45.1-70.1 45.2-70.1 0"/><path d="m9989.7 8051.4c-3.08-165.7-32.09-325.3-86.64-481.6-14.89-42.7 52.83-61 67.62-18.6 56.66 162.3 85.96 328.4 89.16 500.2.8 45.1-69.31 45.1-70.14 0"/><path d="m9787.8 7829.4c-4.4-118.8-7.51-237.6-9.35-356.5-.7-45.2 69.43-45.2 70.13 0 1.84 118.9 4.95 237.7 9.35 356.5 1.67 45.2-68.46 45.1-70.13 0"/><path d="m9728.8 7399.6c-31.27 102.5-43.12 205.9-36.23 312.8 2.9 45-67.23 44.8-70.12 0-7.28-112.9 5.74-223.3 38.73-331.4 13.13-43 80.84-24.7 67.62 18.6"/></g><path d="m12740 13796c-.4 15.4-1.1 30.8-1.4 46.2-.4 9.5-7.7 17.2-17.5 17.6l-399.8 6.6c-122.7 38.6-248.9 65.6-377.9 76.1-206.6 16.9-417.3-4.2-623.8-13.7-216.4-10.1-433-16.8-649-29.8-58.2-3.5-116.1-9.1-159.9-51.5-22.8-21.7-40.3-50.5-54.7-81.7-20-42.8-34.4-90.1-48.4-129.7-61.7-174.3-96.4-357.7-103.8-542.1-4.2-105.9.4-211.8-7.4-317.7-8.7-116.1-38.9-223-76.4-332.7-62.8-183.4-103.1-366.1-116.4-559.6-14.4-208.7-1.8-416.9-5.3-625.6-4.2-244.4-85.2-462.1-148.28-695.3-52.6-194.9-94.67-392.7-134.29-591.1-5.26-26.3-405.69-131.2-453.73-146.6-204.06-64.5-436.88-10.2-630.78-104.1-121.32-58.6-205.83-185.2-261.22-328.6-2.1-4.5-3.86-8.7-5.27-13.3-56.09-151.1-80.64-319.8-82.04-448.1-1.05-99.6 2.45-198.1-5.61-296-5.26-61.3-15.08-122.3-33.31-183.3-43.48-144.1-116.41-277-174.61-415.2-11.23-27-22.1-54.3-32.26-81.7-66.98-177.8-110.8-363.2-131.14-551.5-13.68-122.7-17.18-246.9-11.22-371 .35-5.6 3.5-11.2 8.06-14.4 3.86-3.1 8.77-4.2 14.03-2.4 19.63 7 38.92 14.7 57.51 23.5 23.48 10.8 46.27 23.1 68.37 36.4 25.59 14.8 50.84 30.9 75.38 47.7 29.81 19.7 59.26 40 89.06 60 19.29 13 38.92 25.6 58.91 37.8 6.31 3.9 12.62 7.4 19.28 10.9 23.15 13 46.29 23.9 70.13 33 22.44 8.4 44.88 15.8 68.02 21.7 28.4 7.7 57.51 13.7 86.96 18.3 23.14 3.8 46.63 7 70.13 9.4 37.51 4.6 75.73 7.7 113.95 11.6 22.79 2.1 45.58 4.5 68.38 7.4.35 0 1.05 0 1.4.3 62.76 7.4 125.17 17.9 187.23 31.6 23.85 4.9 47.69 10.5 71.53 16.8 18.94 4.9 38.23 9.8 57.16 15.4 7.01 1.8 13.67 3.9 20.33 6 17.53 4.9 35.07 10.5 52.25 16.5 41.38 12.9 82.75 28 123.07 44.1 23.85 9.5 47.34 19.3 70.83 29.8 14.38 6 28.75 12.7 42.78 19.3 22.44 10.5 44.87 21.4 66.97 32.6 22.43 11.6 44.53 23.5 66.61 36.1 23.15 12.7 45.94 26 68.38 39.7 1.75 1 3.51 2.1 5.26 3.1 29.8 18.3 58.91 37.5 86.96 57.9 24.54 17.2 48.38 35.4 71.88 54 39.27 30.5 77.14 62.7 114.3 95.7 27.35 23.8 53.95 48 80.65 72.2 18.2 16.9 36.5 33.7 54.7 50.5 17.9 16.8 36.1 33.3 54 49.8 23.1 21.4 46.6 42.8 70.1 63.5 37.9 34 76.1 66.9 115.7 98.9 24.2 19.6 49.1 38.5 74.4 56.7 8 6.4 16.1 12 24.5 17.9 23.5 16.5 47.7 32.6 71.9 47.7 24.5 15.8 49.4 30.9 74.7 45.6 32.9 19.3 66.6 38.2 100.2 57.2 23.9 13.6 47.7 27 71.6 40.6 33.3 19.3 66.6 38.6 99.2 59.3 23.9 14.7 47 29.8 69.8 45.9 30.8 21.1 60.6 43.2 89 67.3 18.3 14.8 36.2 30.5 53.3 47 6.4 6 12.7 12.3 18.6 18.6 3.2 3.2 6.3 6.3 9.1 9.5 66.3 70.4 117.5 152.5 144.9 245.8 35.7 122 27.3 263.3 91.1 376.2 18.2 32.3 42.4 57.2 70.5 76.8 19.6 13.7 41 24.9 64.2 34 108.7 42.4 247.9 38.6 354.1 50.5 132.5 15.1 307.5 6.3 428.1 70.5 112.9 60.3 133.6 194.9 151.5 309.6 25.9 167.9 41 337.6 49.8 507.3 18.6 360.1 9.8 720.9 23.5 1081.4 30.8 793.1 278.4 1567.7 261.2 2363.3" fill="#fff"/><g fill="#e0ccc3"><path d="m9169.3 9676.9c-7.34 0-13.95 5.1-15.55 12.6-1.86 8.6 3.62 17 12.23 18.9 4.69 1 474.97 100.4 910.38 68 136.8-10.2 242.6-23.4 336-35 206-25.7 354.7-44.3 655.2-8.3 327.6 39.3 485.1 1.4 560.8-16.9 17.7-4.2 35.9-8.5 40.7-7.3 25.5 10.1 340.9 228 546.6 372 7.2 5.1 17.1 3.4 22.2-3.8 5-7.2 3.3-17.2-3.9-22.2-86.8-60.7-521-364.2-554.3-376-13.1-4.6-29.3-.7-58.8 6.4-73.8 17.8-227.5 54.7-549.5 16.2-304.4-36.6-454.8-17.7-662.9 8.2-93 11.6-198.5 24.8-334.5 34.9-430.92 32.3-896.67-66.3-901.3-67.4-1.12-.2-2.26-.3-3.36-.3"/><path d="m9277.6 8088.5c-5.23 0-10.36 2.5-13.41 7.3-4.76 7.4-2.61 17.2 4.79 22 3.18 2 318.51 206.1 518.46 461.5 58.96 75.4 99.68 141.7 139.03 205.8 97.21 158.3 181.11 295 489.71 495.7 429.4 279.2 910.4 357.9 915.2 358.7 8.5 1.3 16.8-4.5 18.2-13.2s-4.5-16.9-13.2-18.3c-4.7-.7-479.3-78.5-902.9-353.9-302.5-196.8-384.7-330.7-479.85-485.7-39.82-64.8-81.01-131.9-141.12-208.7-203.34-259.7-523.09-466.7-526.29-468.7-2.68-1.7-5.66-2.5-8.62-2.5"/><path d="m9899.9 9958.9c-2.33 0-4.69.5-6.94 1.6-7.9 3.8-11.23 13.3-7.4 21.3 1.4 2.9 143.08 294.9 406.48 750.2 246.3 425.9 322.2 788.5 377.6 1053.3l11.9 56.7c13.5 63.4 32.9 179.8 57.4 327.2 78.3 470.6 196.6 1181.7 317.5 1356.6 157.9 228.4 360.3 308.2 368.8 311.5 8.3 3.1 17.4-.9 20.6-9.1 3.1-8.2-.9-17.4-9.1-20.6-2-.8-202.1-80-354.1-300-116.9-169-239.2-904.3-312.3-1343.6-24.5-147.8-44-264.5-57.6-328.6l-11.9-56.6c-55.8-266.9-132.3-632.4-381.3-1062.7-262.7-454.2-403.89-745.3-405.3-748.2-2.74-5.7-8.43-9-14.34-9"/><path d="m11062 12651c-1.8 0-3.6.3-5.4.9-8.2 3-12.6 12.1-9.6 20.4 12 33.7 297.3 829 502.8 1000.7 205.3 171.5 325 196.6 330 197.6 8.5 1.9 16.9-3.9 18.6-12.5 1.8-8.6-3.8-17-12.4-18.8-1.2-.2-117.8-25.4-315.8-190.8-198.9-166.1-490.3-978.7-493.2-986.9-2.3-6.5-8.5-10.6-15-10.6"/></g><path d="m23709 8250.1 295.2 496.8-251.2 94.4-437.6-542.7z" fill="#fea689"/><path d="m23724 8735.1s26.5 227.5 76.6 313.6c50 86.2 216.3 78.5 300.1 64.1 83.9-14.5 445.3-35.1 517.6-68.9 72.2-33.9 3.8-106-84.8-135.9-88.7-29.9-342.2-65.1-421-104.6-78.9-39.4-120.5-80.8-120.5-80.8l-120.5-91.1z" fill="#fea689"/><path d="m19653 6789.5s1998.6 140.3 2127.1 280.5c128.6 140.3 235.9 596.1 486.1 806.5 250.3 210.3 752.8 1074.7 752.8 1074.7l818.2-556s-420.8-1044.7-748-1605.7c-327.3-561-783.1-1006.1-888.3-1052.4-105.2-46.2-1227.2-22.9-1542.8 82.3-315.5 105.2-1005.1 970.1-1005.1 970.1" fill="#d99f82"/><path d="m22266 9192.2-100.4 569.1-251.9-92.3 22.3-696.8z" fill="#fea689"/><path d="m22895 5929.7c-1.7 14.4-3.1 28.4-4.5 42.4-1.4 12-3.2 23.9-4.6 35.8-2.5 21.4-5.3 42.8-8.1 63.8-14.7 109.8-29.8 219.5-45.9 329.3 0 1.7-.4 3.8-.7 5.6-10.5 72.9-21 145.5-32.3 218.4-32.2 209-83.4 483.9-142 778.8-28.4 143.7-58.9 292-89.4 440l-1.4 6.3c-21 101-42.4 201.6-63.4 300.2-52.3 244.7-102.8 476.8-145.6 669.7-56.4 255.2-98.8 442.1-112.2 500-2.1 9.1-3.1 15.1-3.8 17.5-.4 1.1-.4 1.4-.4 1.4s-5.2-3.5-15-9.8c-3.5-2.1-7.8-4.9-12.3-8.1-49.1-31.9-159.2-103.1-281.9-182.3-134.7-86.6-285.4-183-387.5-246.8-49.4-30.9-73.6-53.3-84.8-83.8-10.2-26.7-10.2-59.7-8.1-110.5 4.9-129 11.2-258.8 27.7-387.1 15.4-118.8 42.8-232.8 75.4-347.8.7-2.5 1.4-4.9 2.1-7.4 40-145.8 36.1-277 9.1-425.7-7.7-41.7-15.1-83.8-22.4-125.8-24.6-139.9-47.4-280.9-63.1-422.2-6.7-56.4-12-113.2-16.2-169.7-189.3 37.5-379.7 71.9-570.1 87-4.2.3-8.8.7-13 .7-304.3 21.7-622-30.5-912 86.6-339.4 137.4-675.6 305-1024.9 417.6-273.1 88-554.3 142-851.6 122-225.9-15.4-400.5-62.8-562.8-122-97.1-35.8-190.1-75.8-286.1-116.1-8.1 2.5 199.8-459 196.3-469.5-.7-1.4-1-2.8-1.4-4.2-23.5-14.7-47.3-29.4-70.5-44.9-17.5-11.9-1-40.6 16.9-28.7 12.6 8 25.2 16.1 37.8 24.2-35-117.1-58.9-237.1-70.1-358-9.1-91.9-10.8-184.1-5.2-276.3.3-11.6 1.4-22.8 2.4-34.4 7.7-104.1 24.9-207.9 51.6-309.9 47.3-181.3-127.3-97.2-110.8-285.1 9.1-104.1-60.4-279.8-103.5-376.9-5.9-13.4-11.2-25.3-15.8-35.1-10.1-22.1-16.8-35.1-16.8-35.1s142.7-4.2 347.1-10.5c186.2-5.2 424.3-11.9 652.6-18.2 287.8-7.7 560.3-14 696-15.8 97.4-1 195.6-8.8 293.8-19.6 10.2-1.1 20.3-2.5 30.5-3.9 2.1 0 4.6-.3 6.7-.7 104.8-12.3 210-28 314.8-42.8 128.4-17.8 256.3-34.3 384-42.4 14-.7 28-1.4 42.1-1.7 33.3-1.8 66.6-2.5 99.5-2.5 42.5 0 166.9 9.5 337.3 24.9 316.3 28 790 75.4 1189.7 117.5 362.9 37.8 664.5 71.5 731.8 81.7 74.3 11.2 148 30.5 217.4 58.5 27.3 10.9 53.6 23.2 79.2 36.5 97.5 51.9 182 123.4 239.5 217 29.5 47.7 52.3 101 65.9 160.3 16.5 69.7 21.8 141.3 20.4 212.8-.7 41.7-3.5 83.4-7.4 124.8" fill="#d99f82"/><path d="m11674 3641 1739.6 763.8-2651.8 555.3-87.6-552.2z" fill="#878484"/><path d="m11319 4811.5 619.5-155.4-264.1-93.7-545.3 143.4z" fill="#736d6d"/><path d="m13774 5799s-293.6-736.4-372.5-815.3c-78.9-78.8-559.6-201.6-708.6-52.5-149 149 135.6 1209.6 135.6 1209.6z" fill="#fea689"/><path d="m15064 8908.2c-7.7 99.4-35.1 198.5-55.4 295.4-47.7 229-102.6 539-282.9 706-24.3 22.5-51.4 41.9-82.6 53.7-38.3 14.6-78.2 24.6-118.5 31.6-19.8 3.5-104.8-.1-116.3 11.8-85.1 88.8-217.6 132.5-343.2 128.9-455.1-14-815-299.8-958-725.8-121.1-360.9-136.1-762.3-109.8-1139 15.6-224.1 43.1-446.6 40.8-670.5 3.5-4.1 6.6-8.6 10.3-12.6 53.6-57.2 99-18.7 170-28.9 70.7-9.9 138.8-49.4 211.7-40.8 20.1 2.6 37.5 9.5 53.3 18.7 43.1 24.7 76.6 65.5 127.3 77.3 50.6 11.5 102.9-1 154.5-16.8 40.1-12.5 79.9-26.3 118.4-32.2 73.9-11.2 132.5 9.6 201.5 33.2 47.7 16.5 95.7 20.7 144 22.7 46.4 2 92.4 1.6 139.5 7.6 7.5 1 15.1 1.9 22.3 3.3 26.6 4.2 52.6 10.5 78.3 18.7 105.8 33.5 201.8 98 273.2 183.5 22.7 27.3 41.4 55.9 57.2 85.8 10.9 20 20.1 41.1 28.6 62.1 38.5 96.7-313 22-274.3 122 45.9 118.2 195.4 190.5 283 274.3 102.5 98 185.2 224.2 217 363.6 12.6 55.4 14.4 110.9 10.1 166.4" fill="#332723"/><path d="m17500 5053.9c127.9 40.5 359.5 27.4 367 332.7 16.6 677.9-118.1 1335.2-540.7 1828.1-160.5 129.5-727.5 889.7-1804.6 1177-191.3 51-639.7 50.9-832.2 7.5-203.2-45.9-406.3-91.9-609.5-137.8-164-37.1-344.9-60-472.5-179.8-97.2-91.3-149.9-214.3-156.1-346.8-8.7-188.9 47.1-387.3 85.7-570.8 39.4-187.6 84-374.2 134.7-559 95.1-346.4 405.9-890.5 594.1-1033.9 792.3-604.1 2844.1-779.6 3097.6-757.2 253.6 22.5 121.7 240.7 136.5 240" fill="#485a7e"/><path d="m15132 8204.7s-28.9-254.9-160.4-452.1c-131.5-197.3-497.2-197.3-497.2-197.3l-79.5 73.3-303.9 280.8-44 40.4 710.9 702.7 116.7-139.8 14.8-17.4z" fill="#fea689"/><path d="m14230 7850.2s19.2-265.9 64.5-372.6c64.5-151.8 250.1-482.1 344.8-495.2 94.6-13.2 578.5 622.3 641 910.4 34.5 159.4-194 366.3-194 366.3l-510.2-470.3z" fill="#fea689"/><path d="m13608 8081.6s-289.9-203.5-429.7-511.1-402.8-1070.3-464.1-1166.7c-61.4-96.4-96.4-315.6-96.4-315.6s855.1-289.2 927.2-341.8 273.7-70.2 273.7-70.2l368.1 631.2z" fill="#485a7e"/><path d="m13973 6016.3c-5.9 0-11.5 3.3-14.3 8.8-.8 1.6-77 154.4-215 364.1-210.9 320.5-460.8 1007.5-463.3 1014.4-3.1 8.2 1.2 17.3 9.5 20.3 8.2 3 17.4-1.2 20.4-9.5 2.5-6.9 251.2-690.3 460-1007.7 139.2-211.5 216.2-365.8 217-367.4 3.8-7.9.6-17.4-7.2-21.3-2.3-1.2-4.7-1.7-7.1-1.7" fill="#324366"/><path d="m13588 6633.3c-3.8 0-7.6 1.4-10.7 4.2l-443 403.2c-6.5 5.9-7 16-1.1 22.5 6 6.5 16 6.9 22.5 1.1l443.1-403.3c6.5-5.9 6.9-15.9 1-22.5-3.1-3.4-7.4-5.2-11.8-5.2" fill="#324366"/><path d="m14802 8086.6c-10.2-136.8-76-259.4-224-374.8-60.5-47.4-125.9-71.4-183.1-83.2l-303.9 280.8 314.4 150.3s316.5 455.3 317.1 436.2c2.3-86.1 95.5-193.4 79.5-409.3" fill="#f2835e"/><path d="m14003 7992.5c-39.9 15.6-83.1 31.8-124.8 41.5-1.8.4-3.7.7-5.5 1 .8 19.1-3.9 37.3-18.6 53.2-50.7 54.8-146.5 73.3-217 81-17.4 1.9-37.4 3.7-58.2 5.1-14.7 34.4-44.9 51.7-88.5 54.5-105.2 6.7-224.6-19.7-325.7-47.6-32.7-9-71.8-18.5-94.3-45.1-.8 88-1.2 176 0 263.6 1 71.7 17.9 141.3 18 213.2.1 62.1 7.8 123.1 10.5 185.1.9 20.5-30.9 20.4-31.8 0-4.7-105.2-8.1-212.6-21.7-317-12.7-97.1-4.9-197-4.9-294.9 0-41.8-.6-83.7-.8-125.6-4.2-20.4-6.6-41.1-8.2-58.9-4.9-52.9 5.7-102.3 13.7-154.1 6.2-40 9.6-80.8 10.4-121.3.3-17.4 12.6-83.7 5.6-97.2-2.8-5.3-8.4-8.3-12.7-12.4-10.6-9.9-13.2-25.5-14.9-39.8-12.6-103.1-15.4-206.6-14.5-310.2 1-108.4 10.8-209.6 21.8-317.3 10.7-105.4-30.7-194.4-34.2-297.2-2.8-83.1-13-163.9-2.8-246.7.8-7 4.3-13.5 11.7-15.4 51.4-13.2 119.8-14 171.6-7.3 6.6.9 13.8 4.3 15.3 11.7 7.9 38.1 2.7 79.1 5.3 118 3.4 52.7 8.3 104.2 7.9 157.2-.4 59.2 4.2 117.9 9.4 176.6 2.6-34 5.9-67.9 8.1-102.1 7.1-113.1 9.2-227.7-6-339.8-1.1-8.2 1.8-17.5 11.1-19.6 2.7-.6 4.9-.8 7.4-1.3 3.1-5.8 9.1-9.7 17.3-7.2 32.7 10.1 67.4 3.6 101 5.6 34.2 2.1 68.1 14.1 102 15.1 31.8 1 63-26 94.1-10 14.6 7.4 24.9 26.8 34.8 39 20.3 25 51.3 49.6 69.9 76.6-3.9-31.6-5.1-63.2-2-94.4 1-10.4 9.3-18.1 20.1-15.4 148.2 36.3 159.1 279.7 199.6 393.1 17.4 48.8 44.3 94.9 59.3 144.3 12.5 41.5 8.9 84.7 8.3 127.4-1.6 100 22.8 203.6 34.4 303 21.9 187.4 85.6 372 86 561.3.1 47.6-19.1 51.8-67.5 70.7" fill="#332723"/><path d="m13262 9149.9s126.4-629.9 300.7-926.1c113.7-193.3 327.1-370.1 573.6-427.6 248.8-58.1 423.3 127.4 565.5 347.9 139.8 216.6 120.1 336.2 80.6 584.2-5.2 32.9 83.5 153.8 76.1 186.3-57.3 251.1-149 517.6-303.4 726.8-27 36.6-56.7 72.5-92.9 100.3-213.8 164.4-653.5 12.4-863.1-115-209.7-127.5-337.1-476.8-337.1-476.8" fill="#fea689"/><path d="m13606 8695.7c-5.4 23.6-5 47.7 13.3 58.8 48.7 29.7 95-57.3 102.6-88.2 4.5-18.3 1.8-42.3-11.6-56.6-14.4-15.3-36-12.5-52.3-1.8-14.6 9.5-25.7 23.7-33.7 39.2-5.7 11.1-13.9 29.6-18.3 48.6" fill="#252730"/><path d="m14209 8827.2c-5.4 23.6-5 47.7 13.3 58.9 48.7 29.6 95-57.4 102.6-88.3 4.5-18.3 1.8-42.3-11.6-56.6-14.4-15.3-36-12.5-52.3-1.8-14.6 9.5-25.7 23.7-33.7 39.2-5.7 11.1-13.9 29.7-18.3 48.6" fill="#252730"/><path d="m14033 8364.3c-23.8 4.2-54.6 6.7-76.4 17.8-37.6 19-27.3 49.7-28.5 85.7-1.9 58.5-3.9 117-5.8 175.5-.7 21.1-33.6 21.2-32.9 0 1.5-43.9 2.9-87.7 4.4-131.6 1.2-38.2-5.2-84.8 4.8-121.6 12.8-46.7 86.5-50.6 125.7-57.5 20.7-3.7 29.6 28 8.7 31.7" fill="#f2835e"/><path d="m13916 8201.5s62 8.2 163.5 32.8c101.6 24.7 187.1 69.2 187.1 69.2s-23.8-110.3-138.9-149.3c-115.1-39.1-211.7 47.3-211.7 47.3" fill="#f2835e"/><g fill="#332723"><path d="m13686 8898.4c-12.4 7.8-30.8 9.1-43.8 9.6-41.6 1.6-86.9-7-126.2-20.7-27.7-9.7-89.8-30.1-91.1-65.9-.3-8 2.6-13.6 9.7-17.5 17.4-9.8 39.3-2 58.1.3 37.3 4.6 74.8 8.6 112 13.9 24.7 3.5 51.9 6.3 73.7 19.5 15.3 9.3 27 31.5 18.5 49-2.4 5-6.2 8.9-10.9 11.8"/><path d="m14100 8988.1c-.6-19.4 19-35.1 36.8-37.4 25.2-3.2 51.3 5.2 75.3 11.9 36.1 10.2 72 21.8 108 32.6 18.1 5.5 41.4 7.2 53.4 23.2 4.8 6.4 5.3 12.7 1.7 19.9-15.7 32.2-80.7 25.9-110 23.5-41.4-3.3-86.3-13.7-123.7-32-11.8-5.7-28-14.3-36.2-26.5-3.1-4.6-5.1-9.6-5.3-15.2"/><path d="m14804 9257.5c-61.8 183.3-127.8 432.5-304.5 540.6-90.3 55.2-215.9 37-317.2 38.2-132 1.5-239-31.6-360.8-80-186.7-74.1-408.6-156.5-529.3-327.2-33.6-47.5-53.1-98.9-63.6-155.9-11-59.3-34-121.1-40.4-180.4-6.6-60.9 16.2-126.6 28.7-185.3 17.3-81.3 34.6-162.5 51.9-243.7 1.6-7.6 6.9-11.2 12.8-11.7-3.9-4.8-7.9-9.6-12.4-14.3-14.6-15.3 8.7-38.6 23.3-23.2 58.9 61.8 70.5 138.1 81 220 9 70.3 16.8 139.7 67 194.6 38.7 42.4 92.7 68.5 142.4 95.4 82.4 44.7 150.3 102.7 195.6 174.2 15.4 24.4 77.1 51.4 101.8 66.4 36.3 22 74.9 46.2 114.7 62.1 65.5 26.2 123.3-31.4 179.8-54 56.6-22.7 112.3.2 168.5-17.4 34.8-10.9 56.9-40.1 87.9-57.1 30.8-16.9 74.8-17 101-41.1 31.1-28.6 27.9-83.8 49.7-119.3 54.1 62.9 171.5 14.8 206.4-63.5 49.2-110.1 24.4-233-6.5-346.6 4.4-12.5 8.7-24.9 12.9-36.9 26.1-75.4 94.2-196.1 94.2-196.1s47.6-10.2 47.9 3.4c5.9 259.9-50.1 513.6-132.8 758.8"/></g><g fill="#fea689"><path d="m12944 5563.3c-35.1 0-16.5 181.5-531.8-41.9-724.6-314.1-1250.6-403.2-1250.6-403.2l46.8-356.5s295.6 52 566.8 42.4c280.9-10 609.9-12 942.4 13.1 348.4 26.3 494.1 83.7 494.1 83.7v369.2z"/><path d="m16287 5549.2s-215.6-833.5-281-923.9-889.1-144.1-889.1-144.1l182.3 1255.9z"/><path d="m16034 4683.2s-140.7-450.6-295.7-546.8c-169.5-105.2-2067 208-2067 208l86.8 284.4 1787.3 381.2z"/><path d="m11394 5109.2s-312.9 184.8-447 185.7c-150.9 1.1-310.7-55.9-428.4-149.7-53.6-42.7-106.1-93.9-116.2-163.4-6.2-42.1-18.4-146.4 36.1-164.6 65.8-21.9 297.8 87.7 352.7 105.2 55 17.5 147.8 6.6 151.4-8.8 30.7-131.5-289.3-45.2-306.8-99.3-17.6-54.1 170.9-105.5 341.8-86.4 171 19.2 249.8 32.1 249.8 32.1l166.6 122.9z"/><path d="m13758 4628.8s-268.3 166.5-408.5 166.5c-140.3 0-337.5-207.1-381.3-232.9-43.8-25.7-105.2-148.4-52.6-187.9 52.6-39.4 319.9 35.1 464.6 21.9 144.6-13.1 291-52 291-52l239.3 136.8z"/></g><path d="m11043 5949.3c0-52.6 631.7-2308.3 631.7-2308.3l-3144.5 628-765.39 2308.3 3278.2-628" fill="#878484"/><g fill="#736d6d"><path d="m9657.4 5672.9c-11.26-55.8-131.06-78.7-267.59-51.1s-238.08 95.1-226.83 150.9c11.26 55.7 131.06 78.6 267.59 51 136.53-27.5 238.08-95.1 226.83-150.8"/><path d="m11589 3711.2c-1.1 0-2.2 0-3.2.3l-3021.3 613.6c-8.61 1.8-14.18 10.2-12.44 18.8s10.02 14.1 18.79 12.4l3021.3-613.6c8.7-1.8 14.2-10.2 12.5-18.8-1.6-7.6-8.2-12.7-15.6-12.7"/><path d="m11657 3687.2c-6.9 0-13.3 4.6-15.3 11.6l-290.3 1042.6c-2.3 8.5 2.6 17.2 11.1 19.6s17.3-2.6 19.6-11.1l290.3-1042.5c2.3-8.5-2.6-17.3-11.1-19.6-1.4-.4-2.9-.6-4.3-.6"/></g><path d="m21918 9651.4s-63.8 219.9-51 318.8c12.8 98.8 169 156.2 251.9 175.3 82.9 19.2 424 140.3 503.7 137.1 79.8-3.2 44.7-96.2-25.5-158.1-70.1-61.9-290.1-192.6-347.5-259.6-57.4-66.9-79.7-121.1-79.7-121.1l-75.7-130.7z" fill="#fea689"/><g fill="#b0765a"><path d="m21745 6580.7c-4.7 0-9.3 2.1-12.5 6-.9 1.1-90.1 111.3-253 170.3-165.7 60-561 101-565 101.4-8.7.9-15.1 8.7-14.2 17.5.9 8.7 8.7 15 17.5 14.2 16.4-1.7 403.2-41.8 572.5-103.1 171.8-62.2 263.3-175.6 267.2-180.4 5.4-6.9 4.3-16.9-2.6-22.4-2.9-2.3-6.4-3.5-9.9-3.5"/><path d="m21433 6811.6c-1.3 0-2.7.1-4.1.5-8.5 2.3-13.5 11.1-11.2 19.6l38 140.2c2.3 8.5 10.9 13.4 19.5 11.2 8.5-2.3 13.5-11 11.2-19.5l-38-140.3c-1.9-7.1-8.3-11.7-15.4-11.7"/><path d="m22815 6431.7c-7.6 0-14.3 5.4-15.7 13.2l-298 1680.1c-1.6 8.6 4.2 16.9 12.9 18.4 8.4 1.4 16.9-4.2 18.4-12.9l298.1-1680.1c1.5-8.7-4.3-16.9-12.9-18.4-1-.2-1.9-.3-2.8-.3"/><path d="m22163 5660.3c-7.8 0-14.6 5.7-15.8 13.7-.3 2.4-36.9 246.1-220 546.2-183.2 300.2-427.8 459.4-430.2 461-7.4 4.7-9.6 14.6-4.8 22s14.6 9.5 22 4.8c2.5-1.6 253.2-164.8 440.2-471.2 186.7-306.1 222.9-548.1 224.4-558.3 1.2-8.7-4.8-16.8-13.5-18-.8-.1-1.5-.2-2.3-.2"/></g><g fill="#fff"><path d="m18531 3992.5c-6.3 7.7-14 14.7-23.1 21-1.8 1.4-3.6 2.8-5.7 3.9-66.6 43.4-189.3 60.3-234.2 65.5-71.9 8.4-144.4 11.3-216.7 9.2h-.3c-34-1.4-68-3.6-102.1-7.4-15.7-1.4-31.9-3.5-47.6-5.6-83.8-11.2-170.1-28.1-253.9-20.7 14.4 8.4 1.4 30.5-13 22.1-8.4-4.6-17.9-10.5-27.7-16.5-30.1 5.6-59.9 15.4-88.7 30.5-14.7 7.7-27.7-14.4-13-22.1 23.9-12.3 48.1-21.4 73-27.7-9.5-6.6-19-13.7-28.8-21.4-10.1-7.3-20.3-15.8-30.5-24.5-10.9-9.1-21.7-19-31.9-28.8-30.1-29.8-56.8-62.7-72.9-96.4-24.2-49.8-26-102 15.4-150.4 7-8.4 14.7-15.8 22.8-22.1 9.5-7.7 20-14 30.9-19.6 48.7-23.9 108-26.3 161.9-25.3 72.6 1.1 145.6 7 218.1 16.5 33 4.2 66 9.1 98.6 15.1 111.1 19.6 220.5 48.7 327.1 86.6 41 14.7 95.4 30.1 143.4 52.2 35.8 16.9 68.4 37.2 89.4 64.2 9.1 11.9 15.8 22.8 19.7 33.3 10.5 27 5.2 49.8-10.2 68.4"/><path d="m19514 5105c-.7.7-1.1 1.4-2.1 2.1-7.8 6-15.1 10.6-21.4 14.4-76.1 48.7-71.2-8.1-184.5 31.9-10.8 3.9-22.7 8.4-36.1 14.4-26.3 11.2-46.2 28.7-75.7 44.9-39.6 22.1-96.1 41.7-205.8 41.7-81.4 0-206.9-18.6-287.9-29.1-119.6-15.1-240.5-32.6-353.1-78.2-6.3-2.5-13-5.3-19.3-8.4-24.2-10.2-47.7-22.1-70.4-35.4-37.9-22.1-73.3-47.7-104.5-78.2-16.5-15.4-31.6-32.3-45.6-50.2-63.1-80.6-107.3-178.4-151.8-272.8-142.7-67.6-285.5-135.3-428.5-202.6-1.4-.7-2.5-1.1-3.9-1.8-24.2-11.5-51.9-22.4-80.3-34-13.3-5.6-27-11.2-40.3-17.5-33.3-15.1-64.5-33-87.6-56.1-36.2-35.8-28.4-75.4-11.3-118.9 3.5-8.4 6.7-16.5 10.6-24.5 28.7-68 67.3-133.3 106.9-194.6 19.6-30.2 39.3-59.3 65.2-82.1 14-12.6 29.5-23.1 48-30.8 1.1-.7 2.5-1.1 3.9-1.8 57.2-22.8 119.2-31.2 183-31.5h.7c40-.4 81 2.8 121.4 8h1.7c6.3.7 13 1.4 19.3 2.5 4.2 0 8.4-.4 12.6-.4 16.1-.3 32.3-.7 48.4-1 111.1-1.4 222.7-1.1 334.5.3 23.9.4 48 .7 71.9 1.4h9.1c66.6 1.4 133.2 3.9 199.9 7.4 124.1 6.3 247.9 16.8 370.9 33.3 88-42.1 193.2-69.1 281.2-15.4 22.1 13.3 41.8 30.8 58.9 51.2 21.8 25.2 40.4 54.7 56.1 85.9 26.3 52.6 46 110.1 61.8 159.2 19.6 59.2 34.7 119.5 46.9 180.5.4 1.1.4 2.1.7 3.2 2.5 12.3 4.9 24.5 7.4 37.2 1.4 7.7 2.8 15.7 4.2 23.5 1.8 11.5 3.9 23.1 5.6 34.7 1.4 8 2.8 16.1 3.9 24.2 20.7 133.2 34 268.2 56.4 400.7 8.4 49.5 17.9 98.6 29.5 146.9 2.1 8.5-3.9 14.1-10.5 15.8"/><path d="m24512 4581.5c-17.8-71.1-55.7-130.4-105.2-179.8-12.9-22.1-28.4-43.2-46.2-62.5-7.8-8-17.9-2.8-20.7 5-37.9-27.4-78.9-51.2-120.7-71.6-176.7-85.9-375.1-136.7-569.4-164.1-190.4-26.6-381.8-20.7-573.3-24.2-203.3-3.5-401.8-32.2-601.3-69.4-183-33.7-366-70.8-551.9-86.2-198.1-16.5-396.9-8.5-595.4-.4-198.1 8.1-396.9 16.1-594.6 0-192.9-16.1-383.6-49.1-577.9-46.3-352 4.9-695.6 89.8-1044.2 129.4-.7-4.9-1.7-9.5-2.4-14.4-2.1-16.4-27-9.4-24.6 6.7.4 3.5 1.1 7 1.4 10.5-28 3.2-56.1 6-84.1 8.4-16.5 1.1-16.5 27 0 25.6 29.1-2.4 58.5-5.2 88-8.7 29.1 199.8 62.8 399.7 81 600.6 16.1 178.5 5.3 356.6-10.2 534.4-.3 0-.7-.4-.7-.4 8.1 11.9 16.2 23.8 25.3 35.4 261.5 84.5 1145.8 568.7 1374.5 636.8 219.8 65.2 449.1 95 677.7 104.5 350.3 14.3 696-35.5 1045.3-39 287.5-3.1 576 29.5 863.6 16.2 58.5-2.8 117.4-7.4 176-14.8 356.6-43.8 710.7-179.1 963.9-441.8 16.8-17.1 32.6-35 47-53.3 117.1-143 174.6-311.3 171.1-501.4-2.1-110.4-13-223.3-32.6-331.7-5.3-29.8-12.3-58.9-21.4-86.9 16.1 27.7 29.1 57.5 37.1 90.4 4.2 15.8 28.8 9.2 24.9-7"/><path d="m21518 4110.6c-12.9 6-26.3 12-39.6 17.9-12.3 5.6-24.5 10.9-36.8 16.1-338.7 147-697.4 243.7-1064.5 286.5-162.4 18.9-326.5 27.4-489.9 24.6-16.4 0-32.9 0-49.4-1.1-22.8 0-45.2-1-68-2.1-100-4.6-202.7-11.2-304.4-24.2-11.2-1.4-22.8-2.8-34-4.6-4.2-.3-8.8-1-13-1.7-1 0-1.7 0-2.8-.3-79.9-11.6-158.5-28.1-234.2-51.2-13-3.9-28-9.5-44.9-16.5-64.1-26-153.2-71.9-253.8-127-96.1-52.5-202-113.6-306.1-173.9-.4-.3-1.1-.7-1.8-1-22.1-13-44.2-26-66.2-38.6-30.9-17.9-61.1-35.8-90.5-52.9l-2.5-1.4c-10.8-6.3-21.7-12.7-32.2-18.6-14-8.1-27.7-16.1-41.4-23.9-50.1-29.1-97.1-56.1-138.9-79.2-67.3-37.5-120.9-65.6-153.2-78.5-40.3-16.2-86.9-35.5-133.9-58.2l-31.9-16.5c-7-3.9-13.7-7.4-20.4-11.6-83.4-47.3-159.1-109-187.5-191.5-5.3-14.3-8.1-28-8.8-41-.4-2.4-.4-4.5-.4-6.6-.3-11.6 1.1-22.5 3.9-33 .3-1.4.7-3.1 1.4-4.6 13.7-46.2 55.7-79.2 105.2-98.8 1.4-.7 2.8-1.1 4.2-1.8 8.4-3.1 17.5-5.9 25.9-8.7 1.4-.4 3.2-.8 4.6-1.1 18.6-4.6 37.2-7.7 55.4-9.5 164.4-12.9 338 38.3 486.7 104.5 79.2 35.4 155 77.2 227.5 124.1 81.7 44.6 161 93.7 237.4 147.3 180.6-30.1 364-35.1 547.4-34.7 209.3.7 418.6 2.8 627.6 5.3 214.2 2.8 428.5 6.3 642.7 10.8 11.9.4 24.2.4 36.5.4 166.9 1.4 351.3-8.8 502.4 66.6.7 0 1.1.4 1.8.7 5.9 2.8 11.5 6 17.1 9.5 91.9 50.5 162.4 128.3 222.4 214.2 38.5 54.4 72.9 112.2 105.5 168 3.1 5.6 1.4 14.7-4.6 17.8"/><path d="m24464 4825.2c-.3 3.5-1 6.7-1.4 9.8-6.6 43.2-17.1 82.1-30.8 116.8-63.5 158.1-198.1 235.3-359.1 263-58.5 9.8-120.2 13.3-183.3 11.9-68.4-1.8-138.2-9.5-206.9-21.4-47.3-8.1-94-18.2-139.2-29.4-98.9-24.9-190.8-56.1-266.2-87-262.6-107.6-491.5-270-700.5-460-37.5-34.4-74.7-68.8-111.9-103.1-9.8-9.1-19.3-18.3-29.1-27l-3.8-3.9c-11.9-11.2-24.2-22.4-36.1-33.6-59.6-55.8-119.2-111.5-178.9-167.3-85.5-79.9-173.5-166.9-185.1-288.2-.7-2.8-.7-6-1-9.1-1.1-.7-1.8-1.1-2.8-1.4-44.2-19-90.2-39.6-132.2-66.6-1.1-.7-2.1-1.4-3.2-2.1-41.4-26.7-78.2-59.3-105.2-100.3-15.4-23.9-31.9-60.3-35.4-94.7-.3-2.8-.7-5.3-.7-8.1-.7-12.9.7-25.9 4.9-36.8.7-1.7 1.4-3.1 2.1-4.5v-.4c1.4-2.8 2.8-5.6 4.9-8.4 8.1-11.9 21.1-20.7 40.3-24.5 35.5-8.1 73-2.9 110.5-2.2 2.1.4 4.6.4 6.7.4 11.9.4 23.8 0 36.1-1.4 1.7-.4 3.5-.7 5.2-.7 2.5-.4 4.6-.7 6.7-1.1 67.7-12.2 132.2-31.9 201.6-28 60 3.5 117.8 18.9 176 30.5 2.8.7 6 1.1 8.8 1.8 79.2 15 159.9 21 240.5 26.3 151.5 9.8 303 19.6 454.4 31.5 151.9 11.9 304 24.5 455.9 38.6 71.8 6.6 143.4 13.7 214.9 21 60.3 6 126.6 4.9 184.4 24.2 109.8 36.5 66.3 144.8 125.2 222 68 88.3 178.8 137.1 252.8 221.9 28.1 32.3 53 67 75.1 103.4 7.3 11.6 14 23.5 20.6 35.5 5.3 10.1 10.6 20.3 15.5 30.8 5.2 11.2 10.5 22.4 15.4 34 38.9 92.2 60.3 191.8 60.7 291.8 0 31.9-2.1 64.1-6.4 96"/><path d="m26053 3475.6c-3.1 14.4-6.7 28.8-10.9 43.2-29.1 100.9-78.9 184.1-144.1 257-40.6 45.2-86.9 86.6-138.1 125.9-152.9 117.8-315.9 225.4-482.5 322.9-85.5 50.1-173.2 96.8-263 139.5-10.1 5-20.6 9.5-31.2 14.4-29.4 13-59.2 25.6-88.7 38.9-47.7 21.8-94.3 45.3-136.7 76.1-99.3 71.9-198.5 180.6-256.3 301.9 2.1 23.9 2.8 48.1 1.4 71.6-2.5 41.3-10.9 81.6-29.1 120.2-6 12.6-24.6 2.5-19-10.1 20.7-43.5 28.1-90.5 27.7-137.9-25.6 66.3-37.8 135.4-30.1 204.1 1.7 13.7-20 14.4-21.4.7-3.5-31.5-3.2-62.4.7-92.2 4.9-40.3 15.4-79.2 30.8-116.8 4.9-13.6 11.3-27 17.6-40.3-2.1-21.7-5.6-43.8-9.8-65.5-6.7-34.1-15.1-67.7-23.2-100-14-55-33.6-109.4-62.4-157.1-4.2 35.1-7.4 70.2-9.5 105.6-.7 13.6-22.1 14.4-21.4.7 2.5-44.6 6.7-89.1 13-133.3-1.4-2.1-3.1-4.2-4.5-5.9-8.8-11.9-18.6-22.8-28.8-33.3-20.7-20.7-44.2-38.6-71.5-53-12.3-6.6-2.1-25.6 10.1-18.9 35.5 18.2 64.9 42.8 89.8 70.8 3.2 3.5 6.3 7.4 9.1 10.9.7-3.9 1.4-7.7 1.8-11.6 2.1-10.5 3.8-21 5.9-31.5.7-3.2 1.4-6.7 2.1-9.9 28.4-138.1 81.4-270.3 175.7-379.3 33.7-38.6 129.4-150.5 189.4-121.7 34.3 16.8 34.7 48 22 81.3 71.9-69 157.8-127.2 230.8-187.6 85.5-70.4 166.5-149.7 228.6-241.9 8.7-12.3 16.4-24.9 24.2-37.5 33.3-55.8 59.6-116.4 73.2-180.2 8.1-38.3-1.7-92.9-1.4-137.1 0-13.4 1.4-25.3 3.9-35.8.7-3.2 1.8-6 2.8-8.8 5.3-13.6 18.9-15 34.4-9.8 11.5 3.5 23.8 10.9 35 19 16.5 11.9 29.5 26.3 31.2 35.7.4.4.4.7.4 1.1v-1.1h-.4c-1.4-12.3-3.5-24.2-6.3-35.7-37.5-157.8-179.8-283-196.7-449.6-5.2-53.6 27-59.6 64.5-51.5-29.8-21.7-60.3-42.4-88-66.6-9.8-8.4-19.3-17.6-28-27.4-21.8-23.8-63.8-74.7-45.6-109.7 22.8-44.2 119.2-16.5 155-7.4 109.7 28.8 217 83.5 317.7 144.5 43.8 25.9 86.2 53.3 126.9 80.6 169 112.6 281.5 293.5 324 490.2 2.4 11.6 4.5 23.5 6.6 35.4 17.6 103.8 15.8 210.7-7.7 313.8"/></g><path d="m26053 3475.6c-3.1 14.4-6.7 28.8-10.9 43.2-29.1 100.9-78.9 184.1-144.1 257-4.5-46.3-4.5-93.3-4.2-136.8.4-51.5-1.4-105.9-13.7-155.6-14.3-60-44.1-113.3-104.1-147.7-89.4-51.2-193.9-20.3-281.5-61.3-44.2-20.7-74.7-68.4-100.7-115.7-6.6-12-13-23.9-19.3-35.4-3.5-6.7-6.6-13-10.1-19 11.5 3.5 23.8 10.9 35 19 16.5 11.9 29.5 26.3 31.2 35.7.4.4.4.7.4 1.1v-1.1h-.4c-1.4-12.3-3.5-24.2-6.3-35.7-37.5-157.8-179.8-283-196.7-449.6-5.2-53.6 27-59.6 64.5-51.5-29.8-21.7-60.3-42.4-88-66.6-9.8-8.4-19.3-17.6-28-27.4-21.8-23.8-63.8-74.7-45.6-109.7 22.8-44.2 119.2-16.5 155-7.4 109.7 28.8 217 83.5 317.7 144.5 43.8 25.9 86.2 53.3 126.9 80.6 169 112.6 281.5 293.5 324 490.2 2.4 11.6 4.5 23.5 6.6 35.4 17.6 103.8 15.8 210.7-7.7 313.8" fill="#635a5a"/><path d="m18300 4661c-11.9-.4-28-6.4-36.4-8.9-36.2-11.1-65.1-19.4-100.1 3.9-11.1 7.4-21.4-5.7-17.8-15.8-.7-2.7-.6-5.8 1.1-9 22.3-42.6 78.9-44.7 118.8-28.7 16.5 6.6 39.5 18.5 46.3 36.5 6.8 17.6-.6 22.4-11.9 22" fill="#4a4747"/><path d="m17408 4437.4c-1.4 2.5-2.8 5.6-4.6 8.8-33.3-15.1-64.5-33-87.6-56.1-36.2-35.8-28.4-75.4-11.3-118.9 3.5-8.4 6.7-16.5 10.6-24.5 20.6 12.9 41 26.6 60.3 42.1 23.5 17.8 57.8 38.2 61.3 70.8 3.2 27.3-16.1 55.4-28.7 77.8" fill="#4a4747"/><g fill="#ede0da"><path d="m17883 3548.2c-1-6.3-4.9-11.5-11.2-14-76.4-29.8-143.4-75.7-198.4-136.4l-1.8-1.8c-.7 1.5-1.1 3.2-1.4 4.6-2.8 10.5-4.2 21.4-3.9 33 0 2.1 0 4.2.4 6.6 55.4 55.1 121 97.9 195.3 126.9 5.2 2.2 10.9 1.5 15.1-1.7 4.5-3.9 7-10.5 5.9-17.2"/><path d="m17979 3457.4c0-4.2-2.1-8.4-6-11.6-56.4-43.8-109-96.4-160.9-160.2-1.4.3-3.2.7-4.6 1.1-8.4 2.8-17.5 5.6-25.9 8.7-1.4.7-2.8 1.1-4.2 1.8l.7.7c56.4 71.2 112.5 127.6 171.1 173.2 9.1 7 20.3 3.5 26.3-3.9 2.4-3.1 3.5-6.3 3.5-9.8"/><path d="m20257 4222c-8.7 11.1-31.8 18.6-52.2 25.1-8.7 2.8-17 5.5-22.2 7.9-43.4 20-97.3 45-116.6 91.7l-.8 2c-1.6 4.1-3.3 8.3-6.6 11.9-3.6 4-8.3 6.2-12.5 8.2-8.8 4.3-17.8 8.4-26.7 12.6-45.5 21.1-92.5 43-132.5 74.2-75 60.7-72.5 177.9-69.9 212.3 10.6 143.6 107.3 242 214 338.5 4.5 4 6.3 9.5 5.2 14.9-1.3 6.2-6.2 11.5-12.5 13.5-5.8 1.9-12 .6-16.7-3.7-113.4-102.5-224.1-216.5-225.2-384-.3-44.6 6.1-128.5 52.5-188.7 36.7-47.7 100.4-76.5 156.5-101.9 9-4.1 17.8-8.1 26.4-12.1 31.8-46.2 77.3-77 116.7-99-46-2.9-92.6-8.8-137.7-14.5-16.2-2.1-32.3-4.1-48.4-6-121.7-14.4-248.6-32.4-377.2-53.6-9-1.4-14.2-8.8-12.7-17.8 1.3-8.3 8.2-15.9 17.8-15.9 1 0 2 .1 3.1.3 110.5 18.1 218.2 33.8 320.1 46.6 49.6 6.2 100 12 149.9 17.2 10.4 1.2 20.4 2.4 30.1 3.6 49.4 6.2 92.1 11.6 143.4-9.2 18.4-7.4 34.2-7.4 40.2 0 3 3.6 5 10.2-2.3 21.4-.9 1.5-2 3-3.2 4.5"/><path d="m21420 4274.2c4.1 28.3-3.2 57-10.2 84.7-2 7.8-3.9 15.4-5.6 22.9-10.4 47-22.2 96-36.3 149.6-1.5 6-5.6 10.3-11.2 11.8-6.3 1.7-13.2-.1-17.8-4.7-4.3-4.2-5.8-10-4.2-16.1 11.5-44.1 21.3-83.7 29.9-121.2 2-8.8 4.7-18.6 7.6-28.9 3-10.9 6.2-22.7 8.9-34.4-22.6 34.8-46.8 69.2-70.3 102.6-21.8 31-44.4 63.1-64.8 94.3-3.5 5.4-8.5 8.2-15.2 7.9-6.6-.4-12.7-4.2-15.5-9.8-2.5-5-2.1-10.8 1.2-15.8 18.6-28.4 37.3-56.8 56.1-85.1 37.6-56.9 76.6-115.7 113.4-174.3 32.7-52 59.9-99.5 61.9-153.4 2.5-70.2-42.8-128.3-82.9-179.4-7-9.1-3.7-20.5 3.7-26.2 3-2.4 6.3-3.6 9.6-3.6 4.4 0 8.6 2.1 11.8 6.2 75.5 96.5 116.3 183.1 70.4 292.1-10.4 24.8-23.7 51.2-40.5 80.8"/><path d="m23313 5251.1c-178.1 24.3-364.5-7.5-554.1-94.5-171.1-78.5-278.9-189.2-320.3-329.1-49.2-166.2-24.3-349.5 63.6-466.9 61.3-81.9 155.1-141.7 279.2-178-307.3-18.2-602.5-97.5-878-235.8-5.6-2.8-7.7-7-8.5-10-.9-3.7-.4-7.9 1.5-11.7 2.9-5.7 8.9-10.3 15.9-10.3 2.5 0 5.2.6 7.9 2 301.7 151.4 639.7 232.8 977.7 235.4 3.5.1 6.8 1.1 9.6 3.2l2.4-.4c2.1-.4 4-.7 6-.9 6.7-1 12.8 1.5 16.9 6.8 4.2 5.3 5.4 12.3 3.2 17.8-2 4.8-6.2 8-12 8.8-166.5 23.4-286.7 76.4-367.6 162.1-117.7 124.6-127.3 325.1-84.6 468.6 38.7 130.3 140.9 234 303.6 308.2 180.6 82.4 363.7 114 529.6 91.3 6.5-1 12.8 1.6 16.9 7 4.1 5.3 5.3 12.2 3.1 17.7-2 4.8-6.2 7.9-12 8.7"/><path d="m21983 3864.5c-91.5-37.2-169-99.2-224.1-180.2l-1.4-2.1c-.7 1.4-1.4 2.8-2.1 4.5-4.2 10.9-5.6 23.9-4.9 36.8 0 2.8.4 5.3.7 8.1 57.2 72.9 133.6 130.1 221.6 165.9 8.4 3.1 16.5-.4 20-8.8s.7-20-9.8-24.2"/><path d="m22144 3797.9c-1-6.3-4.9-11.6-11.2-13.7v-.4c-48-18.5-96.4-65.9-139.2-108-11.2-11.2-21.7-21.3-32.3-30.8-1.7 0-3.5.3-5.2.7-12.3 1.4-24.2 1.8-36.1 1.4-2.1 0-4.6 0-6.7-.4l3.5 3.6c9.1 8.4 18.2 16.8 27.3 24.8l3.2 2.9c11.2 10.1 22.8 21.3 34.7 32.9 41.7 40 88.7 85.6 140.6 105.9 5.6 2.1 10.9 1.8 15.1-1.8 4.9-3.8 7.4-10.5 6.3-17.1"/><path d="m23211 4181.7c-80.1 5.1-158.5 9.2-237.5 5.1-6.3-.4-11.6-3.7-14.4-9.3-3-5.8-2.7-13 .7-18.3 3-4.7 8.1-7.1 14.2-6.8 78.3 4.2 156.6-.1 236.5-5.1.4-.1.8-.1 1.2-.1 8.7 0 15.1 6.1 15.7 15.3.6 8.7-5 18.5-16.4 19.2"/><path d="m18919 4131c-88.2 6.3-164.2 2.9-247.1-34-64.7-28.7-129.6-60.1-192.4-90.4-30.1-14.6-60.3-29.1-90.5-43.4-8.3-4-11.3-12.7-7.3-21.1 2.9-6.1 9.2-10.8 16.4-10.8 2.5 0 5.1.5 7.7 1.8l70.9 33.6c56.2 26.7 112.4 53.4 168.7 80.1 90.3 42.7 169.4 57 273 49.8 8.9-.6 16.3 5.4 17 14.9.6 8.8-4.9 18.6-16.4 19.5"/><path d="m18103 4157.7c-108.9-58-216.5-102-319.8-130.8-155.9-43.4-263.1-19.8-318.7 70-3.3 5.2-8.4 8.1-14.2 8.1h-.6c-6.5-.2-12.6-4-15.6-9.6-2.7-5-2.5-10.9.8-16.1 50.5-81.5 129.5-110.7 217.5-110.7 168.9 0 371 107.7 467.6 159.2 5.6 3 7.7 7.4 8.4 10.5.8 3.8.2 8.1-1.8 11.9-4.1 7.6-13.8 12.8-23.6 7.5"/><path d="m17570 4192.1c1.3 0 2.6.1 3.9.4l16.1 3.4c6.1 1.2 9.2 4.8 10.7 7.5 1.9 3.4 2.5 7.5 1.6 11.6-1.8 8.6-10 16.4-21 14.2l-15.9-3.4c-10.8-2.2-14-11.5-12.4-19.2 1.6-7.5 7.9-14.5 17-14.5"/><path d="m17632 4286.3c2-.7 4-1.1 5.9-1.1 4 0 8 1.5 11.3 4.4 4.7 4 9.4 6.7 15.3 8.7 6.1 2.1 10.3 6.8 11.5 12.9 1.3 6.5-.9 13.4-5.6 17.5-4.2 3.6-9.9 4.6-15.5 2.6-11.1-3.7-20.5-9.1-29.5-16.9-4.6-3.9-6.6-9.1-5.5-14.5 1.1-6.1 5.9-11.4 12.1-13.6"/><path d="m17712 4149.6c1.1 0 2.2.2 3.4.4l22.3 4c9.1 1.7 14.2 9.2 12.5 18.4-1.6 9-9.7 16.9-20.9 15l-22.3-4.1c-9.1-1.6-14.2-9.1-12.6-18.3 1.5-8 8.3-15.4 17.6-15.4"/><path d="m17775 4264.9c1.6 0 3.2.3 4.7.7l28.6 7.6c10.6 2.8 13.9 12.7 11.7 20.9-2.2 8.3-10.2 15.3-20.8 12.3l-28.5-7.6c-6-1.6-10.3-5.8-11.8-11.4-1.7-6.2.2-13.2 4.8-17.8 3.1-3 7-4.7 11.3-4.7"/><path d="m18298 4880.6c-10.2 3.2-21.1 5.6-32.3 7.4-2.8 1-5.6 2.1-8.4 3.1-33 9.2-65.2 6-98.5-9.8-20.7-9.8-24.9-34-18.3-51.9l.7-2.8c5.3-17.9 21.1-29.8 41.1-31.2l.3 4.2 1.8-4.5h1c16.8-5.6 34-8.4 51.6-8.4 23.5 0 47.3 5.2 70.8 15.4 14.4 6.6 22.4 20.3 21.4 37.1-1.4 19.7-14.4 36.5-31.2 41.4"/><path d="m25474 3331.5c6-5.2 14.4-7.2 21.6-5.2.4.1.8.3 1.2.4 6.6 2.3 11.1 7.7 12.5 15.3 12.5 65.8 22.3 136.4 9.5 206.5-10.9 59.5-38 116.1-64.1 170.9-7.2 15-14.3 29.8-21 44.6-3 6.8-8.4 10.8-15 11.5-7.7.7-15.8-3.3-20.8-10.2-4.9-6.9-5.7-15.2-2.2-22.9 6.6-14.6 13.6-29.3 20.6-43.9 20.6-43.2 42-87.8 54.1-133.9 18.7-71.1 9.3-144-3.6-212.1-1.5-8.1 1.1-15.7 7.2-21"/><path d="m25350 3599.6c3.2-13.8 15.2-17.6 25.1-15.3.3 0 .6.1 1 .2 10.4 2.9 19.3 12.9 16.2 26.4-22.7 98.3-68.5 187-136.1 263.8-5 5.7-11.5 8.1-18.3 6.8-7.2-1.6-14.5-7.8-17.2-15.9-2.6-7.7-1-15.6 4.5-21.8 61.5-69.9 103.5-152 124.8-244.2"/><path d="m24655 4191.7c-4 13.6-16.8 17.6-27.3 14.5-10.3-2.9-18.8-12.9-15-26.3 21.5-75 58.7-143.4 110.4-203 4.5-5.1 9.7-7.2 14.8-7.2s10 2.1 13.8 5.4c8.5 7.4 12.4 21.3 2.8 32.4-46.3 53.4-79.9 115.4-99.5 184.2"/></g><path d="m19476 4352.2c-9.1 11.9-19.6 23.9-30.8 35.1-9.8 9.8-18.2 20.7-27.4 31.5l-.3.4c-.7.7-1.4 1.7-1.8 2.5-19.6 23.8-39.2 47.6-67.6 60.6-3.5 1.8-7.4 3.2-11.3 4.6-57.8 19.6-120.9-6.7-176.7 23.1-1 .4-2.1 1.1-2.8 1.8-2.4 1-4.9 2.4-7 4.2-88 55-111.5 186.1-213.2 224.7-23.5 8.8-48.4 9.8-71.9-.7-24.2-10.5-49-24.2-67.6-43.5-14.8-15-22.1-33.6-33.3-50.4-4.6-6-9.5-12-15.5-17.6-7.3-6.6 9.5-55.7 32.3-115 4.6-11.2 9.1-22.8 13.7-34.7 21-53.3 43.8-109.7 56.4-148.3 8.8-26.7 14.4-55.4 22.1-83.5 3.2-6.6 6.3-13.3 9.5-20 26.6-51.9 58.5-93.6 124.5-109.4 29.8-7 60.6-12.6 91.8-17.5 69.4-10.5 140.6-16.1 210-21 19-1.4 37.6-2.5 56.1-3.9 68.1-5.2 133.3-3.1 141 72.6 7 68.7-9.5 137.5-30.2 204.4" fill="#635a5a"/><path d="m17691 3888.8c-127.3 0-197.8 57-201 59.6-6.8 5.6-7.7 15.6-2.1 22.4 5.5 6.8 15.6 7.8 22.4 2.2.7-.6 76.5-61.4 210.8-51.2 38.3 2.8 73.8 5 107.1 7.1 92.6 5.8 165.8 10.4 237.6 23.5 99.6 18.2 165.5 18.4 168.2 18.4 8.8 0 16-7.1 16-16 0-8.8-7.2-15.9-16-15.9-.6 0-65.9-.2-162.5-17.8-73.7-13.5-151.4-18.3-241.3-24-33.3-2.1-68.6-4.3-106.8-7.1-11.1-.8-21.9-1.2-32.4-1.2" fill="#e0ccc3"/><path d="m17619 3771.2c-49.7-23.8-95.3-53.6-135.6-89.7-10.9 5.6-21.4 11.9-30.9 19.6 43.8 40.3 93.6 74 148.7 100.3 20.3 9.8 38.2-20.7 17.8-30.2" fill="#ede0da"/><g fill="#635a5a"><path d="m24286 5471.4c-253.2 262.7-607.3 398-963.9 441.8-58.6 7.4-117.5 12-176 14.8 7.3-80.7 21.4-160.6 43.1-239.2 29.8-108.3 67-171.1 178.1-200.9 30.5-8 75.4-13 101-32.9 40-31.9 50.8-74.7 52.9-122.4 1.4-31.6-.7-64.2 3.5-96.1 1.1-11.6 3.6-23.5 7.4-34.7 1.8-6.3 4.2-12.6 7-18.6 1.1-2.4 2.5-4.9 3.9-7.3 38.2-69.8 128-84.9 199.5-60 52.9 18.2 93.3 54.3 130.8 94 5.2 5.6 10.5 11.2 15.8 16.8 5.9 6.3 11.5 12.6 17.1 18.9 47 50.9 94.4 100 161.3 120.3 93.6 28 187.6 2.1 265.5 52.2-14.4 18.3-30.2 36.2-47 53.3"/><path d="m23046 5740.4c-39.6 42.4-89.8 61.7-144.1 64.5-152.5 8.8-337-110.1-414.1-201.3-33.7-39.9-104.5-103.1-55.8-157.1 42.1-46.9 123.4-20.3 175-12.2 70.8 11.2 139.9-7 208.6-2.5 26 1.8 51.9 6.3 77.5 17.2 63.8 27 116.8 78.9 146.2 141.7 19 40.3 42.1 111.8 6.7 149.7"/><path d="m21173 3736.2c-39.7 40.3-83.1 77.5-124.9 115.7-28.4 25.9-57.1 56.1-86.9 85.5-42.8 42.4-87.3 83.1-136.8 108.4-52.6 26.6-149.3 36.8-199.1-1.8-34.7-26.6-52.6-81.3-63.5-132.9-5.6-27.3-9.5-54-12.3-75-9.1-61.4 8.4-83.5 37.9-108.7 16.5-14 37.2-29.5 58.9-53.3 10.2-10.9 18.6-24.9 26.7-40.3 166.9 1.4 351.3-8.8 502.4 66.6.7 0 1.1.4 1.8.7 5.9 2.8 11.5 6 17.1 9.5-7.3 9.8-14.7 18.6-21.3 25.6"/><path d="m20809 4307.3c-54.1 13-104.9-22.4-122.1-72.5-1-3.2-1-5.6-.7-8.5-10.5-37.5 20-76 58.6-84.8 42.1-9.5 123.1 4.6 140.6 50.8 19.3 50.9-30.2 104.2-76.4 115"/><path d="m21498 5157.6c-14 12.6-30.5 23.9-47.6 34-57.2 35.1-125.2 60.7-165.2 82.4-80.6 43.9-156.7 79.6-200.9 165.2-29.8 57.5-49.8 109-103.1 149-185.8 139.6-377.6 45.6-530.1-91.5-14.4 2.8-28.8 5.9-43.2 8.7-58.5 11.6-123 26.7-179.9-.3-100.2-47.3-99.2-180.2-73.6-272.1 6.3-22.4 14.4-44.2 23.9-64.9 5.6-11.9 11.5-23.5 18.2-34.7 14.4-24.9 31.5-48.4 50.5-70.5 28-32.6 57.5-61.7 81.3-97.8 10.2-15.8 19-30.8 29.8-44.5 6-7.4 12.7-14.7 20.4-21.4 98.5-83.4 283.3-50.5 401.1-62.4 158.5-15.4 319.1-40 476.5-4.9 103.1 23.1 266.8 88.3 291.7 206.2.4.3.4.7.4 1 9.8 48-13.3 86.6-50.2 118.5"/></g><path d="m18726 4679.3c-18.2 37.7-37.8 74.6-58.6 110.9-11.3 19.5-41.6 1.9-30.3-17.7 20.8-36.3 40.4-73.2 58.6-110.9 9.8-20.3 40.1-2.6 30.3 17.7" fill="#ede0da"/><path d="m19365 4708.9c-21.6 42.3-44.3 84.6-74.7 121.5-52.8 64.2-107.1 89-114 185-1.6 22.4-36.7 22.5-35.1 0 2.9-39.5 5.8-80.2 28.2-114.2 28.9-43.8 78.7-70.6 109.9-114 71.8-99.6 136.3-237.4 150.5-359 2.6-22.1 37.6-22.4 35 0-11.8 101.2-53.9 190.7-99.8 280.7" fill="#ede0da"/><path d="m17884 3668.2c-5.8 0-11.4 3.1-14.2 8.6-4 7.8-1 17.4 6.8 21.5l534 276.6c7.8 4 17.4 1 21.5-6.9 4.1-7.8 1-17.4-6.8-21.4l-534-276.6c-2.3-1.3-4.8-1.8-7.3-1.8" fill="#e0ccc3"/><path d="m15255 5758.4c-.5 0-1 .1-1.5.1-8.8.8-15.2 8.6-14.4 17.3 5.4 59.2 134.2 1453.9 267.7 1825.6 3 8.2 12.2 12.4 20.4 9.6 8.3-3 12.6-12.1 9.6-20.4-132.2-367.9-264.7-1803.2-266-1817.7-.7-8.2-7.7-14.5-15.8-14.5" fill="#324366"/><path d="m16599 5540.1c-.9 0-1.8.1-2.7.3-8.7 1.4-14.5 9.7-13.1 18.3 1.3 7.2 123.6 722.3 187.3 965.6 63.2 241.2 81.2 489.5 81.4 492 .6 8.8 8.9 15.7 17 14.8 8.8-.7 15.4-8.3 14.8-17-.2-2.6-18.4-253.8-82.4-497.8-63.3-242-185.4-955.7-186.6-962.9-1.4-7.8-8.1-13.3-15.7-13.3" fill="#324366"/><path d="m11693 3731.4c-6.2 0-12 3.6-14.6 9.7-3.5 8.1.2 17.4 8.3 20.9l1380.6 593.3c8.1 3.6 17.5-.2 20.9-8.3 3.5-8.1-.2-17.5-8.3-20.9l-1380.6-593.4c-2.1-.9-4.2-1.3-6.3-1.3" fill="#736d6d"/><path d="m17437 5088.8c-1.4 0-2.7.1-4 .5l-232.9 59.7c-8.5 2.2-13.6 10.8-11.4 19.4 2.1 8.5 10.9 13.7 19.3 11.5l232.9-59.8c8.5-2.2 13.7-10.8 11.5-19.4-1.9-7.2-8.3-11.9-15.4-11.9" fill="#324366"/></g></svg>